<svg width="34" height="33" viewBox="0 0 34 33" fill="none" xmlns="http://www.w3.org/2000/svg">
<g clip-path="url(#clip0_125_1723)">
<path d="M33.5 16.5C33.5 7.38633 26.1137 0 17 0C7.88633 0 0.5 7.38633 0.5 16.5C0.5 25.6137 7.88633 33 17 33C17.0967 33 17.1934 33 17.29 32.9936V20.1545H13.7451V16.023H17.29V12.9809C17.29 9.45527 19.4428 7.53457 22.5881 7.53457C24.0963 7.53457 25.3918 7.64414 25.7656 7.6957V11.3824H23.6C21.892 11.3824 21.5568 12.1945 21.5568 13.3869V16.0166H25.6496L25.1146 20.148H21.5568V32.3619C28.4533 30.3832 33.5 24.0346 33.5 16.5Z" fill="white"/>
</g>
<defs>
<clipPath id="clip0_125_1723">
<rect width="33" height="33" fill="white" transform="translate(0.5)"/>
</clipPath>
</defs>
</svg>
