<svg width="213" height="73" viewBox="0 0 213 73" fill="none" xmlns="http://www.w3.org/2000/svg">
<path d="M2.41684 51.9291H1.45874V42.8057H2.41684V51.9291Z" fill="white"/>
<path d="M16.4312 51.9291H15.3598L9.82026 43.9914V51.9291H8.8186V42.8057H10.1251L15.4469 50.4634V42.8057H16.4312V51.9291Z" fill="white"/>
<path d="M27.7542 43.6701H25.568V51.9042H24.6099V43.6701H22.4324V42.8467H27.7542V43.6701Z" fill="white"/>
<path d="M38.7377 51.9294H35.9679C35.3146 51.9563 34.6744 51.7506 34.1737 51.353C33.9379 51.1428 33.7535 50.8867 33.6331 50.6022C33.5128 50.3178 33.4594 50.012 33.4769 49.7062V45.0786C33.4594 44.7727 33.5128 44.4669 33.6331 44.1825C33.7535 43.8981 33.9379 43.6419 34.1737 43.4318C34.6744 43.0341 35.3146 42.8285 35.9679 42.8554H38.7377V43.6788H35.9592C35.7708 43.6544 35.5791 43.6679 35.3966 43.7184C35.2141 43.7689 35.0449 43.8553 34.9002 43.9719C34.7555 44.0885 34.6385 44.2327 34.5568 44.395C34.4751 44.5574 34.4306 44.7342 34.4262 44.9139V46.8819H37.6577V47.7547H34.4262V49.8626C34.4368 50.0412 34.4846 50.216 34.5668 50.3771C34.649 50.5382 34.764 50.6824 34.9053 50.8013C35.2038 51.023 35.5817 51.1263 35.9592 51.0895H38.7377V51.9294Z" fill="white"/>
<path d="M51.1321 45.7949C51.1331 46.4683 50.8728 47.1188 50.4004 47.6229C49.9253 48.114 49.2655 48.4096 48.5626 48.4463H48.2926L50.9579 51.8387H49.7472L46.4896 47.7217H47.4216C48.15 47.7586 48.867 47.5385 49.4336 47.1041C49.6698 46.9143 49.8553 46.6744 49.9749 46.4039C50.0944 46.1335 50.1447 45.8402 50.1217 45.5479C50.1183 45.2874 50.0587 45.0302 49.9463 44.7924C49.834 44.5545 49.6714 44.3408 49.4684 44.1645C48.989 43.7649 48.3651 43.5555 47.7264 43.5799H45.5576V51.814H44.5647V42.8224H47.648C48.5823 42.7723 49.5006 43.0676 50.2088 43.6458C50.5214 43.917 50.7664 44.2505 50.926 44.6222C51.0857 44.9938 51.1561 45.3944 51.1321 45.7949Z" fill="white"/>
<path d="M58.3352 51.9291H57.3684V42.8057H58.3265L58.3352 51.9291Z" fill="white"/>
<path d="M74.8756 47.3013C74.884 47.932 74.7571 48.5577 74.5026 49.1408C74.2481 49.7239 73.8713 50.2521 73.3949 50.6937C72.9344 51.149 72.3797 51.5097 71.7653 51.7533C71.1509 51.997 70.49 52.1184 69.8238 52.11C69.161 52.1179 68.5032 52.0011 67.8886 51.7664C67.2741 51.5318 66.715 51.1839 66.2439 50.7431C65.761 50.3258 65.3771 49.8166 65.1174 49.2489C64.8577 48.6812 64.7281 48.0679 64.7371 47.4495C64.7274 46.8218 64.8529 46.1988 65.106 45.6184C65.359 45.038 65.7343 44.5124 66.2091 44.0735C66.6656 43.6179 67.2171 43.2568 67.8288 43.013C68.4405 42.7693 69.099 42.6481 69.7628 42.6572C71.1032 42.6416 72.396 43.1269 73.36 44.0076C73.8476 44.4218 74.2353 44.9303 74.4968 45.4986C74.7582 46.0669 74.8874 46.6817 74.8756 47.3013ZM73.9523 47.3589C73.9515 46.8513 73.8397 46.3493 73.6239 45.8845C73.408 45.4198 73.0928 45.0022 72.6981 44.6581C72.3142 44.3018 71.8595 44.0209 71.3602 43.8315C70.8609 43.6421 70.3268 43.5481 69.7889 43.5547C69.2539 43.5487 68.7233 43.6456 68.2291 43.8396C67.735 44.0335 67.2878 44.3204 66.9146 44.6828C66.534 45.0355 66.2317 45.4563 66.0253 45.9208C65.819 46.3853 65.7127 46.884 65.7127 47.3877C65.7127 47.8915 65.819 48.3902 66.0253 48.8547C66.2317 49.3191 66.534 49.74 66.9146 50.0926C67.688 50.8187 68.7338 51.2262 69.8238 51.2262C70.9137 51.2262 71.9595 50.8187 72.7329 50.0926C73.1207 49.74 73.4263 49.3147 73.6303 48.8439C73.8342 48.3732 73.9321 47.8674 73.9175 47.3589H73.9523Z" fill="white"/>
<path d="M87.6967 45.7949C87.6917 46.4782 87.4185 47.1355 86.9302 47.6393C86.4595 48.1314 85.8019 48.4275 85.1011 48.4627H84.8224L87.4963 51.8552H86.3118L83.0455 47.7381H83.9862C84.7146 47.7751 85.4316 47.555 85.9982 47.1206C86.2344 46.9307 86.4199 46.6908 86.5395 46.4204C86.659 46.1499 86.7094 45.8566 86.6863 45.5643C86.683 45.3038 86.6233 45.0467 86.5109 44.8088C86.3986 44.5709 86.236 44.3573 86.0331 44.181C85.5532 43.7821 84.9295 43.5728 84.291 43.5964H82.1397V51.8305H81.1467V42.8224H84.2301C85.1643 42.7723 86.0826 43.0676 86.7908 43.6458C87.1003 43.9186 87.342 44.2527 87.4986 44.6243C87.6552 44.9959 87.7229 45.3957 87.6967 45.7949Z" fill="white"/>
<path d="M111.301 49.4091C111.306 49.7664 111.231 50.1206 111.081 50.4484C110.931 50.7763 110.709 51.0704 110.43 51.3112C109.881 51.8108 109.149 52.09 108.387 52.09C107.626 52.09 106.893 51.8108 106.345 51.3112C106.065 51.0584 105.844 50.754 105.694 50.4169C105.544 50.0798 105.469 49.7171 105.474 49.3515H106.484C106.477 49.5916 106.521 49.8306 106.613 50.0542C106.706 50.2778 106.846 50.4813 107.024 50.6525C107.192 50.8274 107.396 50.9675 107.624 51.0638C107.852 51.1602 108.098 51.2108 108.348 51.2124C108.606 51.2198 108.862 51.1776 109.101 51.0884C109.341 50.9992 109.559 50.8649 109.742 50.6936C109.929 50.526 110.075 50.3224 110.171 50.0964C110.268 49.8705 110.311 49.6277 110.299 49.3844C110.299 48.5445 109.719 47.9517 108.557 47.6058L107.538 47.3094C107.031 47.1716 106.585 46.8828 106.266 46.486C105.965 46.072 105.804 45.5808 105.805 45.078C105.795 44.7549 105.861 44.4338 105.998 44.1377C106.135 43.8415 106.34 43.5778 106.597 43.3653C106.847 43.1353 107.143 42.9549 107.468 42.8347C107.792 42.7145 108.139 42.6569 108.488 42.6654C108.83 42.6634 109.169 42.7282 109.484 42.8557C109.798 42.9832 110.082 43.1707 110.317 43.4064C110.562 43.6353 110.755 43.9087 110.885 44.2101C111.015 44.5115 111.08 44.8347 111.074 45.1603H110.055C110.064 44.9563 110.03 44.7526 109.953 44.5616C109.877 44.3706 109.761 44.1961 109.611 44.0487C109.471 43.898 109.3 43.7757 109.108 43.6894C108.917 43.6031 108.708 43.5544 108.496 43.5464C108.271 43.5331 108.044 43.5652 107.833 43.6404C107.621 43.7156 107.429 43.8323 107.268 43.9828C107.1 44.1211 106.967 44.2937 106.879 44.4877C106.792 44.6818 106.752 44.892 106.763 45.1027C106.745 45.4192 106.846 45.7316 107.046 45.9857C107.246 46.2399 107.534 46.4198 107.86 46.4942L109.028 46.8401C109.665 46.9482 110.242 47.2648 110.658 47.7344C111.073 48.2041 111.301 48.7968 111.301 49.4091Z" fill="white"/>
<path d="M127.188 47.3013C127.197 47.9328 127.069 48.5593 126.813 49.1426C126.557 49.7259 126.178 50.2537 125.699 50.6937C125.24 51.1487 124.687 51.5094 124.074 51.7531C123.461 51.9967 122.801 52.1183 122.136 52.11C121.473 52.1193 120.815 52.0031 120.2 51.7684C119.585 51.5336 119.027 51.1851 118.556 50.7431C118.071 50.3276 117.684 49.8188 117.423 49.2509C117.161 48.6829 117.031 48.0688 117.041 47.4495C117.033 46.8221 117.16 46.1996 117.412 45.6195C117.665 45.0394 118.04 44.5136 118.513 44.0735C118.969 43.6179 119.521 43.2568 120.133 43.013C120.744 42.7693 121.403 42.6481 122.066 42.6572C123.407 42.6398 124.701 43.1254 125.664 44.0076C126.152 44.4214 126.541 44.9296 126.804 45.4979C127.067 46.0661 127.198 46.6811 127.188 47.3013ZM126.256 47.3589C126.255 46.8521 126.144 46.351 125.929 45.8864C125.715 45.4219 125.402 45.0038 125.01 44.6581C124.625 44.3016 124.169 44.0205 123.668 43.8312C123.167 43.6418 122.632 43.5479 122.093 43.5547C121.559 43.5498 121.03 43.6473 120.538 43.8412C120.045 44.0351 119.599 44.3214 119.227 44.6828C118.844 45.0343 118.54 45.4548 118.332 45.9194C118.125 46.384 118.018 46.8833 118.018 47.3877C118.018 47.8921 118.125 48.3914 118.332 48.8561C118.54 49.3207 118.844 49.7412 119.227 50.0926C119.999 50.8182 121.043 51.2255 122.132 51.2255C123.22 51.2255 124.265 50.8182 125.037 50.0926C125.431 49.7428 125.743 49.3188 125.953 48.848C126.163 48.3771 126.266 47.8698 126.256 47.3589Z" fill="white"/>
<path d="M138.711 51.9293H135.941C135.285 51.9583 134.641 51.7525 134.138 51.3529C133.902 51.1434 133.717 50.8874 133.596 50.6028C133.476 50.3182 133.423 50.0121 133.442 49.7061V42.8306H134.391V49.8625C134.401 50.0401 134.448 50.2139 134.531 50.3738C134.613 50.5336 134.728 50.6762 134.87 50.793C135.172 51.0144 135.552 51.1175 135.933 51.0812H138.711V51.9293Z" fill="white"/>
<path d="M150.174 48.9732C150.185 49.3901 150.104 49.8047 149.936 50.1903C149.768 50.576 149.517 50.9243 149.198 51.2129C148.894 51.5077 148.527 51.7386 148.122 51.8904C147.716 52.0422 147.282 52.1116 146.846 52.0939C146.421 52.0995 145.999 52.0211 145.608 51.8637C145.216 51.7063 144.864 51.4734 144.573 51.1799C144.266 50.8834 144.026 50.5316 143.866 50.1454C143.706 49.7592 143.629 49.3466 143.641 48.932V42.7976H144.59V48.7756C144.57 49.4117 144.803 50.0318 145.244 50.513C145.448 50.7404 145.703 50.9219 145.991 51.0444C146.279 51.1669 146.592 51.2272 146.907 51.2211C147.213 51.227 147.517 51.1722 147.799 51.0602C148.081 50.9481 148.335 50.7813 148.545 50.5706C148.77 50.3545 148.946 50.0967 149.062 49.8133C149.177 49.53 149.23 49.2271 149.215 48.9238V42.7646H150.174V48.9732Z" fill="white"/>
<path d="M161.462 43.6701H159.276V51.9042H158.318V43.6701H156.14V42.8467H161.462V43.6701Z" fill="white"/>
<path d="M168.439 51.9291H167.48V42.8057H168.439V51.9291Z" fill="white"/>
<path d="M184.979 47.3013C184.987 47.932 184.861 48.5577 184.606 49.1408C184.352 49.7239 183.975 50.2521 183.498 50.6937C183.038 51.149 182.483 51.5097 181.869 51.7533C181.254 51.997 180.593 52.1184 179.927 52.11C179.265 52.1179 178.607 52.0011 177.992 51.7664C177.378 51.5318 176.819 51.1839 176.347 50.7431C175.865 50.3258 175.481 49.8166 175.221 49.2489C174.961 48.6812 174.832 48.0679 174.841 47.4495C174.831 46.8218 174.956 46.1988 175.209 45.6184C175.463 45.038 175.838 44.5124 176.313 44.0735C176.769 43.6179 177.321 43.2568 177.932 43.013C178.544 42.7693 179.203 42.6481 179.866 42.6572C181.207 42.6416 182.5 43.1269 183.464 44.0076C183.951 44.4218 184.339 44.9303 184.6 45.4986C184.862 46.0669 184.991 46.6817 184.979 47.3013ZM184.056 47.3589C184.052 46.8509 183.938 46.349 183.721 45.8844C183.504 45.4198 183.188 45.0024 182.793 44.6581C182.013 43.9395 180.964 43.5427 179.875 43.5547C179.34 43.5487 178.809 43.6456 178.315 43.8396C177.821 44.0335 177.374 44.3204 177.001 44.6828C176.62 45.0355 176.318 45.4563 176.111 45.9208C175.905 46.3853 175.799 46.884 175.799 47.3877C175.799 47.8915 175.905 48.3902 176.111 48.8547C176.318 49.3191 176.62 49.74 177.001 50.0926C177.774 50.8187 178.82 51.2262 179.91 51.2262C181 51.2262 182.046 50.8187 182.819 50.0926C183.216 49.7443 183.532 49.321 183.745 48.85C183.958 48.3791 184.064 47.8711 184.056 47.3589Z" fill="white"/>
<path d="M198.854 51.9291H197.783L192.235 43.9914V51.9291H191.233V42.8057H192.539L197.87 50.4634V42.8057H198.854V51.9291Z" fill="white"/>
<path d="M210.752 49.4092C210.757 49.7664 210.682 50.1206 210.532 50.4485C210.382 50.7764 210.16 51.0704 209.881 51.3113C209.476 51.6954 208.958 51.9568 208.395 52.0621C207.832 52.1674 207.249 52.1118 206.719 51.9026C206.189 51.6933 205.738 51.3397 205.421 50.8869C205.105 50.434 204.938 49.9024 204.942 49.3598H205.953C205.944 49.5993 205.986 49.8382 206.077 50.0618C206.169 50.2855 206.307 50.4892 206.484 50.6608C206.654 50.8351 206.86 50.9747 207.089 51.071C207.318 51.1673 207.566 51.2183 207.817 51.2207C208.074 51.2281 208.33 51.1859 208.57 51.0967C208.81 51.0075 209.027 50.8732 209.21 50.7019C209.397 50.5343 209.544 50.3307 209.64 50.1047C209.736 49.8788 209.78 49.636 209.768 49.3927C209.768 48.5528 209.187 47.96 208.026 47.6141L206.998 47.3177C206.495 47.1778 206.052 46.8892 205.735 46.4943C205.433 46.0803 205.272 45.5891 205.273 45.0863C205.264 44.7632 205.33 44.4421 205.467 44.1459C205.604 43.8498 205.808 43.5861 206.066 43.3736C206.316 43.1436 206.612 42.9632 206.936 42.843C207.261 42.7228 207.608 42.6652 207.956 42.6737C208.299 42.6717 208.638 42.7365 208.952 42.864C209.267 42.9915 209.551 43.179 209.785 43.4147C210.03 43.6436 210.224 43.917 210.354 44.2184C210.484 44.5198 210.548 44.8431 210.543 45.1686H209.524C209.533 44.9646 209.498 44.7609 209.422 44.5699C209.346 44.3789 209.229 44.2044 209.08 44.057C208.933 43.904 208.754 43.7805 208.556 43.6941C208.357 43.6076 208.142 43.5599 207.923 43.5537C207.704 43.5476 207.487 43.5832 207.283 43.6583C207.079 43.7334 206.893 43.8466 206.737 43.9911C206.569 44.1301 206.435 44.3027 206.346 44.4964C206.258 44.69 206.215 44.9 206.223 45.111C206.209 45.4279 206.312 45.7397 206.513 45.9933C206.715 46.2469 207.003 46.4268 207.329 46.5025L208.496 46.8484C209.129 46.9597 209.701 47.2765 210.113 47.7441C210.525 48.2117 210.751 48.8007 210.752 49.4092Z" fill="white"/>
<path d="M0.491943 57.6602H210.16" stroke="#B1B3B5" stroke-width="0.71" stroke-miterlimit="10"/>
<path d="M6.49318 24.7237C6.14023 24.4341 5.85151 24.0812 5.6437 23.6854C5.43589 23.2897 5.31312 22.859 5.28248 22.4181V0.531738H0.849081V21.9405C0.785644 22.978 0.965957 24.0159 1.37708 24.9797C1.7882 25.9435 2.41992 26.8094 3.22692 27.515C4.87666 28.859 6.9991 29.5699 9.17586 29.5077H18.2866V25.3906H9.14103C8.20247 25.4745 7.26317 25.2379 6.49318 24.7237Z" fill="#F6921E"/>
<path d="M36.5602 10.6596C35.5031 9.58403 34.2283 8.7201 32.8115 8.11897C31.3946 7.51785 29.8645 7.19176 28.3118 7.16004H27.8067C26.2948 7.14795 24.7964 7.42969 23.4045 7.98777C22.0125 8.54584 20.7568 9.36836 19.7151 10.4043C18.5632 11.4653 17.6513 12.7364 17.0345 14.1404C16.4176 15.5445 16.1087 17.0523 16.1265 18.5726C16.106 20.0303 16.3901 21.4775 16.9626 22.8311C17.5351 24.1848 18.3846 25.4183 19.4625 26.4609C20.4933 27.5236 21.7407 28.3784 23.1296 28.9741C24.5186 29.5698 26.0206 29.894 27.5454 29.9274H27.946C30.6746 29.9558 33.3179 29.029 35.367 27.3255V29.5075H39.7917V18.5561C39.8593 17.1002 39.607 15.647 39.0508 14.2879C38.4947 12.9288 37.6467 11.6934 36.5602 10.6596ZM28.0244 25.8268H27.676C26.7061 25.7913 25.7544 25.5667 24.8805 25.1671C24.0067 24.7676 23.2297 24.2016 22.5981 23.5048C21.9112 22.8244 21.376 22.0204 21.0243 21.1406C20.6727 20.2607 20.5118 19.323 20.5512 18.3832C20.5393 17.4462 20.7311 16.517 21.1146 15.653C21.4982 14.789 22.0653 14.0086 22.781 13.3604C23.4665 12.6858 24.2927 12.1531 25.2073 11.7959C26.1218 11.4387 27.1048 11.2649 28.0941 11.2853C29.0455 11.2721 29.9891 11.4495 30.8628 11.8057C31.7365 12.1619 32.5205 12.6889 33.1633 13.3521C34.5621 14.6809 35.3533 16.4756 35.367 18.3502C35.4086 19.346 35.2319 20.3391 34.8482 21.2672C34.4645 22.1953 33.882 23.0384 33.1372 23.7436C32.4893 24.4129 31.6986 24.9447 30.8172 25.3038C29.9359 25.6629 28.984 25.8412 28.0244 25.8268Z" fill="#F6921E"/>
<path d="M54.7554 7.15215H54.2502C51.6208 7.19533 49.0917 8.11378 47.108 9.7459V0.490723H42.692V18.5153C42.6686 21.5005 43.8923 24.3739 46.0974 26.5109C48.3024 28.6479 51.3105 29.8758 54.4679 29.9278H54.8773C56.4149 29.9015 57.9309 29.5807 59.3336 28.9849C60.7364 28.3891 61.9968 27.5306 63.0386 26.4612C64.12 25.4207 64.9724 24.1877 65.5465 22.8337C66.1206 21.4797 66.405 20.0315 66.3832 18.5729C66.3981 17.0548 66.0869 15.5496 65.4686 14.1484C64.8503 12.7472 63.9377 11.4792 62.786 10.4211C61.7517 9.3901 60.5064 8.56866 59.1259 8.0067C57.7454 7.44475 56.2584 7.15401 54.7554 7.15215ZM54.4766 25.8272C53.5102 25.8442 52.551 25.6674 51.6622 25.3083C50.7734 24.9492 49.9752 24.416 49.3203 23.7439C47.8994 22.3544 47.1052 20.4973 47.1052 18.5647C47.1052 16.632 47.8994 14.7749 49.3203 13.3854C49.9654 12.7205 50.7524 12.1926 51.6292 11.8363C52.506 11.4801 53.4527 11.3036 54.407 11.3186C55.3945 11.298 56.3757 11.4726 57.2876 11.8314C58.1996 12.1901 59.0222 12.725 59.7027 13.4019C60.4127 14.0542 60.9785 14.8335 61.3673 15.6943C61.7561 16.5552 61.96 17.4805 61.9673 18.4165C62.0154 20.3238 61.2676 22.1724 59.8856 23.5628C59.2414 24.2532 58.4531 24.8101 57.5702 25.1984C56.6873 25.5867 55.7289 25.798 54.7554 25.819L54.4766 25.8272Z" fill="#F6921E"/>
<path d="M79.2481 7.33331H78.7168C76.6829 7.40094 74.7371 8.13441 73.212 9.4083V0.490723H68.7874V29.5079H73.212V16.6791C73.1878 15.9773 73.3221 15.2786 73.606 14.6298C73.8898 13.9809 74.3167 13.3967 74.8582 12.9161C75.9587 11.9133 77.4323 11.3602 78.9607 11.3763H79.1436C79.8884 11.3785 80.6248 11.5259 81.3067 11.8092C81.9885 12.0926 82.6013 12.5058 83.1066 13.0231C83.6797 13.5174 84.1359 14.1206 84.4451 14.7933C84.7543 15.4659 84.9096 16.1927 84.9009 16.9261V29.5079H89.3256V17.1566C89.349 15.8297 89.0844 14.5123 88.5481 13.2858C88.0118 12.0593 87.2151 10.9498 86.2074 10.0259C85.2953 9.16188 84.2099 8.47869 83.0149 8.01634C81.8199 7.55399 80.5393 7.32178 79.2481 7.33331Z" fill="#F6921E"/>
<path d="M109.542 9.84438C107.55 8.24262 105.039 7.33317 102.425 7.2671H102.016C100.492 7.25997 98.9835 7.54861 97.5827 8.11515C96.1819 8.6817 94.919 9.51408 93.8722 10.5608C91.6299 12.6807 90.3493 15.543 90.3021 18.5406C90.255 21.5382 91.4449 24.4353 93.6196 26.6173C94.6551 27.6875 95.9125 28.5446 97.3136 29.1353C98.7147 29.7261 100.229 30.0378 101.764 30.051C101.903 30.059 102.042 30.059 102.182 30.051C105.339 30.0097 108.351 28.7906 110.562 26.659C112.772 24.5275 114.002 21.6564 113.984 18.6714V0.630371H109.542V9.84438ZM102.312 25.9257H101.877C100.905 25.9046 99.9486 25.6898 99.0706 25.2953C98.1925 24.9009 97.4125 24.3356 96.7814 23.6366C96.0991 22.9511 95.5663 22.1452 95.2136 21.265C94.8609 20.3848 94.6952 19.4475 94.7258 18.5067C94.7182 17.5615 94.9134 16.6247 95.2997 15.7529C95.6859 14.8811 96.2552 14.0924 96.973 13.4345C97.6449 12.7668 98.4566 12.2388 99.3565 11.8844C100.256 11.5299 101.224 11.3568 102.199 11.3759H102.304C103.257 11.361 104.203 11.5384 105.079 11.8962C105.955 12.2539 106.74 12.784 107.381 13.4509C108.777 14.7947 109.564 16.5991 109.576 18.482C109.621 19.4677 109.448 20.4514 109.071 21.3711C108.693 22.2908 108.118 23.1267 107.381 23.826C106.747 24.501 105.965 25.0382 105.09 25.4007C104.215 25.7631 103.267 25.9422 102.312 25.9257Z" fill="#F6921E"/>
<path d="M137.361 10.6595C136.307 9.58484 135.035 8.72132 133.621 8.12017C132.207 7.51902 130.68 7.19251 129.13 7.15999H128.608C127.095 7.14873 125.595 7.4308 124.202 7.9888C122.809 8.54679 121.551 9.36886 120.507 10.4042C119.361 11.4684 118.454 12.7404 117.84 14.144C117.227 15.5476 116.919 17.0539 116.936 18.5725C116.897 21.5131 118.09 24.349 120.255 26.4608C121.288 27.5255 122.538 28.3815 123.93 28.9772C125.322 29.573 126.827 29.8962 128.355 29.9274H128.791C131.517 29.9561 134.157 29.0291 136.203 27.3254V29.5075H140.628V18.556C140.691 17.0978 140.433 15.6431 139.871 14.2839C139.308 12.9246 138.454 11.6905 137.361 10.6595ZM128.791 25.8268H128.451C127.48 25.7909 126.527 25.5662 125.652 25.1667C124.777 24.7672 123.998 24.2014 123.364 23.5048C122.681 22.8226 122.148 22.0181 121.798 21.1386C121.448 20.259 121.288 19.3222 121.326 18.3831C121.314 17.4454 121.506 16.5153 121.891 15.6511C122.276 14.7868 122.846 14.007 123.565 13.3603C124.248 12.6852 125.072 12.152 125.986 11.7947C126.899 11.4374 127.881 11.264 128.869 11.2853C129.821 11.2735 130.766 11.4515 131.641 11.8076C132.516 12.1637 133.301 12.6899 133.947 13.3521C135.362 14.7446 136.152 16.6005 136.152 18.5313C136.152 20.4622 135.362 22.3181 133.947 23.7106C133.294 24.3878 132.498 24.9266 131.609 25.2914C130.72 25.6561 129.759 25.8386 128.791 25.8268Z" fill="#F6921E"/>
<path d="M157.743 7.67041L151.001 22.6483L144.634 7.67041H139.844L148.38 28.0993L144.843 36.564H149.582L162.411 7.67041H157.743Z" fill="#F6921E"/>
<path d="M181.608 10.6596C180.556 9.5844 179.286 8.72046 177.874 8.11923C176.461 7.51801 174.935 7.1918 173.386 7.16005H172.863C171.35 7.14781 169.85 7.42943 168.457 7.98749C167.064 8.54554 165.806 9.36814 164.763 10.4043C163.613 11.4665 162.702 12.7378 162.085 14.1415C161.468 15.5453 161.159 17.0526 161.174 18.5726C161.137 21.516 162.337 24.3532 164.51 26.4609C165.543 27.5255 166.793 28.3815 168.186 28.9773C169.578 29.5731 171.083 29.8963 172.611 29.9275H173.003C175.732 29.9574 178.375 29.0304 180.424 27.3255V29.5075H184.848V18.5561C184.914 17.0997 184.66 15.6462 184.103 14.2872C183.545 12.9281 182.696 11.693 181.608 10.6596ZM173.072 25.8269H172.724C171.755 25.7917 170.805 25.5672 169.932 25.1676C169.06 24.7679 168.284 24.2018 167.655 23.5048C166.968 22.8244 166.433 22.0204 166.081 21.1406C165.729 20.2607 165.568 19.323 165.608 18.3832C165.6 17.4468 165.794 16.5187 166.177 15.6552C166.56 14.7918 167.125 14.011 167.838 13.3604C168.523 12.6858 169.349 12.1531 170.264 11.7959C171.178 11.4387 172.161 11.2649 173.151 11.2854C174.102 11.2732 175.045 11.451 175.919 11.8072C176.792 12.1633 177.576 12.6898 178.22 13.3521C179.623 14.6784 180.415 16.4747 180.424 18.3502C180.461 19.3413 180.281 20.3289 179.896 21.2513C179.511 22.1736 178.928 23.0109 178.185 23.7107C177.542 24.3881 176.753 24.9274 175.871 25.2925C174.989 25.6575 174.035 25.8397 173.072 25.8269Z" fill="#F6921E"/>
<path d="M192.426 0.399902H187.784V29.4664H192.426V0.399902Z" fill="#F6921E"/>
<path fill-rule="evenodd" clip-rule="evenodd" d="M193.907 21.372V21.2732C193.683 20.6074 193.523 19.924 193.428 19.2311C193.376 18.8441 193.332 18.4488 193.289 18.0536C193.224 17.4348 193.224 16.8115 193.289 16.1927C193.336 15.7568 193.429 15.3265 193.567 14.9082C193.654 14.6611 193.733 14.4141 193.837 14.1836C193.985 13.8459 194.162 13.5209 194.369 13.2119C194.665 12.7288 195.022 12.2809 195.431 11.878C195.867 11.454 196.346 11.0707 196.86 10.7335C197.337 10.4204 197.841 10.145 198.366 9.91004C198.687 9.74465 199.019 9.59888 199.359 9.47363C199.926 9.27601 200.5 9.07016 201.058 8.92195C201.615 8.77373 201.999 8.70785 202.469 8.60904L203.645 8.41143C203.682 8.40411 203.721 8.40411 203.758 8.41143C203.581 8.4693 203.409 8.5409 203.244 8.62552C202.974 8.72433 202.721 8.8396 202.469 8.95488C201.946 9.19367 201.415 9.43246 200.901 9.68772C200.387 9.94297 199.769 10.2806 199.22 10.6017C198.671 10.9228 198.192 11.2604 197.687 11.6145C197.05 12.0701 196.466 12.5891 195.945 13.1625C195.613 13.5083 195.321 13.8865 195.074 14.2906C194.767 14.7354 194.568 15.2387 194.49 15.7645V15.8386C194.716 15.9299 194.949 16.0042 195.187 16.0609C195.678 16.1718 196.182 16.2162 196.685 16.1927C197.273 16.1819 197.858 16.1073 198.427 15.9704C198.998 15.8391 199.554 15.66 200.091 15.4352C200.535 15.2375 200.962 14.9987 201.424 14.7847C201.889 14.547 202.332 14.2715 202.748 13.9612C203.924 13.0716 204.929 11.9963 205.718 10.7829C205.97 10.3876 206.205 10.0006 206.432 9.58891C206.658 9.1772 206.772 8.94665 206.928 8.62552C207.007 8.4526 207.094 8.29615 207.155 8.13146C207.338 7.69505 207.503 7.26688 207.651 6.83871C207.799 6.41053 208 5.8506 208.13 5.36479C208.261 4.87898 208.383 4.15438 208.514 3.56152C208.261 3.73444 208.026 3.92382 207.773 4.07204C207.346 4.33553 206.902 4.59902 206.449 4.83781C205.923 5.12163 205.369 5.35606 204.794 5.53771C204.411 5.66122 204.011 5.7765 203.627 5.88355C203.244 5.99059 202.939 6.04 202.6 6.10587C202.068 6.20468 201.528 6.27055 200.988 6.36113C200.448 6.4517 199.952 6.53404 199.438 6.64108C199.201 6.68501 198.968 6.74556 198.741 6.82224C198.358 6.95398 197.983 7.0775 197.609 7.24219C197.234 7.40687 196.947 7.57154 196.624 7.76093C196.128 8.05945 195.669 8.41028 195.257 8.80667C194.79 9.23233 194.381 9.71077 194.038 10.2312C193.829 10.5523 193.654 10.8734 193.48 11.1946C193.306 11.5157 193.175 11.878 193.027 12.2156C192.879 12.5532 192.836 12.8085 192.748 13.0967C192.644 13.5166 192.539 13.9201 192.478 14.3647C192.406 14.8232 192.36 15.2849 192.339 15.748C192.339 16.2174 192.339 16.6785 192.339 17.1479C192.339 17.6172 192.426 17.9713 192.478 18.35C192.571 18.895 192.738 19.4264 192.975 19.931C193.21 20.4211 193.502 20.885 193.846 21.3143C193.846 21.3143 193.881 21.3473 193.907 21.372Z" fill="#F6921E"/>
<path fill-rule="evenodd" clip-rule="evenodd" d="M185.841 19.0993H185.928C186.731 18.6323 187.576 18.2355 188.454 17.9136C188.942 17.7242 189.439 17.5348 189.935 17.3619C190.726 17.0974 191.543 16.9071 192.374 16.7937C192.95 16.7096 193.533 16.6765 194.116 16.6949C194.447 16.6951 194.779 16.7116 195.109 16.7443C195.574 16.7956 196.035 16.8838 196.485 17.0078C197.162 17.1838 197.816 17.4296 198.436 17.7407C199.08 18.081 199.687 18.4809 200.248 18.9346C200.762 19.3533 201.237 19.8134 201.667 20.3097C201.952 20.6127 202.216 20.9317 202.46 21.2649C202.852 21.833 203.227 22.3765 203.557 22.9117C203.829 23.3817 204.074 23.8655 204.289 24.3609C204.472 24.7644 204.629 25.1843 204.794 25.5796C204.81 25.6193 204.81 25.6633 204.794 25.7031C204.664 25.5549 204.542 25.3737 204.411 25.2173C204.28 25.0608 204.002 24.715 203.793 24.4762C203.357 23.9739 202.922 23.4716 202.486 22.994C202.051 22.5165 201.476 21.9483 200.927 21.4625C200.399 20.9812 199.844 20.5277 199.263 20.1039C198.52 19.5462 197.717 19.0633 196.868 18.6629C196.336 18.413 195.779 18.2144 195.205 18.07C194.545 17.893 193.855 17.8426 193.175 17.9218C193.152 17.9222 193.129 17.9285 193.109 17.9401C193.089 17.9517 193.073 17.9681 193.062 17.9877C193.018 18.2676 192.957 18.5394 192.94 18.8111C192.911 19.3815 192.97 19.9529 193.114 20.5073C193.263 21.1307 193.494 21.7339 193.802 22.3024C194.097 22.8872 194.459 23.4394 194.882 23.9492C195.239 24.3692 195.631 24.7726 196.015 25.209C196.427 25.6445 196.889 26.0366 197.391 26.3783C197.962 26.7963 198.571 27.1656 199.211 27.4817C200.156 27.9491 201.148 28.3244 202.173 28.6015C202.73 28.7415 203.296 28.8732 203.862 28.9967C204.429 29.1203 204.786 29.145 205.239 29.2108C205.467 29.2611 205.701 29.2915 205.935 29.3014C206.528 29.359 207.12 29.4167 207.721 29.4332C208.322 29.4496 209.062 29.4908 209.724 29.4332C210.534 29.4332 211.327 29.3179 212.146 29.2685C211.864 29.0674 211.594 28.8531 211.336 28.6262C210.883 28.231 210.465 27.8028 210.02 27.4158C209.547 26.9254 209.124 26.3932 208.757 25.8266C208.496 25.4527 208.258 25.0651 208.043 24.6656C207.852 24.3115 207.686 23.9657 207.529 23.6116C207.277 23.0517 207.05 22.4835 206.815 21.9648C206.58 21.446 206.353 20.8861 206.118 20.318C205.996 20.0759 205.856 19.842 205.7 19.6181C205.455 19.2364 205.188 18.868 204.899 18.5147C204.634 18.1895 204.342 17.884 204.028 17.6007C203.53 17.1508 202.977 16.7583 202.382 16.4314C201.708 16.0768 200.991 15.8003 200.248 15.608C199.795 15.4927 199.333 15.3857 198.863 15.3116C198.399 15.2351 197.931 15.1829 197.46 15.1552C197.057 15.1306 196.653 15.1306 196.25 15.1552C195.675 15.1552 195.109 15.1551 194.508 15.2622C193.907 15.3692 193.297 15.4433 192.705 15.5669C192.113 15.6904 191.494 15.855 190.911 16.0444C190.327 16.2338 189.883 16.4067 189.386 16.6044C188.691 16.8818 188.035 17.2415 187.435 17.6748C186.86 18.0796 186.327 18.5345 185.841 19.0334C185.841 19.0334 185.867 19.0664 185.841 19.0993Z" fill="#F6921E"/>
<path d="M2.38205 65.0132V66.3307H4.17631V66.8165H2.38205V70.6783C2.3595 70.9964 2.43514 71.3139 2.5998 71.5923C2.67632 71.698 2.78112 71.7827 2.90353 71.8376C3.02593 71.8926 3.16156 71.9159 3.2966 71.9052C3.5411 71.9108 3.78503 71.8803 4.01953 71.8146L4.09792 72.2675C3.82138 72.3727 3.52493 72.4232 3.22692 72.4157C3.02485 72.429 2.82223 72.3981 2.63489 72.3253C2.44755 72.2524 2.28054 72.1396 2.14688 71.9957C2.00058 71.8258 1.89908 71.6254 1.85074 71.4111C1.78649 71.1409 1.75435 70.8647 1.75493 70.5877V66.8247H0.683594V66.3389H1.74622V65.2437L2.38205 65.0132Z" fill="white"/>
<path d="M11.8758 68.1173C11.8758 67.4339 11.8758 66.841 11.8236 66.3305H12.4071V67.5327C12.5356 67.1565 12.7742 66.8225 13.0952 66.5693C13.4052 66.3303 13.7927 66.1995 14.1927 66.1987H14.454V66.7504H14.1404C13.9361 66.7503 13.734 66.7913 13.5478 66.8708C13.3616 66.9503 13.1954 67.0665 13.0604 67.2115C12.7515 67.5523 12.5521 67.9694 12.4855 68.4137C12.4477 68.6009 12.4302 68.7913 12.4333 68.9819V72.2755H11.8062L11.8758 68.1173Z" fill="white"/>
<path d="M26.8834 70.8428C26.8834 71.4027 26.8834 71.8885 26.9356 72.2919H26.3433V71.2298C26.1266 71.5659 25.8279 71.8482 25.4723 72.0532C25.0774 72.2915 24.6169 72.4146 24.1484 72.4072C23.8956 72.4188 23.6426 72.391 23.3994 72.3249C23.1405 72.2458 22.9048 72.1104 22.7113 71.9296C22.4656 71.6989 22.2806 71.4169 22.1712 71.1062C22.02 70.6793 21.9492 70.2306 21.9622 69.7805V66.314H22.5893V69.6653C22.5552 70.238 22.6909 70.8084 22.9813 71.3121C23.1195 71.5092 23.3114 71.6675 23.5367 71.7704C23.7619 71.8732 24.0124 71.9169 24.2616 71.8967C24.6733 71.9035 25.0753 71.7787 25.4027 71.5426C25.7165 71.3335 25.966 71.0494 26.1256 70.7192C26.2034 70.5073 26.2445 70.2848 26.2475 70.0605V66.3469H26.8834V70.8428Z" fill="white"/>
<path d="M35.0446 71.5018C35.2524 71.6224 35.4746 71.7191 35.7065 71.79C35.95 71.8702 36.2065 71.9092 36.4643 71.9053C36.8596 71.9309 37.2509 71.8165 37.5618 71.5842C37.6834 71.4807 37.7799 71.3535 37.8446 71.2113C37.9092 71.0692 37.9405 70.9154 37.9363 70.7608C37.9438 70.617 37.9198 70.4733 37.8659 70.3387C37.8119 70.2041 37.7291 70.0815 37.6227 69.9785C37.3258 69.7297 36.9793 69.5394 36.6037 69.4186C35.541 69.0151 35.001 68.4717 35.001 67.7718C34.9977 67.5549 35.0434 67.3399 35.135 67.1411C35.2266 66.9423 35.3621 66.7643 35.5323 66.619C35.9213 66.2976 36.4275 66.1322 36.9434 66.1579C37.2083 66.155 37.4723 66.1882 37.7273 66.2567C37.9433 66.3189 38.1487 66.4104 38.337 66.5284L38.1018 67.0142C37.939 66.9048 37.76 66.8188 37.5705 66.759C37.3355 66.6815 37.0876 66.6453 36.8388 66.6519C36.5189 66.6404 36.2066 66.7467 35.9678 66.9483C35.863 67.0425 35.7802 67.1563 35.7247 67.2825C35.6692 67.4088 35.6422 67.5445 35.6456 67.6812C35.6371 67.8113 35.6592 67.9416 35.7105 68.0626C35.7617 68.1836 35.8406 68.2924 35.9417 68.3811C36.2425 68.6078 36.581 68.7859 36.9434 68.9081C37.403 69.0595 37.8221 69.304 38.1715 69.6244C38.4473 69.9118 38.5914 70.2908 38.5721 70.6784C38.5805 70.9119 38.5332 71.1441 38.4337 71.3579C38.3342 71.5718 38.185 71.7616 37.9973 71.9135C37.562 72.2506 37.0087 72.421 36.4469 72.3911C36.1524 72.3898 35.8594 72.351 35.5759 72.2758C35.3183 72.2104 35.072 72.1106 34.8442 71.9794L35.0446 71.5018Z" fill="white"/>
<path d="M47.378 65.0132V66.3307H49.181V66.8165H47.378V70.6783C47.3554 70.9964 47.4311 71.3139 47.5957 71.5923C47.6749 71.6974 47.7814 71.7815 47.905 71.8364C48.0286 71.8912 48.1651 71.9149 48.3012 71.9052C48.5457 71.9108 48.7897 71.8803 49.0242 71.8146L49.1026 72.2675C48.826 72.3727 48.5296 72.4232 48.2316 72.4157C48.0293 72.431 47.826 72.4009 47.6384 72.328C47.4507 72.255 47.2839 72.1412 47.1515 71.9957C47.0024 71.8264 46.8979 71.6261 46.8467 71.4111C46.7856 71.1405 46.7564 70.8644 46.7596 70.5877V66.8247H45.6882V66.3389H46.7509V65.2437L47.378 65.0132Z" fill="white"/>
<path d="M56.9067 69.2371C56.8981 69.6446 56.9599 70.0506 57.0896 70.4393C57.1975 70.7468 57.3759 71.028 57.6122 71.2627C57.8404 71.4755 58.1134 71.6405 58.4136 71.7469C58.7137 71.8533 59.0342 71.8987 59.3542 71.8802C59.9541 71.9006 60.5507 71.7878 61.0962 71.5509L61.253 72.0202C61.0079 72.1311 60.751 72.2167 60.4865 72.2755C60.086 72.3577 59.6769 72.3964 59.2671 72.3907C58.868 72.4098 58.4693 72.346 58.0992 72.2037C57.729 72.0615 57.3963 71.8442 57.1244 71.5673C56.5738 70.9691 56.287 70.194 56.3231 69.4018C56.3171 68.9521 56.3877 68.5045 56.5321 68.0761C56.6599 67.6993 56.864 67.3497 57.1331 67.0468C57.3708 66.7735 57.6679 66.5517 58.0041 66.3963C58.3566 66.2444 58.7404 66.1684 59.1277 66.174C59.551 66.1584 59.9705 66.2554 60.3384 66.4539C60.65 66.6252 60.913 66.8654 61.1049 67.1538C61.2769 67.4247 61.4032 67.7191 61.4794 68.0267C61.5444 68.297 61.5794 68.5729 61.584 68.8501C61.5965 68.9761 61.5965 69.1029 61.584 69.2288L56.9067 69.2371ZM60.922 68.7677C60.9232 68.5238 60.8939 68.2806 60.8349 68.0431C60.7734 67.8063 60.6704 67.5808 60.53 67.3762C60.3865 67.1624 60.185 66.989 59.9465 66.8739C59.6781 66.7405 59.3787 66.6725 59.0755 66.6763C58.7732 66.672 58.4744 66.737 58.2045 66.8656C57.9537 66.9834 57.7336 67.1521 57.5599 67.3597C57.3958 67.5659 57.2638 67.7933 57.168 68.0349C57.0805 68.2731 57.0164 68.5184 56.9764 68.7677H60.922Z" fill="white"/>
<path d="M74.527 63.4734V70.8841C74.527 71.1064 74.527 71.3452 74.527 71.5922C74.527 71.8392 74.527 72.0616 74.5706 72.2592H74.0044L73.9522 71.1311C73.7568 71.5039 73.4551 71.8176 73.0812 72.0369C72.6658 72.2875 72.1801 72.4138 71.6876 72.3992C71.3146 72.4019 70.9456 72.326 70.6075 72.1769C70.2712 72.0364 69.9733 71.8252 69.7365 71.5593C69.4815 71.279 69.2863 70.9546 69.1617 70.6041C69.022 70.2145 68.9543 69.8051 68.9613 69.3937C68.953 68.9406 69.0266 68.4895 69.1791 68.0598C69.3128 67.6838 69.5196 67.3347 69.7888 67.0305C70.0297 66.7625 70.3261 66.5439 70.6598 66.3882C71.0043 66.2399 71.3787 66.164 71.7572 66.1659C72.2115 66.1508 72.6611 66.2563 73.055 66.4706C73.3794 66.648 73.6448 66.9075 73.8215 67.2199V63.4404L74.527 63.4734ZM73.8912 68.6938C73.8973 68.5082 73.8768 68.3226 73.8302 68.1421C73.7247 67.7222 73.4699 67.3492 73.1085 67.0854C72.747 66.8217 72.3008 66.6831 71.8444 66.6929C71.5285 66.6831 71.2149 66.7453 70.9298 66.8743C70.6448 67.0033 70.3968 67.1953 70.2069 67.434C69.78 67.9931 69.5652 68.6719 69.5972 69.3608C69.5738 70.0129 69.7756 70.6546 70.172 71.1887C70.3564 71.4311 70.6021 71.6258 70.8866 71.7553C71.1711 71.8848 71.4854 71.9447 71.8008 71.9298C72.2558 71.9275 72.696 71.7762 73.0463 71.5017C73.429 71.2145 73.6988 70.8144 73.8128 70.3653C73.8595 70.2045 73.88 70.0379 73.8738 69.8713L73.8912 68.6938Z" fill="white"/>
<path d="M95.8056 71.5018C96.0173 71.6209 96.2422 71.7175 96.4763 71.79C96.7167 71.8703 96.9704 71.9093 97.2254 71.9053C97.6211 71.9342 98.0136 71.8194 98.3228 71.5842C98.4459 71.4818 98.5434 71.3547 98.6081 71.2123C98.6729 71.0699 98.7034 70.9157 98.6974 70.7608C98.704 70.6178 98.6804 70.475 98.6281 70.3407C98.5758 70.2064 98.4957 70.0833 98.3925 69.9785C98.0955 69.7297 97.7491 69.5394 97.3734 69.4186C96.3021 69.0151 95.7708 68.4717 95.7708 67.7718C95.7657 67.5547 95.8106 67.3392 95.9024 67.1401C95.9941 66.9411 96.1305 66.7633 96.3021 66.619C96.6911 66.2976 97.1973 66.1322 97.7131 66.1579C97.978 66.1561 98.2419 66.1893 98.497 66.2567C98.7131 66.3189 98.9185 66.4104 99.1067 66.5284L98.8716 67.0142C98.7077 66.9064 98.5289 66.8205 98.3402 66.759C98.1051 66.6822 97.8573 66.646 97.6086 66.6519C97.2883 66.6387 96.9754 66.7451 96.7376 66.9483C96.6328 67.0425 96.55 67.1563 96.4945 67.2825C96.439 67.4088 96.412 67.5445 96.4153 67.6812C96.4069 67.8113 96.429 67.9416 96.4802 68.0626C96.5314 68.1836 96.6104 68.2924 96.7115 68.3811C97.011 68.6097 97.3498 68.7879 97.7131 68.9081C98.1709 69.0632 98.5892 69.3072 98.9412 69.6244C99.2171 69.9118 99.3612 70.2908 99.3419 70.6784C99.3503 70.9119 99.303 71.1441 99.2034 71.3579C99.1039 71.5718 98.9548 71.7616 98.767 71.9135C98.3309 72.2492 97.7783 72.4194 97.2167 72.3911C96.9221 72.3903 96.6291 72.3515 96.3457 72.2758C96.0881 72.2104 95.8417 72.1106 95.614 71.9794L95.8056 71.5018Z" fill="white"/>
<path d="M107.564 65.0297C107.499 65.0316 107.435 65.0192 107.376 64.9935C107.317 64.9678 107.265 64.9294 107.225 64.8815C107.131 64.7797 107.08 64.6496 107.08 64.5151C107.08 64.3805 107.131 64.2504 107.225 64.1486C107.269 64.1005 107.324 64.0618 107.386 64.0349C107.447 64.0079 107.514 63.9934 107.582 63.9922C107.65 63.9918 107.717 64.0056 107.779 64.0326C107.84 64.0597 107.895 64.0993 107.939 64.1486C108.037 64.2493 108.09 64.3822 108.087 64.5192C108.091 64.6524 108.041 64.7821 107.947 64.8815C107.9 64.9306 107.842 64.9693 107.778 64.995C107.713 65.0206 107.643 65.0324 107.573 65.0297H107.564ZM107.277 72.3251V66.3636H107.886V72.3251H107.277Z" fill="white"/>
<path d="M116.335 67.7632C116.335 67.4915 116.335 67.2527 116.335 67.0222C116.335 66.7916 116.335 66.5611 116.335 66.3305H116.927V67.4092C117.13 67.0628 117.432 66.7775 117.798 66.5858C118.196 66.3542 118.655 66.2343 119.122 66.2399C119.344 66.2412 119.563 66.2716 119.776 66.3305C120.038 66.4018 120.282 66.5253 120.49 66.6928C120.752 66.9007 120.955 67.1666 121.082 67.4668C121.261 67.8762 121.344 68.3171 121.326 68.7596V72.325H120.699V68.809C120.702 68.5319 120.67 68.2554 120.603 67.9856C120.548 67.7482 120.448 67.5222 120.307 67.3186C120.17 67.1243 119.98 66.968 119.758 66.8657C119.506 66.75 119.228 66.6936 118.948 66.701C118.52 66.7018 118.105 66.8413 117.772 67.0963C117.433 67.3421 117.184 67.6817 117.058 68.0679C117.009 68.2427 116.983 68.4224 116.98 68.6031V72.325H116.353L116.335 67.7632Z" fill="white"/>
<path d="M134.017 72.0451C133.761 72.1554 133.496 72.2436 133.224 72.3086C132.877 72.3958 132.52 72.4373 132.161 72.4321C131.74 72.4363 131.323 72.3607 130.933 72.2098C130.568 72.0676 130.241 71.8512 129.975 71.5758C129.699 71.3033 129.488 70.9774 129.357 70.6206C129.049 69.8031 129.049 68.9103 129.357 68.0927C129.503 67.7127 129.735 67.3672 130.036 67.08C130.325 66.793 130.675 66.5683 131.064 66.4212C131.795 66.167 132.591 66.1297 133.346 66.3142C133.582 66.3653 133.809 66.4514 134.017 66.5694L133.79 67.0553C133.589 66.948 133.376 66.8624 133.154 66.8C132.87 66.7292 132.577 66.6959 132.283 66.7012C131.928 66.6841 131.574 66.7435 131.246 66.8747C130.919 67.0059 130.627 67.2056 130.393 67.4587C129.94 67.9888 129.702 68.6547 129.723 69.3361C129.688 70.0237 129.938 70.6969 130.419 71.2135C130.649 71.4458 130.929 71.6292 131.24 71.7513C131.551 71.8734 131.886 71.9315 132.222 71.9216C132.516 71.9271 132.809 71.8939 133.093 71.8228C133.337 71.7551 133.575 71.6726 133.808 71.5758L134.017 72.0451Z" fill="white"/>
<path d="M141.76 69.2373C141.751 69.6448 141.813 70.0509 141.943 70.4395C142.051 70.747 142.229 71.0282 142.465 71.2629C142.693 71.4762 142.966 71.6414 143.267 71.7479C143.567 71.8543 143.887 71.8995 144.207 71.8805C144.547 71.89 144.886 71.8596 145.218 71.7899C145.47 71.734 145.715 71.654 145.949 71.5511L146.106 72.0205C145.865 72.1329 145.611 72.2186 145.348 72.2757C144.948 72.358 144.539 72.3967 144.129 72.391C143.73 72.4101 143.331 72.3462 142.961 72.204C142.591 72.0617 142.258 71.8445 141.986 71.5676C141.433 70.9711 141.145 70.1948 141.185 69.402C141.179 68.9524 141.25 68.5047 141.394 68.0763C141.522 67.7015 141.723 67.3525 141.986 67.047C142.239 66.7709 142.55 66.5491 142.901 66.3966C143.253 66.2446 143.637 66.1687 144.025 66.1742C144.448 66.16 144.867 66.2569 145.235 66.4542C145.547 66.6255 145.81 66.8657 146.002 67.1541C146.17 67.4266 146.296 67.7205 146.376 68.0269C146.441 68.2972 146.476 68.5732 146.481 68.8503C146.493 68.9763 146.493 69.1031 146.481 69.2291L141.76 69.2373ZM145.775 68.768C145.776 68.524 145.747 68.2808 145.688 68.0434C145.627 67.8065 145.524 67.5811 145.383 67.3764C145.237 67.1647 145.036 66.9918 144.8 66.8741C144.531 66.741 144.232 66.6731 143.929 66.6765C143.627 66.6742 143.328 66.739 143.058 66.8659C142.811 66.986 142.594 67.1544 142.422 67.3599C142.258 67.5662 142.126 67.7935 142.03 68.0352C141.938 68.2722 141.874 68.5179 141.838 68.768H145.775Z" fill="white"/>
<path d="M169.501 64.832L168.108 65.5978L167.951 65.1284L169.562 64.2227H170.137V72.3251H169.519L169.501 64.832Z" fill="white"/>
<path d="M180.441 71.8803H180.528H180.65C180.904 71.8753 181.158 71.8505 181.408 71.8062C182.126 71.7113 182.785 71.3752 183.263 70.8593C183.574 70.5396 183.824 70.172 184.003 69.7724C184.217 69.3025 184.357 68.8061 184.422 68.2985H184.378C184.126 68.6271 183.795 68.8938 183.411 69.0758C183.028 69.2578 182.603 69.3499 182.174 69.3442C181.845 69.3554 181.517 69.296 181.216 69.1705C180.914 69.045 180.646 68.8567 180.432 68.6196C180 68.1411 179.77 67.5279 179.788 66.8987C179.785 66.5313 179.85 66.1663 179.979 65.82C180.106 65.4861 180.294 65.1765 180.537 64.906C180.779 64.6437 181.076 64.4308 181.408 64.2802C181.753 64.1238 182.131 64.0449 182.514 64.0497C182.878 64.0435 183.238 64.1213 183.562 64.2763C183.887 64.4312 184.167 64.6587 184.378 64.9389C184.896 65.6659 185.147 66.534 185.092 67.4092C185.109 68.173 184.973 68.9329 184.692 69.6489C184.459 70.2385 184.1 70.7767 183.638 71.2298C183.362 71.4982 183.045 71.7258 182.697 71.905C182.365 72.0786 182.006 72.2036 181.634 72.2756C181.256 72.3497 180.871 72.3883 180.485 72.3908L180.441 71.8803ZM182.357 64.5766C182.081 64.5714 181.807 64.6285 181.559 64.743C181.311 64.8576 181.095 65.0263 180.929 65.2354C180.544 65.7053 180.347 66.2884 180.371 66.8822C180.343 67.4072 180.533 67.9219 180.903 68.3149C181.079 68.4942 181.294 68.6354 181.533 68.7292C181.772 68.823 182.029 68.8671 182.288 68.8584C182.706 68.8642 183.119 68.7617 183.481 68.562C183.837 68.3908 184.138 68.132 184.352 67.8126C184.414 67.7093 184.45 67.5937 184.456 67.475C184.493 66.7427 184.312 66.0153 183.934 65.3753C183.773 65.128 183.545 64.9254 183.274 64.788C183.004 64.6506 182.699 64.5834 182.392 64.5931L182.357 64.5766Z" fill="white"/>
<path d="M193.158 71.8803H193.245H193.367C193.621 71.8753 193.874 71.8505 194.124 71.8062C194.843 71.7113 195.502 71.3752 195.98 70.8593C196.293 70.5418 196.544 70.1736 196.72 69.7724C196.933 69.3025 197.074 68.8061 197.138 68.2985H197.095C196.843 68.6272 196.511 68.8938 196.128 69.0758C195.744 69.2578 195.32 69.3499 194.891 69.3442C194.562 69.3554 194.234 69.296 193.932 69.1705C193.63 69.045 193.363 68.8567 193.149 68.6196C192.716 68.1411 192.487 67.528 192.504 66.8987C192.5 66.5305 192.568 66.1648 192.705 65.82C192.823 65.4889 193.006 65.1816 193.245 64.9143C193.485 64.6499 193.782 64.4366 194.116 64.2885C194.463 64.1311 194.845 64.0522 195.231 64.0579C195.593 64.0524 195.951 64.1305 196.275 64.2855C196.598 64.4405 196.876 64.6676 197.086 64.9472C197.604 65.6742 197.855 66.5422 197.8 67.4174C197.817 68.1812 197.681 68.9412 197.399 69.6571C197.17 70.2483 196.81 70.787 196.345 71.2381C196.073 71.5101 195.755 71.7382 195.405 71.9133C195.075 72.0854 194.72 72.2103 194.351 72.2838C193.97 72.3575 193.582 72.3961 193.192 72.3991L193.158 71.8803ZM195.074 64.5767C194.798 64.5715 194.524 64.6285 194.276 64.743C194.027 64.8576 193.811 65.0263 193.645 65.2354C193.264 65.7069 193.067 66.2889 193.088 66.8822C193.064 67.4066 193.254 67.9197 193.619 68.315C193.797 68.4948 194.013 68.6365 194.253 68.7302C194.494 68.824 194.753 68.8677 195.013 68.8584C195.432 68.863 195.844 68.7605 196.206 68.562C196.563 68.3919 196.864 68.1328 197.077 67.8127C197.139 67.7093 197.175 67.5937 197.182 67.4751C197.219 66.7427 197.038 66.0153 196.659 65.3754C196.499 65.1293 196.273 64.9274 196.003 64.7901C195.734 64.6528 195.432 64.5848 195.126 64.5931L195.074 64.5767Z" fill="white"/>
<path d="M207.86 64.091C208.162 64.0778 208.464 64.1213 208.748 64.2188C209.032 64.3163 209.293 64.4659 209.515 64.6592C209.714 64.8333 209.871 65.045 209.978 65.2805C210.085 65.5159 210.138 65.77 210.134 66.026C210.129 66.4123 210.009 66.7894 209.785 67.1129C209.487 67.4864 209.082 67.772 208.618 67.9364V67.9858C209.125 68.1046 209.577 68.3777 209.905 68.7629C210.232 69.1482 210.416 69.6244 210.43 70.1184C210.433 70.4366 210.361 70.7515 210.221 71.0406C210.083 71.3208 209.88 71.5684 209.628 71.7652C209.373 71.9734 209.077 72.1327 208.757 72.2346C208.435 72.3498 208.092 72.4084 207.747 72.4075C207.388 72.4098 207.032 72.3541 206.693 72.2428C206.375 72.1459 206.079 71.9922 205.822 71.7899C205.584 71.6033 205.39 71.3702 205.256 71.1065C205.127 70.849 205.059 70.568 205.056 70.2831C205.048 69.8009 205.214 69.3307 205.526 68.9491C205.877 68.542 206.333 68.2272 206.85 68.0352V67.9858C206.408 67.8162 206.027 67.5304 205.752 67.1623C205.526 66.8557 205.404 66.4907 205.404 66.1166C205.395 65.8355 205.452 65.5561 205.571 65.2984C205.69 65.0407 205.868 64.8111 206.092 64.6262C206.573 64.2288 207.196 64.0197 207.834 64.0416L207.86 64.091ZM207.764 71.9381C208.305 71.9644 208.835 71.7934 209.245 71.4606C209.427 71.3089 209.572 71.1209 209.668 70.9103C209.765 70.6996 209.811 70.4713 209.803 70.2419C209.815 70.0049 209.773 69.7682 209.68 69.548C209.587 69.3277 209.445 69.129 209.263 68.9656C208.778 68.6014 208.212 68.3453 207.608 68.2163C207.081 68.3427 206.604 68.6083 206.232 68.9821C205.92 69.3065 205.749 69.7297 205.752 70.1678C205.745 70.403 205.789 70.637 205.882 70.8552C205.975 71.0735 206.115 71.2712 206.292 71.4359C206.488 71.6088 206.718 71.7425 206.97 71.8289C207.221 71.9152 207.489 71.9524 207.756 71.9381H207.764ZM207.817 64.5768C207.583 64.5646 207.35 64.5969 207.13 64.6719C206.91 64.7469 206.708 64.863 206.536 65.0132C206.385 65.15 206.266 65.3152 206.187 65.4981C206.107 65.6811 206.069 65.8777 206.075 66.0754C206.063 66.2814 206.1 66.4873 206.183 66.6781C206.266 66.8689 206.392 67.04 206.554 67.1788C206.958 67.4902 207.436 67.7048 207.947 67.8046C208.383 67.6762 208.779 67.4469 209.097 67.1376C209.379 66.8494 209.529 66.4677 209.515 66.0754C209.523 65.6841 209.373 65.3046 209.097 65.0132C208.931 64.861 208.732 64.7435 208.515 64.6683C208.297 64.5931 208.065 64.5619 207.834 64.5768H207.817Z" fill="white"/>
</svg>
