<svg width="122" height="44" viewBox="0 0 122 44" fill="none" xmlns="http://www.w3.org/2000/svg">
<path d="M1.94947 31.2507H1.40259V25.7471H1.94947V31.2507Z" fill="white"/>
<path d="M9.94888 31.2507H9.33737L6.17538 26.4623V31.2507H5.60364V25.7471H6.34939L9.38708 30.3665V25.7471H9.94888V31.2507Z" fill="white"/>
<path d="M16.4121 26.2687H15.1642V31.2359H14.6173V26.2687H13.3744V25.772H16.4121V26.2687Z" fill="white"/>
<path d="M22.6814 31.2509H21.1004C20.7275 31.2671 20.362 31.143 20.0762 30.9032C19.9416 30.7764 19.8364 30.6219 19.7677 30.4503C19.699 30.2787 19.6685 30.0943 19.6785 29.9097V27.1182C19.6685 26.9337 19.699 26.7492 19.7677 26.5776C19.8364 26.4061 19.9416 26.2515 20.0762 26.1247C20.362 25.8849 20.7275 25.7608 21.1004 25.777H22.6814V26.2738H21.0954C20.9879 26.259 20.8784 26.2672 20.7743 26.2977C20.6701 26.3281 20.5735 26.3802 20.4909 26.4506C20.4083 26.5209 20.3415 26.6079 20.2949 26.7058C20.2483 26.8038 20.2229 26.9104 20.2204 27.0188V28.206H22.0649V28.7325H20.2204V30.0041C20.2264 30.1118 20.2537 30.2173 20.3006 30.3145C20.3475 30.4117 20.4132 30.4986 20.4938 30.5704C20.6642 30.7041 20.8799 30.7664 21.0954 30.7442H22.6814V31.2509Z" fill="white"/>
<path d="M29.756 27.5504C29.7566 27.9566 29.608 28.349 29.3383 28.6531C29.0672 28.9493 28.6906 29.1277 28.2893 29.1498H28.1352L29.6565 31.1963H28.9655L27.1061 28.7127H27.638C28.0538 28.7349 28.4631 28.6022 28.7865 28.3401C28.9213 28.2256 29.0272 28.0809 29.0954 27.9178C29.1637 27.7546 29.1924 27.5777 29.1793 27.4013C29.1773 27.2442 29.1433 27.0891 29.0791 26.9456C29.015 26.8021 28.9222 26.6732 28.8064 26.5669C28.5327 26.3258 28.1766 26.1995 27.812 26.2142H26.5741V31.1814H26.0073V25.7572H27.7673C28.3006 25.727 28.8247 25.9051 29.229 26.2539C29.4074 26.4176 29.5472 26.6187 29.6384 26.8429C29.7295 27.0671 29.7697 27.3088 29.756 27.5504Z" fill="white"/>
<path d="M33.8675 31.2507H33.3157V25.7471H33.8626L33.8675 31.2507Z" fill="white"/>
<path d="M43.3088 28.4592C43.3136 28.8397 43.2412 29.2172 43.0959 29.5689C42.9507 29.9207 42.7356 30.2393 42.4636 30.5057C42.2008 30.7803 41.8842 30.9979 41.5335 31.1449C41.1828 31.2919 40.8055 31.3652 40.4252 31.3601C40.0469 31.3648 39.6715 31.2944 39.3207 31.1528C38.9699 31.0113 38.6508 30.8014 38.3819 30.5355C38.1062 30.2838 37.8871 29.9766 37.7389 29.6341C37.5906 29.2917 37.5166 28.9217 37.5218 28.5487C37.5163 28.17 37.5879 27.7942 37.7323 27.4441C37.8768 27.094 38.091 26.7769 38.362 26.5121C38.6226 26.2373 38.9374 26.0195 39.2865 25.8724C39.6357 25.7254 40.0116 25.6523 40.3904 25.6578C41.1556 25.6484 41.8935 25.9411 42.4437 26.4724C42.7221 26.7223 42.9433 27.029 43.0926 27.3718C43.2418 27.7146 43.3156 28.0855 43.3088 28.4592ZM42.7818 28.494C42.7814 28.1878 42.7176 27.885 42.5943 27.6046C42.4711 27.3242 42.2912 27.0723 42.0659 26.8648C41.8468 26.6498 41.5872 26.4804 41.3022 26.3661C41.0172 26.2519 40.7124 26.1952 40.4054 26.1992C40.1 26.1956 39.7971 26.254 39.515 26.371C39.233 26.488 38.9777 26.661 38.7647 26.8797C38.5475 27.0924 38.3749 27.3463 38.2571 27.6265C38.1393 27.9067 38.0786 28.2075 38.0786 28.5114C38.0786 28.8153 38.1393 29.1161 38.2571 29.3963C38.3749 29.6765 38.5475 29.9304 38.7647 30.1431C39.2062 30.5811 39.8031 30.8269 40.4252 30.8269C41.0474 30.8269 41.6443 30.5811 42.0858 30.1431C42.3071 29.9304 42.4816 29.6738 42.598 29.3898C42.7144 29.1059 42.7703 28.8008 42.7619 28.494H42.7818Z" fill="white"/>
<path d="M50.6271 27.5504C50.6243 27.9626 50.4684 28.3591 50.1896 28.663C49.9209 28.9599 49.5456 29.1384 49.1456 29.1597H48.9865L50.5128 31.2062H49.8366L47.9723 28.7226H48.5092C48.925 28.7449 49.3342 28.6121 49.6576 28.3501C49.7925 28.2355 49.8983 28.0908 49.9666 27.9277C50.0349 27.7645 50.0636 27.5876 50.0504 27.4113C50.0485 27.2541 50.0144 27.099 49.9503 26.9555C49.8862 26.812 49.7934 26.6831 49.6775 26.5768C49.4036 26.3362 49.0477 26.2099 48.6832 26.2241H47.4552V31.1913H46.8884V25.7572H48.6484C49.1817 25.727 49.7058 25.9051 50.1101 26.2539C50.2867 26.4185 50.4247 26.6201 50.5141 26.8442C50.6035 27.0684 50.6421 27.3095 50.6271 27.5504Z" fill="white"/>
<path d="M64.1003 29.7307C64.1033 29.9462 64.0606 30.1599 63.9749 30.3577C63.8892 30.5555 63.7625 30.7328 63.6032 30.8781C63.29 31.1795 62.8721 31.3479 62.4373 31.3479C62.0025 31.3479 61.5846 31.1795 61.2715 30.8781C61.1119 30.7256 60.9855 30.542 60.8999 30.3386C60.8144 30.1353 60.7716 29.9165 60.7743 29.696H61.351C61.3467 29.8408 61.3718 29.985 61.4247 30.1199C61.4777 30.2548 61.5575 30.3775 61.6592 30.4808C61.7549 30.5863 61.8715 30.6708 62.0016 30.7289C62.1317 30.7871 62.2724 30.8176 62.4149 30.8185C62.5618 30.823 62.7081 30.7975 62.8449 30.7437C62.9816 30.6899 63.106 30.6089 63.2104 30.5056C63.3171 30.4045 63.4007 30.2816 63.4556 30.1453C63.5105 30.0091 63.5354 29.8626 63.5286 29.7158C63.5286 29.2092 63.1972 28.8515 62.5343 28.6429L61.9526 28.4641C61.6634 28.3809 61.4088 28.2067 61.2267 27.9674C61.0544 27.7176 60.9625 27.4213 60.9632 27.118C60.9577 26.9231 60.9953 26.7294 61.0736 26.5507C61.1518 26.3721 61.2686 26.213 61.4156 26.0848C61.5582 25.9461 61.7271 25.8373 61.9123 25.7648C62.0976 25.6922 62.2956 25.6575 62.4945 25.6626C62.6899 25.6614 62.8835 25.7005 63.0631 25.7774C63.2428 25.8544 63.4046 25.9674 63.5385 26.1096C63.6784 26.2477 63.7888 26.4126 63.8631 26.5945C63.9374 26.7763 63.9742 26.9713 63.9711 27.1677H63.3894C63.3945 27.0446 63.3747 26.9217 63.3312 26.8065C63.2876 26.6913 63.2211 26.586 63.1358 26.4971C63.0558 26.4062 62.9582 26.3324 62.8488 26.2803C62.7394 26.2283 62.6205 26.1989 62.4995 26.1941C62.3706 26.1861 62.2416 26.2054 62.1208 26.2508C61.9999 26.2961 61.8901 26.3665 61.7984 26.4573C61.7023 26.5408 61.6264 26.6449 61.5764 26.7619C61.5265 26.879 61.5038 27.0058 61.5101 27.1329C61.5001 27.3238 61.5572 27.5123 61.6716 27.6656C61.786 27.8189 61.9505 27.9274 62.1365 27.9723L62.8027 28.181C63.1666 28.2462 63.4959 28.4372 63.7331 28.7205C63.9703 29.0038 64.1003 29.3614 64.1003 29.7307Z" fill="white"/>
<path d="M73.1688 28.4592C73.1738 28.8402 73.101 29.2182 72.9548 29.57C72.8086 29.9219 72.5921 30.2403 72.3186 30.5057C72.0567 30.7802 71.7409 30.9977 71.3911 31.1448C71.0412 31.2918 70.6647 31.3651 70.2852 31.3601C69.9068 31.3657 69.5311 31.2956 69.1801 31.154C68.8292 31.0124 68.5102 30.8021 68.2418 30.5355C67.9645 30.2848 67.7439 29.9779 67.5948 29.6353C67.4456 29.2927 67.3713 28.9222 67.3767 28.5487C67.3724 28.1702 67.4445 27.7947 67.5889 27.4447C67.7333 27.0948 67.9469 26.7776 68.217 26.5121C68.4775 26.2373 68.7924 26.0195 69.1415 25.8724C69.4907 25.7254 69.8665 25.6523 70.2454 25.6578C71.0107 25.6473 71.7491 25.9402 72.2987 26.4724C72.5777 26.722 72.7997 27.0286 72.9498 27.3714C73.0999 27.7141 73.1746 28.0851 73.1688 28.4592ZM72.6368 28.494C72.6361 28.1883 72.5726 27.886 72.4504 27.6058C72.3281 27.3255 72.1496 27.0733 71.9258 26.8648C71.7058 26.6497 71.4454 26.4802 71.1596 26.3659C70.8737 26.2517 70.5681 26.195 70.2603 26.1992C69.9558 26.1962 69.6538 26.255 69.3727 26.372C69.0915 26.4889 68.8371 26.6617 68.6246 26.8797C68.4062 27.0917 68.2325 27.3454 68.114 27.6257C67.9954 27.9059 67.9343 28.2071 67.9343 28.5114C67.9343 28.8157 67.9954 29.1169 68.114 29.3972C68.2325 29.6774 68.4062 29.9311 68.6246 30.1431C69.0653 30.5808 69.6613 30.8265 70.2827 30.8265C70.904 30.8265 71.5001 30.5808 71.9407 30.1431C72.1657 29.9321 72.3438 29.6763 72.4637 29.3923C72.5836 29.1082 72.6426 28.8022 72.6368 28.494Z" fill="white"/>
<path d="M79.7461 31.2507H78.1652C77.7906 31.2682 77.4231 31.144 77.136 30.903C77.0009 30.7766 76.8953 30.6222 76.8265 30.4505C76.7578 30.2788 76.7277 30.0942 76.7383 29.9096V25.762H77.2802V30.0039C77.2858 30.111 77.3129 30.2159 77.3598 30.3123C77.4068 30.4088 77.4727 30.4948 77.5536 30.5652C77.726 30.6988 77.9432 30.761 78.1602 30.7391H79.7461V31.2507Z" fill="white"/>
<path d="M86.2889 29.4677C86.2953 29.7192 86.249 29.9693 86.1532 30.2019C86.0573 30.4345 85.9138 30.6446 85.7321 30.8187C85.5583 30.9966 85.3489 31.1359 85.1176 31.2275C84.8863 31.319 84.6383 31.3609 84.3897 31.3502C84.1469 31.3536 83.9061 31.3063 83.6827 31.2113C83.4592 31.1164 83.2581 30.9759 83.0921 30.7989C82.917 30.62 82.7797 30.4077 82.6884 30.1748C82.597 29.9418 82.5534 29.6929 82.5601 29.4428V25.7423H83.102V29.3484C83.0903 29.7322 83.2234 30.1063 83.4749 30.3965C83.5915 30.5337 83.7372 30.6432 83.9015 30.7171C84.0657 30.791 84.2444 30.8274 84.4245 30.8237C84.5991 30.8273 84.7725 30.7942 84.9335 30.7266C85.0945 30.659 85.2395 30.5584 85.3592 30.4313C85.488 30.3009 85.5884 30.1454 85.6543 29.9745C85.7202 29.8035 85.75 29.6209 85.742 29.4379V25.7224H86.2889V29.4677Z" fill="white"/>
<path d="M92.7322 26.2687H91.4843V31.2359H90.9374V26.2687H89.6945V25.772H92.7322V26.2687Z" fill="white"/>
<path d="M96.7145 31.2507H96.1676V25.7471H96.7145V31.2507Z" fill="white"/>
<path d="M106.156 28.4592C106.161 28.8397 106.088 29.2172 105.943 29.5689C105.798 29.9207 105.582 30.2393 105.311 30.5057C105.048 30.7803 104.731 30.9979 104.38 31.1449C104.03 31.2919 103.652 31.3652 103.272 31.3601C102.894 31.3648 102.518 31.2944 102.168 31.1528C101.817 31.0113 101.498 30.8014 101.229 30.5355C100.953 30.2838 100.734 29.9766 100.586 29.6341C100.438 29.2917 100.364 28.9217 100.369 28.5487C100.363 28.17 100.435 27.7942 100.579 27.4441C100.724 27.094 100.938 26.7769 101.209 26.5121C101.47 26.2373 101.784 26.0195 102.133 25.8724C102.483 25.7254 102.859 25.6523 103.237 25.6578C104.002 25.6484 104.74 25.9411 105.291 26.4724C105.569 26.7223 105.79 27.029 105.94 27.3718C106.089 27.7146 106.163 28.0855 106.156 28.4592ZM105.629 28.494C105.627 28.1876 105.562 27.8848 105.438 27.6046C105.314 27.3243 105.133 27.0725 104.908 26.8648C104.463 26.4313 103.864 26.1919 103.242 26.1992C102.937 26.1956 102.634 26.254 102.352 26.371C102.07 26.488 101.815 26.661 101.602 26.8797C101.384 27.0924 101.212 27.3463 101.094 27.6265C100.976 27.9067 100.916 28.2075 100.916 28.5114C100.916 28.8153 100.976 29.1161 101.094 29.3963C101.212 29.6765 101.384 29.9304 101.602 30.1431C102.043 30.5811 102.64 30.8269 103.262 30.8269C103.884 30.8269 104.481 30.5811 104.923 30.1431C105.149 29.933 105.33 29.6776 105.451 29.3935C105.573 29.1094 105.633 28.803 105.629 28.494Z" fill="white"/>
<path d="M114.076 31.2507H113.464L110.297 26.4623V31.2507H109.725V25.7471H110.471L113.514 30.3666V25.7471H114.076V31.2507Z" fill="white"/>
<path d="M120.867 29.7309C120.87 29.9464 120.827 30.1601 120.741 30.3578C120.656 30.5556 120.529 30.733 120.37 30.8783C120.138 31.11 119.843 31.2677 119.522 31.3312C119.2 31.3947 118.867 31.3612 118.565 31.235C118.263 31.1087 118.005 30.8954 117.824 30.6223C117.643 30.3491 117.548 30.0284 117.551 29.7011H118.128C118.122 29.8456 118.146 29.9897 118.199 30.1246C118.251 30.2595 118.33 30.3824 118.431 30.4859C118.528 30.5911 118.645 30.6753 118.776 30.7334C118.907 30.7915 119.048 30.8222 119.191 30.8237C119.338 30.8281 119.485 30.8027 119.621 30.7489C119.758 30.6951 119.883 30.614 119.987 30.5107C120.094 30.4096 120.177 30.2867 120.232 30.1505C120.287 30.0142 120.312 29.8677 120.305 29.7209C120.305 29.2143 119.974 28.8567 119.311 28.648L118.724 28.4692C118.437 28.3848 118.184 28.2107 118.003 27.9725C117.831 27.7228 117.739 27.4264 117.74 27.1231C117.734 26.9282 117.772 26.7345 117.85 26.5559C117.928 26.3772 118.045 26.2181 118.192 26.0899C118.335 25.9512 118.504 25.8424 118.689 25.7699C118.874 25.6974 119.072 25.6626 119.271 25.6677C119.466 25.6666 119.66 25.7056 119.84 25.7826C120.019 25.8595 120.181 25.9726 120.315 26.1148C120.455 26.2528 120.565 26.4177 120.64 26.5996C120.714 26.7814 120.751 26.9764 120.748 27.1728H120.166C120.171 27.0497 120.151 26.9269 120.108 26.8116C120.064 26.6964 119.998 26.5911 119.912 26.5022C119.828 26.4099 119.727 26.3354 119.613 26.2833C119.5 26.2311 119.377 26.2023 119.252 26.1986C119.127 26.1949 119.003 26.2164 118.887 26.2617C118.77 26.307 118.664 26.3753 118.575 26.4625C118.479 26.5463 118.403 26.6504 118.352 26.7673C118.302 26.8841 118.277 27.0107 118.282 27.138C118.274 27.3292 118.332 27.5173 118.447 27.6703C118.563 27.8232 118.727 27.9318 118.913 27.9775L119.579 28.1861C119.94 28.2532 120.267 28.4444 120.502 28.7264C120.737 29.0085 120.866 29.3638 120.867 29.7309Z" fill="white"/>
<path d="M0.850708 34.708H120.529" stroke="#B1B3B5" stroke-width="0.71" stroke-miterlimit="10"/>
<path d="M4.27621 14.8392C4.07475 14.6645 3.90995 14.4516 3.79133 14.2129C3.67272 13.9742 3.60264 13.7143 3.58515 13.4484V0.245605H1.05457V13.1603C1.01836 13.7861 1.12128 14.4122 1.35595 14.9937C1.59062 15.5751 1.95121 16.0974 2.41184 16.5231C3.35351 17.3338 4.565 17.7626 5.80749 17.7251H11.0079V15.2415H5.7876C5.25188 15.2921 4.71572 15.1494 4.27621 14.8392Z" fill="#F6921E"/>
<path d="M21.4384 6.35517C20.835 5.70637 20.1074 5.18522 19.2986 4.82259C18.4899 4.45997 17.6165 4.26326 16.7303 4.24412H16.4419C15.5789 4.23683 14.7236 4.40678 13.9291 4.74344C13.1346 5.0801 12.4178 5.57627 11.8232 6.20119C11.1658 6.84125 10.6452 7.608 10.2931 8.45499C9.94104 9.30197 9.76473 10.2116 9.77488 11.1286C9.76318 12.008 9.92535 12.881 10.2521 13.6976C10.5789 14.5142 11.0638 15.2583 11.679 15.8872C12.2675 16.5282 12.9794 17.0439 13.7723 17.4033C14.5651 17.7626 15.4224 17.9582 16.2927 17.9784H16.5214C18.0789 17.9955 19.5877 17.4364 20.7573 16.4088V17.7251H23.2829V11.1187C23.3215 10.2405 23.1775 9.36378 22.8601 8.54392C22.5426 7.72406 22.0586 6.97881 21.4384 6.35517ZM16.5662 15.5047H16.3673C15.8137 15.4833 15.2704 15.3478 14.7717 15.1068C14.2729 14.8657 13.8293 14.5243 13.4688 14.104C13.0767 13.6935 12.7713 13.2085 12.5705 12.6778C12.3698 12.147 12.278 11.5813 12.3005 11.0144C12.2937 10.4492 12.4031 9.88861 12.6221 9.36741C12.841 8.8462 13.1648 8.37548 13.5732 7.98441C13.9646 7.57748 14.4361 7.25612 14.9582 7.04066C15.4802 6.8252 16.0413 6.72033 16.606 6.73268C17.149 6.72472 17.6876 6.8317 18.1863 7.04658C18.685 7.26147 19.1326 7.57939 19.4995 7.97944C20.2979 8.78105 20.7495 9.86368 20.7573 10.9945C20.781 11.5952 20.6802 12.1943 20.4612 12.7541C20.2422 13.314 19.9097 13.8226 19.4846 14.248C19.1147 14.6518 18.6634 14.9726 18.1603 15.1892C17.6573 15.4058 17.1139 15.5134 16.5662 15.5047Z" fill="#F6921E"/>
<path d="M31.8242 4.23916H31.5358C30.035 4.2652 28.5914 4.81925 27.4591 5.80382V0.220703H24.9384V11.0939C24.925 12.8947 25.6236 14.628 26.8822 15.9172C28.1409 17.2063 29.8579 17.947 31.6601 17.9784H31.8938C32.7714 17.9625 33.6368 17.769 34.4375 17.4096C35.2381 17.0502 35.9576 16.5323 36.5523 15.8872C37.1695 15.2595 37.6561 14.5157 37.9838 13.6989C38.3115 12.8821 38.4738 12.0085 38.4614 11.1286C38.4698 10.2128 38.2922 9.30483 37.9393 8.45959C37.5863 7.61434 37.0654 6.84943 36.4081 6.21113C35.8177 5.58918 35.1069 5.09365 34.3189 4.75466C33.5309 4.41566 32.6821 4.24028 31.8242 4.23916ZM31.6651 15.5047C31.1135 15.515 30.5659 15.4083 30.0586 15.1917C29.5513 14.9751 29.0957 14.6534 28.7219 14.248C27.9108 13.4098 27.4575 12.2895 27.4575 11.1237C27.4575 9.95781 27.9108 8.83755 28.7219 7.99931C29.0901 7.59824 29.5393 7.27975 30.0398 7.06484C30.5403 6.84993 31.0807 6.7435 31.6253 6.75255C32.189 6.74009 32.7491 6.84545 33.2696 7.06186C33.7901 7.27827 34.2597 7.60096 34.6481 8.00925C35.0534 8.40277 35.3764 8.87285 35.5983 9.39215C35.8202 9.91145 35.9366 10.4696 35.9407 11.0343C35.9682 12.1849 35.5414 13.3 34.7525 14.1387C34.3848 14.5552 33.9349 14.8912 33.4309 15.1254C32.9269 15.3596 32.3799 15.4871 31.8242 15.4998L31.6651 15.5047Z" fill="#F6921E"/>
<path d="M45.8046 4.34844H45.5013C44.3404 4.38924 43.2297 4.83169 42.3592 5.60016V0.220703H39.8336V17.7251H42.3592V9.98618C42.3454 9.56283 42.4221 9.14139 42.5841 8.74996C42.7461 8.35853 42.9898 8.00611 43.2989 7.71619C43.927 7.11129 44.7682 6.77763 45.6405 6.78732H45.7449C46.1701 6.78865 46.5904 6.87756 46.9796 7.04849C47.3688 7.21942 47.7186 7.4687 48.0071 7.78075C48.3342 8.07894 48.5945 8.44285 48.771 8.8486C48.9475 9.25436 49.0362 9.69281 49.0312 10.1352V17.7251H51.5568V10.2743C51.5702 9.47381 51.4192 8.67909 51.113 7.93923C50.8069 7.19937 50.3522 6.53008 49.777 5.9727C49.2563 5.45151 48.6368 5.03938 47.9547 4.76047C47.2726 4.48156 46.5416 4.34149 45.8046 4.34844Z" fill="#F6921E"/>
<path d="M63.0961 5.8637C61.9595 4.89745 60.5262 4.34883 59.0343 4.30897H58.8006C57.9309 4.30467 57.0696 4.47879 56.27 4.82056C55.4704 5.16232 54.7496 5.66445 54.1521 6.29585C52.8722 7.57466 52.1412 9.30134 52.1143 11.1096C52.0874 12.9179 52.7666 14.6656 54.0079 15.9818C54.599 16.6274 55.3167 17.1445 56.1164 17.5008C56.9162 17.8572 57.7808 18.0452 58.6564 18.0532C58.7359 18.058 58.8156 18.058 58.8951 18.0532C60.6973 18.0283 62.4166 17.2928 63.6785 16.007C64.9403 14.7212 65.6424 12.9892 65.6317 11.1885V0.30542H63.0961V5.8637ZM58.9697 15.5646H58.7211C58.1663 15.5519 57.6205 15.4223 57.1193 15.1844C56.6181 14.9464 56.1729 14.6054 55.8126 14.1837C55.4232 13.7702 55.1191 13.2841 54.9178 12.7531C54.7164 12.2221 54.6218 11.6567 54.6393 11.0892C54.635 10.519 54.7464 9.95389 54.9669 9.42798C55.1874 8.90206 55.5123 8.42628 55.922 8.02939C56.3055 7.6266 56.7689 7.30813 57.2825 7.09431C57.7961 6.8805 58.3487 6.77603 58.905 6.78759H58.9647C59.5091 6.7786 60.0492 6.88558 60.5489 7.10141C61.0487 7.31725 61.4967 7.63698 61.8632 8.03932C62.6596 8.84991 63.109 9.93841 63.116 11.0743C63.1412 11.6689 63.0429 12.2623 62.8273 12.8171C62.6117 13.3719 62.2834 13.8761 61.8632 14.298C61.5009 14.7052 61.0547 15.0293 60.5553 15.2479C60.0558 15.4665 59.5149 15.5746 58.9697 15.5646Z" fill="#F6921E"/>
<path d="M78.9756 6.35539C78.3739 5.70711 77.648 5.18619 76.8409 4.82356C76.0339 4.46092 75.1621 4.26395 74.2774 4.24434H73.9791C73.1155 4.23754 72.2596 4.4077 71.4644 4.74431C70.6691 5.08091 69.9514 5.57682 69.3555 6.20141C68.7012 6.84335 68.1834 7.61066 67.8331 8.45737C67.4829 9.30407 67.3073 10.2127 67.3171 11.1288C67.2946 12.9027 67.9756 14.6135 69.2113 15.8874C69.8008 16.5297 70.5144 17.046 71.3091 17.4054C72.1037 17.7648 72.9629 17.9598 73.8349 17.9786H74.0835C75.6395 17.9959 77.1468 17.4367 78.3144 16.409V17.7253H80.84V11.1189C80.876 10.2392 80.7289 9.36169 80.408 8.54175C80.0871 7.72181 79.5993 6.97733 78.9756 6.35539ZM74.0835 15.5049H73.8896C73.3353 15.4833 72.7914 15.3477 72.2919 15.1067C71.7923 14.8657 71.3478 14.5245 70.9862 14.1042C70.5959 13.6927 70.2919 13.2074 70.0921 12.6768C69.8923 12.1462 69.8008 11.5811 69.8228 11.0146C69.8157 10.4489 69.9256 9.88785 70.1454 9.3665C70.3653 8.84515 70.6904 8.37472 71.1005 7.98462C71.4905 7.57735 71.9612 7.2557 72.4824 7.04019C73.0037 6.82468 73.5642 6.72002 74.1283 6.73289C74.6719 6.7258 75.211 6.83315 75.7104 7.04796C76.2098 7.26276 76.6583 7.58022 77.0267 7.97966C77.8343 8.81967 78.2853 9.93926 78.2853 11.104C78.2853 12.2688 77.8343 13.3884 77.0267 14.2284C76.6543 14.6369 76.1995 14.9619 75.6921 15.1819C75.1848 15.402 74.6365 15.5121 74.0835 15.5049Z" fill="#F6921E"/>
<path d="M90.6094 4.55225L86.7613 13.5876L83.127 4.55225H80.3926L85.2648 16.8758L83.2463 21.9821H85.9509L93.2742 4.55225H90.6094Z" fill="#F6921E"/>
<path d="M104.232 6.35518C103.631 5.7066 102.906 5.18543 102.1 4.82275C101.294 4.46006 100.422 4.26328 99.5384 4.24413H99.2401C98.3764 4.23674 97.5203 4.40663 96.725 4.74327C95.9297 5.07991 95.212 5.57614 94.6165 6.2012C93.9599 6.84195 93.44 7.60883 93.088 8.45566C92.736 9.30248 92.5591 10.2117 92.5681 11.1286C92.5467 12.9042 93.2315 14.6158 94.4723 15.8872C95.0618 16.5294 95.7754 17.0458 96.5701 17.4052C97.3647 17.7646 98.2239 17.9596 99.0959 17.9784H99.3197C100.877 17.9965 102.386 17.4373 103.556 16.4088V17.7251H106.081V11.1187C106.119 10.2401 105.974 9.36333 105.656 8.54349C105.337 7.72366 104.852 6.97857 104.232 6.35518ZM99.3594 15.5047H99.1606C98.6076 15.4835 98.065 15.3481 97.567 15.107C97.069 14.8659 96.6264 14.5244 96.267 14.104C95.8749 13.6935 95.5695 13.2085 95.3688 12.6778C95.168 12.147 95.0762 11.5813 95.0987 11.0144C95.0942 10.4495 95.2048 9.88966 95.4236 9.36878C95.6423 8.84791 95.9648 8.37692 96.3715 7.98441C96.7628 7.57749 97.2343 7.25613 97.7564 7.04067C98.2784 6.82521 98.8395 6.72033 99.4042 6.73268C99.9471 6.72535 100.486 6.83261 100.984 7.04746C101.483 7.2623 101.93 7.57989 102.298 7.97945C103.098 8.77954 103.55 9.86314 103.556 10.9945C103.577 11.5924 103.474 12.1881 103.254 12.7445C103.034 13.301 102.702 13.806 102.278 14.2282C101.911 14.6368 101.46 14.9622 100.957 15.1824C100.454 15.4026 99.9089 15.5125 99.3594 15.5047Z" fill="#F6921E"/>
<path d="M110.406 0.16626H107.757V17.7004H110.406V0.16626Z" fill="#F6921E"/>
<path fill-rule="evenodd" clip-rule="evenodd" d="M111.252 12.8175V12.7579C111.124 12.3563 111.032 11.944 110.978 11.526C110.948 11.2926 110.924 11.0541 110.899 10.8157C110.862 10.4424 110.862 10.0664 110.899 9.69314C110.926 9.4302 110.979 9.17063 111.058 8.91826C111.108 8.76925 111.152 8.62023 111.212 8.48115C111.296 8.27747 111.398 8.08138 111.515 7.89502C111.684 7.60355 111.888 7.33339 112.122 7.09033C112.371 6.83458 112.644 6.60337 112.937 6.3999C113.21 6.21105 113.497 6.04492 113.797 5.90318C113.98 5.80341 114.17 5.71548 114.364 5.63992C114.687 5.52071 115.015 5.39653 115.333 5.30712C115.652 5.21771 115.87 5.17797 116.139 5.11836L116.81 4.99916C116.831 4.99474 116.853 4.99474 116.875 4.99916C116.774 5.03406 116.675 5.07726 116.581 5.1283C116.427 5.18791 116.283 5.25744 116.139 5.32698C115.841 5.47103 115.537 5.61508 115.244 5.76906C114.951 5.92305 114.598 6.1267 114.284 6.32042C113.971 6.51414 113.698 6.7178 113.409 6.93139C113.046 7.20625 112.712 7.51931 112.415 7.86521C112.226 8.07381 112.059 8.30193 111.918 8.54572C111.743 8.81406 111.629 9.11763 111.585 9.43484V9.47955C111.714 9.53461 111.847 9.57946 111.983 9.61366C112.262 9.68055 112.55 9.70731 112.838 9.69314C113.173 9.68664 113.507 9.64164 113.832 9.55902C114.158 9.47986 114.475 9.37181 114.782 9.23616C115.035 9.11695 115.279 8.9729 115.542 8.84375C115.808 8.70038 116.061 8.53418 116.298 8.34703C116.969 7.81036 117.543 7.16169 117.993 6.4297C118.137 6.19127 118.272 5.95782 118.401 5.70946C118.53 5.4611 118.595 5.32202 118.684 5.1283C118.729 5.02399 118.779 4.92961 118.814 4.83027C118.918 4.56701 119.012 4.30872 119.097 4.05042C119.182 3.79213 119.296 3.45436 119.37 3.16129C119.445 2.86823 119.515 2.43112 119.589 2.07349C119.445 2.1778 119.311 2.29204 119.167 2.38145C118.923 2.5404 118.669 2.69935 118.411 2.84339C118.111 3.01461 117.794 3.15602 117.466 3.26561C117.248 3.34011 117.019 3.40965 116.8 3.47423C116.581 3.5388 116.407 3.56861 116.213 3.60834C115.91 3.66795 115.602 3.70769 115.294 3.76232C114.985 3.81696 114.702 3.86663 114.409 3.93121C114.274 3.9577 114.141 3.99423 114.011 4.04049C113.792 4.11996 113.578 4.19447 113.365 4.29382C113.151 4.39316 112.987 4.4925 112.803 4.60674C112.52 4.78682 112.258 4.99846 112.022 5.23758C111.756 5.49435 111.522 5.78297 111.326 6.0969C111.207 6.29062 111.108 6.48434 111.008 6.67806C110.909 6.87178 110.834 7.09034 110.75 7.29399C110.665 7.49765 110.64 7.65163 110.59 7.82548C110.531 8.07881 110.471 8.3222 110.436 8.59043C110.395 8.86698 110.369 9.14554 110.357 9.42491C110.357 9.70804 110.357 9.98621 110.357 10.2693C110.357 10.5525 110.407 10.766 110.436 10.9945C110.489 11.3233 110.585 11.6438 110.72 11.9482C110.854 12.2439 111.021 12.5238 111.217 12.7827C111.217 12.7827 111.237 12.8026 111.252 12.8175Z" fill="#F6921E"/>
<path fill-rule="evenodd" clip-rule="evenodd" d="M106.648 11.4465H106.698C107.156 11.1649 107.638 10.9254 108.139 10.7313C108.418 10.617 108.701 10.5028 108.985 10.3985C109.436 10.2389 109.903 10.1241 110.377 10.0557C110.706 10.005 111.038 9.98503 111.371 9.99613C111.56 9.99626 111.75 10.0062 111.938 10.0259C112.204 10.0569 112.466 10.11 112.723 10.1849C113.11 10.291 113.483 10.4393 113.837 10.627C114.205 10.8323 114.551 11.0735 114.871 11.3472C115.165 11.5998 115.436 11.8773 115.681 12.1767C115.844 12.3595 115.995 12.5519 116.134 12.7529C116.358 13.0957 116.571 13.4235 116.76 13.7464C116.916 14.0299 117.055 14.3217 117.178 14.6206C117.282 14.864 117.372 15.1173 117.466 15.3557C117.475 15.3797 117.475 15.4062 117.466 15.4302C117.392 15.3408 117.322 15.2315 117.248 15.1372C117.173 15.0428 117.014 14.8342 116.895 14.6901C116.646 14.3871 116.397 14.0841 116.149 13.796C115.9 13.5079 115.572 13.1652 115.259 12.8721C114.958 12.5818 114.641 12.3082 114.309 12.0525C113.885 11.7162 113.427 11.4248 112.942 11.1833C112.638 11.0325 112.32 10.9127 111.992 10.8257C111.616 10.7188 111.222 10.6884 110.834 10.7362C110.821 10.7365 110.808 10.7403 110.796 10.7473C110.785 10.7543 110.776 10.7642 110.769 10.776C110.745 10.9449 110.71 11.1088 110.7 11.2727C110.683 11.6168 110.717 11.9614 110.799 12.2959C110.884 12.672 111.016 13.0358 111.192 13.3788C111.36 13.7315 111.567 14.0647 111.809 14.3722C112.012 14.6255 112.236 14.8689 112.455 15.1322C112.69 15.3949 112.954 15.6314 113.24 15.8375C113.566 16.0897 113.914 16.3124 114.279 16.5031C114.818 16.7851 115.385 17.0115 115.97 17.1787C116.288 17.2631 116.611 17.3426 116.934 17.4171C117.258 17.4916 117.461 17.5065 117.72 17.5462C117.85 17.5766 117.984 17.5949 118.118 17.6009C118.456 17.6357 118.794 17.6704 119.137 17.6804C119.48 17.6903 119.902 17.7151 120.28 17.6804C120.743 17.6804 121.195 17.6108 121.662 17.581C121.502 17.4597 121.348 17.3304 121.2 17.1936C120.942 16.9551 120.703 16.6969 120.449 16.4634C120.179 16.1676 119.938 15.8465 119.728 15.5047C119.579 15.2792 119.443 15.0454 119.321 14.8044C119.211 14.5908 119.117 14.3822 119.027 14.1686C118.883 13.8308 118.754 13.4881 118.62 13.1751C118.486 12.8622 118.356 12.5244 118.222 12.1817C118.152 12.0357 118.072 11.8946 117.983 11.7595C117.843 11.5292 117.691 11.307 117.526 11.0939C117.375 10.8977 117.208 10.7134 117.029 10.5425C116.745 10.2711 116.429 10.0343 116.089 9.83718C115.705 9.62324 115.296 9.45646 114.871 9.34046C114.613 9.27092 114.349 9.20635 114.081 9.16164C113.816 9.11551 113.549 9.08401 113.28 9.06727C113.05 9.05245 112.819 9.05245 112.589 9.06727C112.261 9.06727 111.938 9.06727 111.595 9.13184C111.252 9.19641 110.904 9.24112 110.566 9.31563C110.228 9.39014 109.875 9.48948 109.541 9.60372C109.208 9.71797 108.955 9.82228 108.671 9.94149C108.274 10.1089 107.9 10.3258 107.558 10.5872C107.23 10.8314 106.925 11.1058 106.648 11.4068C106.648 11.4068 106.663 11.4267 106.648 11.4465Z" fill="#F6921E"/>
<path d="M1.92956 39.1436V39.9383H2.95372V40.2314H1.92956V42.561C1.91669 42.7529 1.95987 42.9444 2.05385 43.1123C2.09753 43.1761 2.15735 43.2272 2.22722 43.2604C2.29709 43.2935 2.37451 43.3076 2.45158 43.3011C2.59115 43.3045 2.73038 43.2861 2.86423 43.2465L2.90898 43.5196C2.75113 43.5831 2.58191 43.6136 2.41181 43.609C2.29647 43.6171 2.18082 43.5984 2.07388 43.5545C1.96695 43.5106 1.87162 43.4425 1.79532 43.3557C1.71182 43.2532 1.65388 43.1323 1.62629 43.0031C1.58961 42.84 1.57127 42.6734 1.5716 42.5063V40.2363H0.960083V39.9433H1.56663V39.2826L1.92956 39.1436Z" fill="white"/>
<path d="M7.34873 41.0162C7.34873 40.604 7.34873 40.2463 7.3189 39.9384H7.65201V40.6636C7.72533 40.4367 7.86151 40.2352 8.04477 40.0824C8.2217 39.9383 8.4429 39.8593 8.6712 39.8589H8.82035V40.1917H8.64137C8.52472 40.1916 8.4094 40.2164 8.30309 40.2643C8.19678 40.3123 8.10194 40.3824 8.02488 40.4698C7.84858 40.6754 7.73474 40.927 7.69675 41.1951C7.67516 41.308 7.66516 41.4228 7.66692 41.5378V43.5247H7.30896L7.34873 41.0162Z" fill="white"/>
<path d="M15.9148 42.6604C15.9148 42.9982 15.9148 43.2912 15.9447 43.5346H15.6066V42.8939C15.4829 43.0967 15.3124 43.267 15.1094 43.3906C14.884 43.5344 14.6212 43.6087 14.3537 43.6042C14.2094 43.6112 14.065 43.5944 13.9262 43.5545C13.7784 43.5068 13.6439 43.4251 13.5334 43.3161C13.3932 43.1769 13.2876 43.0068 13.2252 42.8194C13.1388 42.5618 13.0984 42.2911 13.1058 42.0197V39.9285H13.4638V41.9501C13.4443 42.2956 13.5218 42.6397 13.6875 42.9435C13.7664 43.0625 13.8759 43.158 14.0045 43.22C14.1331 43.2821 14.2761 43.3084 14.4184 43.2962C14.6533 43.3003 14.8828 43.225 15.0697 43.0826C15.2488 42.9565 15.3912 42.7851 15.4823 42.5859C15.5267 42.458 15.5502 42.3239 15.5519 42.1885V39.9483H15.9148V42.6604Z" fill="white"/>
<path d="M20.5733 43.0578C20.6919 43.1305 20.8188 43.1889 20.9512 43.2316C21.0902 43.28 21.2366 43.3036 21.3837 43.3012C21.6094 43.3166 21.8327 43.2476 22.0101 43.1075C22.0796 43.045 22.1347 42.9683 22.1716 42.8825C22.2085 42.7968 22.2263 42.7041 22.2239 42.6107C22.2282 42.524 22.2145 42.4373 22.1837 42.3561C22.1529 42.2749 22.1057 42.201 22.045 42.1389C21.8754 41.9888 21.6777 41.874 21.4633 41.8011C20.8567 41.5577 20.5485 41.2299 20.5485 40.8077C20.5466 40.6769 20.5726 40.5472 20.6249 40.4272C20.6772 40.3073 20.7546 40.1999 20.8517 40.1123C21.0738 39.9184 21.3627 39.8186 21.6572 39.8341C21.8084 39.8323 21.9591 39.8524 22.1046 39.8937C22.2279 39.9312 22.3452 39.9864 22.4526 40.0576L22.3184 40.3507C22.2255 40.2847 22.1233 40.2328 22.0151 40.1967C21.881 40.15 21.7395 40.1281 21.5975 40.1321C21.4149 40.1252 21.2366 40.1893 21.1003 40.3109C21.0405 40.3677 20.9932 40.4364 20.9616 40.5125C20.9299 40.5887 20.9145 40.6706 20.9164 40.753C20.9115 40.8315 20.9242 40.9101 20.9534 40.9831C20.9827 41.0561 21.0277 41.1217 21.0854 41.1752C21.2571 41.312 21.4503 41.4194 21.6572 41.4931C21.9195 41.5845 22.1588 41.732 22.3582 41.9253C22.5156 42.0986 22.5979 42.3272 22.5869 42.5611C22.5916 42.7019 22.5646 42.842 22.5078 42.971C22.451 43.1 22.3659 43.2145 22.2587 43.3061C22.0103 43.5095 21.6945 43.6123 21.3738 43.5942C21.2057 43.5934 21.0385 43.5701 20.8766 43.5247C20.7296 43.4852 20.589 43.425 20.459 43.3459L20.5733 43.0578Z" fill="white"/>
<path d="M27.6132 39.1436V39.9383H28.6423V40.2314H27.6132V42.561C27.6003 42.7529 27.6435 42.9444 27.7375 43.1123C27.7826 43.1758 27.8435 43.2265 27.914 43.2596C27.9846 43.2926 28.0625 43.3069 28.1402 43.3011C28.2797 43.3045 28.419 43.2861 28.5528 43.2465L28.5976 43.5196C28.4397 43.5831 28.2705 43.6136 28.1004 43.609C27.985 43.6183 27.8689 43.6002 27.7618 43.5561C27.6547 43.5121 27.5595 43.4435 27.4839 43.3557C27.3988 43.2536 27.3392 43.1327 27.3099 43.0031C27.275 42.8398 27.2584 42.6732 27.2602 42.5063V40.2363H26.6487V39.9433H27.2552V39.2826L27.6132 39.1436Z" fill="white"/>
<path d="M33.0522 41.6918C33.0473 41.9376 33.0826 42.1825 33.1566 42.417C33.2182 42.6025 33.3201 42.7721 33.4549 42.9137C33.5852 43.0421 33.7411 43.1416 33.9124 43.2058C34.0837 43.27 34.2666 43.2974 34.4493 43.2862C34.7917 43.2986 35.1323 43.2305 35.4436 43.0876L35.5331 43.3707C35.3932 43.4376 35.2466 43.4892 35.0956 43.5247C34.867 43.5743 34.6335 43.5976 34.3996 43.5942C34.1718 43.6057 33.9442 43.5672 33.7329 43.4814C33.5216 43.3956 33.3317 43.2645 33.1765 43.0975C32.8622 42.7366 32.6985 42.269 32.7191 41.7911C32.7157 41.5199 32.756 41.2499 32.8385 40.9914C32.9114 40.7642 33.0279 40.5533 33.1815 40.3705C33.3172 40.2056 33.4867 40.0718 33.6787 39.9781C33.8799 39.8865 34.0989 39.8406 34.32 39.844C34.5616 39.8346 34.8011 39.8931 35.0111 40.0129C35.1889 40.1162 35.3391 40.2611 35.4486 40.4351C35.5467 40.5985 35.6189 40.7761 35.6624 40.9616C35.6995 41.1247 35.7195 41.2911 35.722 41.4583C35.7292 41.5343 35.7292 41.6108 35.722 41.6868L33.0522 41.6918ZM35.3442 41.4087C35.3449 41.2615 35.3282 41.1148 35.2945 40.9715C35.2594 40.8287 35.2006 40.6927 35.1205 40.5692C35.0385 40.4403 34.9235 40.3356 34.7874 40.2662C34.6342 40.1857 34.4633 40.1447 34.2902 40.147C34.1177 40.1444 33.9471 40.1836 33.793 40.2612C33.6499 40.3323 33.5243 40.434 33.4251 40.5593C33.3315 40.6837 33.2561 40.8208 33.2014 40.9666C33.1515 41.1103 33.1148 41.2583 33.092 41.4087H35.3442Z" fill="white"/>
<path d="M43.1099 38.2147V42.6852C43.1099 42.8193 43.1099 42.9633 43.1099 43.1123C43.1099 43.2613 43.1099 43.3955 43.1347 43.5147H42.8116L42.7818 42.8342C42.6702 43.059 42.498 43.2483 42.2846 43.3806C42.0475 43.5318 41.7702 43.6079 41.4891 43.5991C41.2762 43.6008 41.0656 43.5549 40.8726 43.465C40.6807 43.3803 40.5106 43.2529 40.3755 43.0925C40.2299 42.9234 40.1185 42.7277 40.0473 42.5163C39.9676 42.2812 39.9289 42.0342 39.933 41.7861C39.9282 41.5128 39.9703 41.2406 40.0573 40.9814C40.1336 40.7546 40.2516 40.544 40.4053 40.3605C40.5428 40.1988 40.712 40.067 40.9025 39.9731C41.0991 39.8836 41.3128 39.8378 41.5289 39.839C41.7882 39.8298 42.0448 39.8935 42.2697 40.0227C42.4548 40.1298 42.6063 40.2863 42.7072 40.4748V38.1948L43.1099 38.2147ZM42.747 41.3639C42.7504 41.2519 42.7387 41.1399 42.7121 41.0311C42.6519 40.7778 42.5065 40.5527 42.3002 40.3936C42.0939 40.2345 41.8392 40.1509 41.5786 40.1569C41.3983 40.151 41.2193 40.1885 41.0566 40.2663C40.8939 40.3441 40.7524 40.4599 40.6439 40.6039C40.4003 40.9412 40.2777 41.3507 40.2959 41.7662C40.2826 42.1596 40.3977 42.5467 40.624 42.8689C40.7293 43.0151 40.8695 43.1326 41.0319 43.2107C41.1943 43.2888 41.3737 43.325 41.5537 43.316C41.8135 43.3146 42.0647 43.2233 42.2647 43.0577C42.4831 42.8845 42.6371 42.6431 42.7022 42.3722C42.7288 42.2752 42.7406 42.1747 42.737 42.0742L42.747 41.3639Z" fill="white"/>
<path d="M55.2557 43.0578C55.3766 43.1296 55.5049 43.1879 55.6386 43.2316C55.7758 43.2801 55.9206 43.3036 56.0661 43.3012C56.292 43.3186 56.516 43.2493 56.6926 43.1075C56.7628 43.0457 56.8184 42.9691 56.8554 42.8831C56.8924 42.7972 56.9098 42.7042 56.9063 42.6107C56.9101 42.5245 56.8967 42.4383 56.8668 42.3573C56.8369 42.2763 56.7912 42.202 56.7323 42.1389C56.5628 41.9888 56.3651 41.874 56.1506 41.8011C55.5391 41.5577 55.2358 41.2299 55.2358 40.8077C55.233 40.6767 55.2586 40.5467 55.311 40.4266C55.3633 40.3066 55.4412 40.1993 55.5391 40.1123C55.7612 39.9184 56.0501 39.8186 56.3445 39.8341C56.4957 39.833 56.6463 39.8531 56.792 39.8937C56.9153 39.9312 57.0325 39.9864 57.14 40.0576L57.0058 40.3507C56.9122 40.2856 56.8102 40.2338 56.7025 40.1967C56.5683 40.1504 56.4268 40.1285 56.2849 40.1321C56.1021 40.1241 55.9235 40.1884 55.7877 40.3109C55.7279 40.3677 55.6806 40.4364 55.6489 40.5125C55.6172 40.5887 55.6019 40.6706 55.6038 40.753C55.5989 40.8315 55.6116 40.9101 55.6408 40.9831C55.67 41.0561 55.7151 41.1217 55.7728 41.1752C55.9438 41.3131 56.1371 41.4206 56.3445 41.4931C56.6058 41.5867 56.8446 41.7339 57.0455 41.9253C57.203 42.0986 57.2853 42.3272 57.2742 42.5611C57.279 42.7019 57.252 42.842 57.1952 42.971C57.1384 43.1 57.0533 43.2145 56.9461 43.3061C56.6972 43.5086 56.3817 43.6113 56.0611 43.5942C55.893 43.5937 55.7258 43.5704 55.564 43.5247C55.417 43.4852 55.2764 43.425 55.1464 43.3459L55.2557 43.0578Z" fill="white"/>
<path d="M61.9675 39.1537C61.9305 39.1549 61.8936 39.1474 61.86 39.1319C61.8263 39.1164 61.7968 39.0932 61.7736 39.0643C61.7204 39.0029 61.6912 38.9244 61.6912 38.8433C61.6912 38.7621 61.7204 38.6836 61.7736 38.6222C61.7992 38.5932 61.8305 38.5698 61.8656 38.5536C61.9007 38.5373 61.9388 38.5286 61.9774 38.5278C62.0163 38.5276 62.0547 38.5359 62.0899 38.5522C62.1252 38.5685 62.1564 38.5924 62.1813 38.6222C62.2375 38.6829 62.2678 38.7631 62.2658 38.8457C62.2684 38.9261 62.2399 39.0044 62.1863 39.0643C62.1594 39.0939 62.1263 39.1173 62.0893 39.1327C62.0524 39.1482 62.0125 39.1553 61.9725 39.1537H61.9675ZM61.8034 43.5546V39.9584H62.1515V43.5546H61.8034Z" fill="white"/>
<path d="M66.974 40.8028C66.974 40.6389 66.974 40.4949 66.974 40.3558C66.974 40.2167 66.974 40.0776 66.974 39.9385H67.3121V40.5892C67.4278 40.3803 67.6001 40.2082 67.8092 40.0925C68.0363 39.9529 68.2983 39.8805 68.5649 39.8839C68.6912 39.8846 68.8167 39.903 68.9378 39.9385C69.0877 39.9815 69.2268 40.056 69.3455 40.1571C69.495 40.2825 69.6111 40.4429 69.6836 40.624C69.7855 40.8709 69.833 41.1369 69.8228 41.4039V43.5547H69.4648V41.4337C69.4665 41.2665 69.4482 41.0997 69.4101 40.937C69.3786 40.7937 69.3213 40.6574 69.2411 40.5346C69.1628 40.4174 69.0547 40.3231 68.9279 40.2614C68.784 40.1916 68.6254 40.1575 68.4655 40.1621C68.2211 40.1625 67.9842 40.2467 67.7943 40.4005C67.6008 40.5488 67.4583 40.7536 67.3866 40.9866C67.3588 41.092 67.3438 41.2005 67.3419 41.3095V43.5547H66.9839L66.974 40.8028Z" fill="white"/>
<path d="M77.0664 43.3857C76.9208 43.4522 76.7693 43.5054 76.614 43.5446C76.4162 43.5972 76.2121 43.6223 76.0075 43.6191C75.7672 43.6216 75.5288 43.576 75.3065 43.485C75.0982 43.3993 74.9115 43.2687 74.7596 43.1026C74.6017 42.9382 74.4813 42.7416 74.4066 42.5264C74.231 42.0332 74.231 41.4946 74.4066 41.0014C74.4902 40.7722 74.6225 40.5638 74.7944 40.3905C74.959 40.2174 75.1592 40.0818 75.381 39.9931C75.7986 39.8398 76.253 39.8172 76.6836 39.9285C76.8186 39.9594 76.9478 40.0113 77.0664 40.0825L76.9372 40.3756C76.8223 40.3109 76.7006 40.2592 76.5742 40.2216C76.4121 40.1789 76.2448 40.1588 76.0771 40.162C75.8744 40.1517 75.672 40.1875 75.4851 40.2666C75.2982 40.3458 75.1318 40.4663 74.9982 40.619C74.7395 40.9388 74.6037 41.3404 74.6154 41.7515C74.5958 42.1663 74.7384 42.5724 75.0131 42.884C75.1445 43.0242 75.3042 43.1348 75.4816 43.2084C75.6591 43.2821 75.8502 43.3171 76.0423 43.3112C76.21 43.3145 76.3773 43.2944 76.5394 43.2516C76.6784 43.2107 76.8146 43.1609 76.9471 43.1026L77.0664 43.3857Z" fill="white"/>
<path d="M81.4863 41.6916C81.4814 41.9374 81.5167 42.1824 81.5907 42.4168C81.6523 42.6024 81.7542 42.772 81.889 42.9136C82.0191 43.0422 82.1749 43.1419 82.3463 43.2061C82.5177 43.2703 82.7007 43.2976 82.8834 43.2861C83.0771 43.2919 83.2709 43.2735 83.4601 43.2315C83.6038 43.1978 83.7438 43.1495 83.8777 43.0874L83.9672 43.3705C83.8295 43.4384 83.6843 43.4901 83.5347 43.5245C83.3061 43.5742 83.0725 43.5975 82.8386 43.5941C82.6108 43.6056 82.3833 43.5671 82.172 43.4812C81.9607 43.3954 81.7708 43.2644 81.6156 43.0973C81.2995 42.7375 81.1355 42.2692 81.1582 41.791C81.1548 41.5197 81.1951 41.2497 81.2775 40.9913C81.3507 40.7652 81.4654 40.5546 81.6156 40.3704C81.7595 40.2038 81.9375 40.07 82.1376 39.978C82.3388 39.8863 82.5579 39.8405 82.779 39.8438C83.0205 39.8352 83.2597 39.8937 83.47 40.0127C83.6479 40.1161 83.798 40.2609 83.9075 40.4349C84.0037 40.5993 84.0757 40.7766 84.1213 40.9615C84.1584 41.1245 84.1784 41.291 84.181 41.4582C84.1881 41.5342 84.1881 41.6107 84.181 41.6867L81.4863 41.6916ZM83.7783 41.4085C83.779 41.2614 83.7623 41.1146 83.7286 40.9714C83.6935 40.8285 83.6347 40.6925 83.5546 40.5691C83.4712 40.4413 83.3565 40.337 83.2215 40.2661C83.0682 40.1858 82.8973 40.1448 82.7243 40.1468C82.5519 40.1454 82.3816 40.1846 82.2271 40.2611C82.0863 40.3335 81.9626 40.4351 81.8642 40.5591C81.7705 40.6835 81.6952 40.8207 81.6405 40.9664C81.5883 41.1095 81.5516 41.2577 81.5311 41.4085H83.7783Z" fill="white"/>
<path d="M97.3211 39.0343L96.5256 39.4963L96.4362 39.2131L97.3559 38.6667H97.684V43.5545H97.3311L97.3211 39.0343Z" fill="white"/>
<path d="M103.565 43.2862H103.615H103.685C103.83 43.2832 103.975 43.2683 104.117 43.2415C104.527 43.1843 104.903 42.9816 105.176 42.6703C105.354 42.4775 105.496 42.2557 105.599 42.0146C105.72 41.7312 105.801 41.4318 105.837 41.1255H105.813C105.669 41.3238 105.48 41.4846 105.261 41.5944C105.042 41.7042 104.8 41.7598 104.555 41.7564C104.367 41.7631 104.18 41.7273 104.008 41.6516C103.835 41.5759 103.683 41.4623 103.56 41.3192C103.314 41.0306 103.182 40.6607 103.193 40.2811C103.191 40.0595 103.228 39.8393 103.302 39.6304C103.374 39.429 103.482 39.2422 103.62 39.079C103.759 38.9208 103.928 38.7924 104.117 38.7015C104.314 38.6072 104.53 38.5596 104.749 38.5625C104.956 38.5588 105.162 38.6057 105.347 38.6992C105.532 38.7926 105.692 38.9298 105.813 39.0989C106.109 39.5375 106.252 40.0611 106.22 40.5891C106.23 41.0498 106.153 41.5082 105.992 41.9401C105.859 42.2959 105.654 42.6205 105.39 42.8938C105.233 43.0558 105.052 43.1931 104.853 43.3011C104.663 43.4059 104.459 43.4812 104.247 43.5247C104.031 43.5694 103.811 43.5927 103.59 43.5942L103.565 43.2862ZM104.659 38.8804C104.501 38.8772 104.345 38.9116 104.204 38.9807C104.062 39.0498 103.938 39.1516 103.844 39.2777C103.624 39.5612 103.512 39.913 103.526 40.2712C103.509 40.5879 103.618 40.8984 103.829 41.1355C103.929 41.2436 104.052 41.3288 104.188 41.3854C104.325 41.4419 104.472 41.4685 104.619 41.4633C104.859 41.4668 105.094 41.405 105.301 41.2845C105.504 41.1812 105.676 41.0251 105.798 40.8325C105.833 40.7701 105.854 40.7004 105.857 40.6288C105.878 40.187 105.775 39.7482 105.559 39.3622C105.467 39.213 105.337 39.0907 105.183 39.0078C105.028 38.925 104.854 38.8844 104.679 38.8903L104.659 38.8804Z" fill="white"/>
<path d="M110.824 43.2861H110.874H110.943C111.089 43.2831 111.233 43.2681 111.376 43.2414C111.786 43.1842 112.162 42.9814 112.435 42.6702C112.614 42.4787 112.757 42.2566 112.858 42.0145C112.979 41.7311 113.06 41.4316 113.096 41.1254H113.071C112.928 41.3237 112.738 41.4845 112.52 41.5943C112.301 41.7041 112.058 41.7597 111.813 41.7562C111.625 41.763 111.438 41.7271 111.266 41.6515C111.094 41.5758 110.941 41.4622 110.819 41.3191C110.572 41.0305 110.441 40.6606 110.451 40.281C110.449 40.0589 110.488 39.8383 110.566 39.6303C110.633 39.4305 110.738 39.2452 110.874 39.0839C111.011 38.9244 111.18 38.7958 111.371 38.7064C111.569 38.6115 111.787 38.5638 112.007 38.5673C112.214 38.564 112.419 38.6111 112.603 38.7046C112.788 38.7981 112.947 38.9351 113.066 39.1038C113.362 39.5423 113.506 40.066 113.474 40.5939C113.484 41.0547 113.406 41.5131 113.245 41.945C113.114 42.3016 112.909 42.6266 112.644 42.8987C112.488 43.0628 112.307 43.2004 112.107 43.306C111.918 43.4099 111.716 43.4852 111.505 43.5295C111.288 43.574 111.066 43.5973 110.844 43.5991L110.824 43.2861ZM111.918 38.8802C111.76 38.8771 111.604 38.9115 111.462 38.9806C111.32 39.0497 111.197 39.1515 111.103 39.2776C110.885 39.5621 110.772 39.9131 110.784 40.2711C110.77 40.5874 110.879 40.8969 111.088 41.1353C111.189 41.2438 111.312 41.3293 111.45 41.3859C111.587 41.4424 111.735 41.4688 111.883 41.4632C112.122 41.4659 112.357 41.4041 112.564 41.2844C112.768 41.1817 112.94 41.0254 113.061 40.8323C113.097 40.77 113.117 40.7003 113.121 40.6287C113.142 40.1869 113.039 39.7481 112.823 39.3621C112.731 39.2136 112.602 39.0918 112.448 39.009C112.295 38.9262 112.122 38.8852 111.948 38.8902L111.918 38.8802Z" fill="white"/>
<path d="M119.216 38.5874C119.389 38.5794 119.561 38.6056 119.723 38.6645C119.885 38.7233 120.034 38.8136 120.161 38.9301C120.274 39.0352 120.364 39.1629 120.425 39.3049C120.486 39.447 120.516 39.6002 120.514 39.7547C120.512 39.9877 120.443 40.2152 120.315 40.4103C120.145 40.6356 119.914 40.8079 119.649 40.9071V40.9369C119.938 41.0086 120.197 41.1733 120.383 41.4057C120.57 41.6381 120.675 41.9254 120.683 42.2234C120.685 42.4153 120.644 42.6053 120.564 42.7797C120.485 42.9487 120.369 43.0981 120.226 43.2168C120.08 43.3424 119.911 43.4385 119.728 43.4999C119.544 43.5694 119.349 43.6048 119.152 43.6042C118.947 43.6056 118.744 43.572 118.55 43.5049C118.368 43.4464 118.2 43.3537 118.053 43.2317C117.917 43.1191 117.807 42.9785 117.73 42.8194C117.656 42.6641 117.617 42.4946 117.615 42.3227C117.611 42.0319 117.706 41.7482 117.884 41.518C118.084 41.2724 118.345 41.0825 118.64 40.9667V40.9369C118.388 40.8346 118.17 40.6622 118.013 40.4401C117.884 40.2551 117.814 40.035 117.814 39.8093C117.809 39.6398 117.842 39.4712 117.91 39.3157C117.978 39.1603 118.079 39.0218 118.207 38.9102C118.482 38.6705 118.837 38.5444 119.201 38.5576L119.216 38.5874ZM119.162 43.3211C119.47 43.337 119.773 43.2338 120.007 43.033C120.111 42.9415 120.193 42.8281 120.248 42.701C120.303 42.5739 120.33 42.4363 120.325 42.2979C120.332 42.1549 120.308 42.0121 120.255 41.8792C120.202 41.7464 120.121 41.6265 120.017 41.528C119.74 41.3083 119.417 41.1538 119.072 41.0759C118.772 41.1522 118.499 41.3124 118.287 41.5379C118.109 41.7336 118.011 41.9889 118.013 42.2532C118.009 42.395 118.034 42.5362 118.087 42.6679C118.14 42.7995 118.22 42.9188 118.321 43.0181C118.433 43.1225 118.564 43.2031 118.708 43.2552C118.852 43.3073 119.004 43.3297 119.157 43.3211H119.162ZM119.192 38.8804C119.058 38.8731 118.925 38.8926 118.799 38.9378C118.674 38.983 118.559 39.0531 118.461 39.1437C118.374 39.2262 118.306 39.3259 118.261 39.4362C118.216 39.5466 118.194 39.6652 118.197 39.7845C118.191 39.9087 118.212 40.0329 118.259 40.148C118.306 40.2631 118.379 40.3663 118.471 40.4501C118.702 40.6379 118.974 40.7674 119.266 40.8276C119.515 40.7501 119.741 40.6118 119.922 40.4252C120.083 40.2514 120.169 40.0211 120.161 39.7845C120.165 39.5484 120.08 39.3195 119.922 39.1437C119.827 39.0519 119.714 38.981 119.59 38.9356C119.466 38.8903 119.333 38.8715 119.201 38.8804H119.192Z" fill="white"/>
</svg>
