<svg width="121" height="45" viewBox="0 0 121 45" fill="none" xmlns="http://www.w3.org/2000/svg">
<path d="M1.28687 31.8034H0.73999V26.2998H1.28687V31.8034Z" fill="white"/>
<path d="M9.28641 31.8034H8.67489L5.51291 27.0151V31.8034H4.94116V26.2998H5.68691L8.72461 30.9193V26.2998H9.28641V31.8034Z" fill="white"/>
<path d="M15.7496 26.8214H14.5017V31.7886H13.9548V26.8214H12.7119V26.3247H15.7496V26.8214Z" fill="white"/>
<path d="M22.0189 31.8036H20.4379C20.065 31.8198 19.6995 31.6958 19.4137 31.4559C19.2792 31.3291 19.1739 31.1746 19.1052 31.003C19.0365 30.8315 19.0061 30.647 19.016 30.4625V27.6709C19.0061 27.4864 19.0365 27.3019 19.1052 27.1304C19.1739 26.9588 19.2792 26.8043 19.4137 26.6775C19.6995 26.4376 20.065 26.3136 20.4379 26.3298H22.0189V26.8265H20.4329C20.3254 26.8118 20.216 26.8199 20.1118 26.8504C20.0076 26.8809 19.9111 26.933 19.8285 27.0033C19.7458 27.0737 19.679 27.1606 19.6324 27.2586C19.5858 27.3565 19.5604 27.4632 19.5579 27.5716V28.7587H21.4024V29.2853H19.5579V30.5568C19.5639 30.6646 19.5912 30.77 19.6381 30.8672C19.685 30.9644 19.7507 31.0513 19.8314 31.1231C20.0017 31.2568 20.2174 31.3192 20.4329 31.297H22.0189V31.8036Z" fill="white"/>
<path d="M29.0936 28.1031C29.0942 28.5093 28.9456 28.9017 28.676 29.2058C28.4048 29.5021 28.0282 29.6804 27.627 29.7025H27.4728L28.9942 31.749H28.3031L26.4437 29.2654H26.9757C27.3915 29.2877 27.8007 29.1549 28.1241 28.8929C28.259 28.7783 28.3648 28.6336 28.4331 28.4705C28.5013 28.3073 28.5301 28.1304 28.5169 27.9541C28.515 27.7969 28.4809 27.6418 28.4168 27.4983C28.3527 27.3548 28.2598 27.2259 28.144 27.1196C27.8704 26.8785 27.5142 26.7522 27.1497 26.7669H25.9117V31.7341H25.345V26.3099H27.1049C27.6382 26.2798 28.1624 26.4579 28.5666 26.8067C28.745 26.9703 28.8849 27.1715 28.976 27.3957C29.0672 27.6199 29.1073 27.8615 29.0936 28.1031Z" fill="white"/>
<path d="M33.2052 31.8034H32.6533V26.2998H33.2002L33.2052 31.8034Z" fill="white"/>
<path d="M42.6462 29.012C42.651 29.3925 42.5786 29.7699 42.4333 30.1217C42.2881 30.4734 42.073 30.7921 41.801 31.0585C41.5382 31.3331 41.2216 31.5507 40.8709 31.6977C40.5202 31.8446 40.1429 31.9179 39.7626 31.9128C39.3843 31.9176 39.0089 31.8471 38.6581 31.7056C38.3073 31.564 37.9882 31.3542 37.7193 31.0883C37.4437 30.8365 37.2245 30.5293 37.0763 30.1869C36.928 29.8444 36.854 29.4745 36.8592 29.1014C36.8537 28.7227 36.9253 28.3469 37.0697 27.9968C37.2142 27.6467 37.4284 27.3296 37.6994 27.0648C37.96 26.79 38.2748 26.5722 38.6239 26.4251C38.9731 26.2781 39.349 26.205 39.7278 26.2105C40.493 26.2011 41.2309 26.4939 41.7811 27.0251C42.0595 27.275 42.2807 27.5817 42.43 27.9245C42.5792 28.2673 42.653 28.6382 42.6462 29.012ZM42.1192 29.0468C42.1188 28.7405 42.055 28.4377 41.9318 28.1574C41.8085 27.877 41.6286 27.6251 41.4033 27.4175C41.1842 27.2026 40.9246 27.0331 40.6396 26.9189C40.3546 26.8046 40.0498 26.7479 39.7428 26.7519C39.4374 26.7483 39.1345 26.8067 38.8524 26.9237C38.5704 27.0407 38.3151 27.2138 38.1021 27.4324C37.8849 27.6451 37.7123 27.899 37.5945 28.1792C37.4767 28.4594 37.416 28.7602 37.416 29.0641C37.416 29.368 37.4767 29.6689 37.5945 29.9491C37.7123 30.2292 37.8849 30.4831 38.1021 30.6959C38.5436 31.1339 39.1405 31.3797 39.7626 31.3797C40.3848 31.3797 40.9817 31.1339 41.4232 30.6959C41.6445 30.4831 41.819 30.2265 41.9354 29.9426C42.0518 29.6586 42.1077 29.3535 42.0993 29.0468H42.1192Z" fill="white"/>
<path d="M49.9645 28.1031C49.9617 28.5153 49.8058 28.9118 49.527 29.2157C49.2583 29.5126 48.883 29.6912 48.483 29.7125H48.3239L49.8502 31.7589H49.174L47.3097 29.2753H47.8466C48.2624 29.2976 48.6716 29.1649 48.995 28.9028C49.1299 28.7883 49.2358 28.6436 49.304 28.4804C49.3723 28.3173 49.401 28.1403 49.3878 27.964C49.3859 27.8069 49.3518 27.6518 49.2877 27.5083C49.2236 27.3647 49.1308 27.2359 49.0149 27.1295C48.741 26.8889 48.3851 26.7626 48.0206 26.7769H46.7926V31.744H46.2258V26.3099H47.9858C48.5191 26.2798 49.0432 26.4579 49.4475 26.8067C49.6241 26.9712 49.7621 27.1728 49.8515 27.397C49.9409 27.6211 49.9795 27.8623 49.9645 28.1031Z" fill="white"/>
<path d="M63.438 30.2835C63.441 30.4989 63.3982 30.7126 63.3125 30.9104C63.2268 31.1082 63.1001 31.2856 62.9408 31.4309C62.6277 31.7323 62.2098 31.9007 61.775 31.9007C61.3401 31.9007 60.9222 31.7323 60.6091 31.4309C60.4496 31.2784 60.3231 31.0947 60.2376 30.8914C60.1521 30.688 60.1093 30.4693 60.1119 30.2487H60.6886C60.6843 30.3935 60.7094 30.5377 60.7624 30.6726C60.8154 30.8075 60.8951 30.9303 60.9969 31.0335C61.0926 31.139 61.2092 31.2235 61.3392 31.2816C61.4693 31.3398 61.6101 31.3703 61.7526 31.3713C61.8995 31.3757 62.0458 31.3503 62.1825 31.2965C62.3193 31.2427 62.4436 31.1617 62.5481 31.0583C62.6547 30.9572 62.7384 30.8344 62.7933 30.6981C62.8482 30.5618 62.8731 30.4153 62.8662 30.2686C62.8662 29.7619 62.5348 29.4043 61.8719 29.1956L61.2902 29.0168C61.001 28.9337 60.7465 28.7595 60.5644 28.5201C60.392 28.2704 60.3001 27.974 60.3009 27.6707C60.2953 27.4758 60.333 27.2821 60.4112 27.1035C60.4894 26.9249 60.6062 26.7657 60.7533 26.6375C60.8958 26.4988 61.0647 26.39 61.25 26.3175C61.4353 26.245 61.6332 26.2102 61.8321 26.2153C62.0276 26.2142 62.2211 26.2533 62.4008 26.3302C62.5804 26.4071 62.7422 26.5202 62.8762 26.6624C63.016 26.8004 63.1264 26.9654 63.2007 27.1472C63.2751 27.329 63.3118 27.524 63.3087 27.7204H62.727C62.7322 27.5973 62.7124 27.4745 62.6688 27.3592C62.6252 27.244 62.5588 27.1388 62.4735 27.0498C62.3935 26.9589 62.2958 26.8852 62.1864 26.8331C62.077 26.781 61.9582 26.7517 61.8371 26.7468C61.7083 26.7388 61.5792 26.7581 61.4584 26.8035C61.3376 26.8489 61.2277 26.9193 61.1361 27.0101C61.0399 27.0935 60.964 27.1976 60.9141 27.3147C60.8641 27.4317 60.8414 27.5585 60.8477 27.6856C60.8377 27.8766 60.8949 28.065 61.0093 28.2183C61.1237 28.3716 61.2881 28.4801 61.4742 28.5251L62.1404 28.7337C62.5042 28.7989 62.8336 28.9899 63.0708 29.2732C63.308 29.5565 63.438 29.9141 63.438 30.2835Z" fill="white"/>
<path d="M72.5062 29.012C72.5112 29.3929 72.4384 29.7709 72.2922 30.1228C72.146 30.4746 71.9295 30.793 71.656 31.0585C71.3941 31.3329 71.0783 31.5505 70.7285 31.6975C70.3786 31.8445 70.0021 31.9178 69.6226 31.9128C69.2442 31.9184 68.8685 31.8483 68.5176 31.7067C68.1666 31.5651 67.8476 31.3548 67.5792 31.0883C67.3019 30.8376 67.0813 30.5307 66.9322 30.1881C66.783 29.8454 66.7087 29.475 66.7141 29.1014C66.7098 28.7229 66.7819 28.3474 66.9263 27.9975C67.0707 27.6475 67.2843 27.3303 67.5544 27.0648C67.8149 26.79 68.1298 26.5722 68.4789 26.4251C68.8281 26.2781 69.2039 26.205 69.5828 26.2105C70.3481 26.2 71.0865 26.4929 71.6361 27.0251C71.9151 27.2747 72.1371 27.5813 72.2872 27.9241C72.4373 28.2669 72.512 28.6379 72.5062 29.012ZM71.9742 29.0467C71.9735 28.741 71.91 28.4387 71.7878 28.1585C71.6655 27.8783 71.487 27.6261 71.2632 27.4175C71.0432 27.2024 70.7828 27.0329 70.497 26.9187C70.2111 26.8045 69.9055 26.7478 69.5977 26.7519C69.2932 26.749 68.9912 26.8077 68.7101 26.9247C68.4289 27.0417 68.1745 27.2144 67.962 27.4324C67.7436 27.6444 67.5699 27.8981 67.4514 28.1784C67.3328 28.4587 67.2717 28.7599 67.2717 29.0641C67.2717 29.3684 67.3328 29.6696 67.4514 29.9499C67.5699 30.2302 67.7436 30.4838 67.962 30.6959C68.4027 31.1336 68.9987 31.3792 69.6201 31.3792C70.2414 31.3792 70.8375 31.1336 71.2782 30.6959C71.5031 30.4848 71.6812 30.2291 71.8011 29.945C71.921 29.661 71.98 29.355 71.9742 29.0467Z" fill="white"/>
<path d="M79.0837 31.8034H77.5027C77.1281 31.8209 76.7606 31.6968 76.4735 31.4557C76.3384 31.3294 76.2328 31.1749 76.1641 31.0032C76.0953 30.8316 76.0652 30.6469 76.0758 30.4623V26.3147H76.6177V30.5567C76.6233 30.6638 76.6504 30.7687 76.6974 30.8651C76.7443 30.9615 76.8102 31.0475 76.8912 31.118C77.0635 31.2515 77.2807 31.3138 77.4977 31.2918H79.0837V31.8034Z" fill="white"/>
<path d="M85.6264 30.0204C85.6328 30.2719 85.5866 30.522 85.4907 30.7546C85.3948 30.9873 85.2514 31.1974 85.0696 31.3715C84.8958 31.5493 84.6864 31.6886 84.4551 31.7802C84.2238 31.8718 83.9758 31.9136 83.7272 31.903C83.4844 31.9063 83.2436 31.859 83.0202 31.7641C82.7968 31.6691 82.5956 31.5286 82.4296 31.3516C82.2546 31.1727 82.1173 30.9605 82.0259 30.7275C81.9345 30.4946 81.8909 30.2457 81.8977 29.9956V26.295H82.4396V29.9012C82.4278 30.2849 82.5609 30.659 82.8124 30.9493C82.929 31.0864 83.0748 31.1959 83.239 31.2698C83.4033 31.3437 83.5819 31.3801 83.762 31.3764C83.9366 31.38 84.11 31.3469 84.271 31.2793C84.4321 31.2118 84.5771 31.1111 84.6967 30.984C84.8255 30.8537 84.926 30.6982 84.9918 30.5272C85.0577 30.3563 85.0876 30.1736 85.0795 29.9906V26.2751H85.6264V30.0204Z" fill="white"/>
<path d="M92.0697 26.8214H90.8218V31.7886H90.2749V26.8214H89.032V26.3247H92.0697V26.8214Z" fill="white"/>
<path d="M96.052 31.8034H95.5051V26.2998H96.052V31.8034Z" fill="white"/>
<path d="M105.493 29.012C105.498 29.3925 105.426 29.7699 105.28 30.1217C105.135 30.4734 104.92 30.7921 104.648 31.0585C104.385 31.3331 104.069 31.5507 103.718 31.6977C103.367 31.8446 102.99 31.9179 102.61 31.9128C102.232 31.9176 101.856 31.8471 101.505 31.7056C101.154 31.564 100.835 31.3542 100.566 31.0883C100.291 30.8365 100.072 30.5293 99.9234 30.1869C99.7752 29.8444 99.7012 29.4745 99.7064 29.1014C99.7008 28.7227 99.7725 28.3469 99.9169 27.9968C100.061 27.6467 100.276 27.3296 100.547 27.0648C100.807 26.79 101.122 26.5722 101.471 26.4251C101.82 26.2781 102.196 26.205 102.575 26.2105C103.34 26.2011 104.078 26.4939 104.628 27.0251C104.907 27.275 105.128 27.5817 105.277 27.9245C105.426 28.2673 105.5 28.6382 105.493 29.012ZM104.966 29.0468C104.964 28.7403 104.899 28.4376 104.775 28.1573C104.651 27.877 104.471 27.6252 104.245 27.4175C103.8 26.984 103.201 26.7447 102.58 26.7519C102.275 26.7483 101.972 26.8067 101.69 26.9237C101.408 27.0407 101.152 27.2138 100.939 27.4324C100.722 27.6451 100.55 27.899 100.432 28.1792C100.314 28.4594 100.253 28.7602 100.253 29.0641C100.253 29.368 100.314 29.6689 100.432 29.9491C100.55 30.2292 100.722 30.4831 100.939 30.6959C101.381 31.1339 101.978 31.3797 102.6 31.3797C103.222 31.3797 103.819 31.1339 104.26 30.6959C104.487 30.4857 104.667 30.2303 104.789 29.9462C104.91 29.6622 104.971 29.3557 104.966 29.0468Z" fill="white"/>
<path d="M113.413 31.8034H112.802L109.635 27.0151V31.8034H109.063V26.2998H109.809L112.851 30.9193V26.2998H113.413V31.8034Z" fill="white"/>
<path d="M120.204 30.2836C120.207 30.4991 120.165 30.7128 120.079 30.9106C119.993 31.1084 119.866 31.2857 119.707 31.431C119.476 31.6628 119.18 31.8204 118.859 31.8839C118.538 31.9475 118.205 31.914 117.902 31.7877C117.6 31.6615 117.342 31.4482 117.161 31.175C116.981 30.9018 116.886 30.5812 116.888 30.2538H117.465C117.46 30.3983 117.484 30.5424 117.536 30.6773C117.588 30.8122 117.667 30.9351 117.768 31.0386C117.865 31.1438 117.983 31.228 118.114 31.2861C118.244 31.3442 118.386 31.3749 118.529 31.3764C118.676 31.3808 118.822 31.3554 118.959 31.3016C119.096 31.2478 119.22 31.1668 119.324 31.0635C119.431 30.9624 119.515 30.8395 119.57 30.7032C119.624 30.5669 119.649 30.4204 119.643 30.2737C119.643 29.767 119.311 29.4094 118.648 29.2008L118.062 29.0219C117.774 28.9375 117.522 28.7635 117.341 28.5252C117.168 28.2755 117.076 27.9792 117.077 27.6758C117.072 27.4809 117.109 27.2872 117.188 27.1086C117.266 26.93 117.383 26.7709 117.53 26.6427C117.672 26.5039 117.841 26.3951 118.026 26.3226C118.212 26.2501 118.41 26.2154 118.608 26.2205C118.804 26.2193 118.997 26.2584 119.177 26.3353C119.357 26.4122 119.519 26.5253 119.652 26.6675C119.792 26.8056 119.903 26.9705 119.977 27.1523C120.051 27.3341 120.088 27.5291 120.085 27.7255H119.503C119.508 27.6024 119.489 27.4796 119.445 27.3644C119.402 27.2491 119.335 27.1439 119.25 27.0549C119.166 26.9626 119.064 26.8882 118.951 26.836C118.837 26.7839 118.714 26.7551 118.59 26.7514C118.465 26.7477 118.34 26.7691 118.224 26.8144C118.108 26.8598 118.002 26.928 117.912 27.0152C117.816 27.0991 117.74 27.2032 117.69 27.32C117.639 27.4368 117.615 27.5635 117.619 27.6907C117.611 27.882 117.67 28.07 117.785 28.223C117.9 28.376 118.064 28.4845 118.25 28.5302L118.917 28.7388C119.278 28.806 119.604 28.9971 119.839 29.2792C120.074 29.5613 120.204 29.9165 120.204 30.2836Z" fill="white"/>
<path d="M0.188232 35.2607H119.866" stroke="#B1B3B5" stroke-width="0.71" stroke-miterlimit="10"/>
<path d="M3.61374 15.3919C3.41228 15.2172 3.24747 15.0044 3.12886 14.7656C3.01024 14.5269 2.94016 14.2671 2.92268 14.0011V0.79834H0.392094V13.713C0.355884 14.3389 0.458807 14.965 0.693474 15.5464C0.92814 16.1278 1.28873 16.6501 1.74936 17.0758C2.69103 17.8865 3.90252 18.3154 5.14501 18.2779H10.3454V15.7943H5.12513C4.5894 15.8449 4.05325 15.7021 3.61374 15.3919Z" fill="#F6921E"/>
<path d="M20.776 6.90791C20.1725 6.25911 19.4449 5.73795 18.6362 5.37532C17.8274 5.0127 16.954 4.81599 16.0678 4.79686H15.7794C14.9164 4.78956 14.0612 4.95952 13.2667 5.29617C12.4721 5.63283 11.7553 6.12901 11.1607 6.75393C10.5033 7.39398 9.98274 8.16073 9.63065 9.00772C9.27856 9.85471 9.10225 10.7643 9.11241 11.6814C9.1007 12.5607 9.26288 13.4337 9.58964 14.2503C9.9164 15.0669 10.4013 15.811 11.0166 16.4399C11.605 17.081 12.317 17.5967 13.1098 17.956C13.9026 18.3153 14.7599 18.511 15.6303 18.5311H15.859C17.4164 18.5482 18.9252 17.9892 20.0948 16.9615V18.2778H22.6204V11.6714C22.659 10.7932 22.5151 9.91652 22.1976 9.09666C21.8801 8.27679 21.3961 7.53154 20.776 6.90791ZM15.9037 16.0575H15.7048C15.1512 16.036 14.608 15.9005 14.1092 15.6595C13.6104 15.4185 13.1669 15.0771 12.8064 14.6567C12.4143 14.2463 12.1088 13.7613 11.9081 13.2305C11.7074 12.6997 11.6155 12.1341 11.638 11.5671C11.6312 11.0019 11.7407 10.4413 11.9596 9.92014C12.1785 9.39894 12.5023 8.92821 12.9108 8.53714C13.3021 8.13022 13.7737 7.80886 14.2957 7.5934C14.8177 7.37794 15.3788 7.27306 15.9435 7.28541C16.4865 7.27745 17.0251 7.38443 17.5238 7.59932C18.0225 7.8142 18.4701 8.13212 18.837 8.53218C19.6354 9.33378 20.0871 10.4164 20.0948 11.5473C20.1186 12.1479 20.0178 12.747 19.7987 13.3069C19.5797 13.8668 19.2472 14.3754 18.8221 14.8008C18.4523 15.2045 18.0009 15.5253 17.4979 15.7419C16.9948 15.9586 16.4515 16.0661 15.9037 16.0575Z" fill="#F6921E"/>
<path d="M31.1618 4.79189H30.8735C29.3726 4.81794 27.929 5.37198 26.7967 6.35655V0.773438H24.2761V11.6466C24.2627 13.4474 24.9612 15.1808 26.2199 16.4699C27.4785 17.759 29.1955 18.4998 30.9978 18.5311H31.2314C32.1091 18.5153 32.9744 18.3218 33.7751 17.9623C34.5758 17.6029 35.2952 17.085 35.8899 16.4399C36.5072 15.8122 36.9937 15.0684 37.3214 14.2517C37.6491 13.4349 37.8114 12.5613 37.799 11.6814C37.8075 10.7656 37.6299 9.85757 37.2769 9.01232C36.924 8.16708 36.4031 7.40216 35.7457 6.76386C35.1553 6.14192 34.4445 5.64639 33.6565 5.30739C32.8685 4.9684 32.0198 4.79301 31.1618 4.79189ZM31.0027 16.0575C30.4511 16.0677 29.9036 15.9611 29.3962 15.7444C28.8889 15.5278 28.4333 15.2062 28.0595 14.8008C27.2485 13.9625 26.7951 12.8423 26.7951 11.6764C26.7951 10.5105 27.2485 9.39028 28.0595 8.55205C28.4278 8.15098 28.8769 7.83249 29.3774 7.61758C29.8779 7.40267 30.4183 7.29623 30.963 7.30529C31.5266 7.29283 32.0867 7.39818 32.6072 7.61459C33.1278 7.831 33.5973 8.15369 33.9857 8.56198C34.391 8.95551 34.714 9.42558 34.9359 9.94488C35.1578 10.4642 35.2742 11.0224 35.2784 11.587C35.3058 12.7376 34.879 13.8528 34.0902 14.6915C33.7225 15.108 33.2725 15.4439 32.7685 15.6781C32.2646 15.9124 31.7175 16.0398 31.1618 16.0525L31.0027 16.0575Z" fill="#F6921E"/>
<path d="M45.1421 4.90117H44.8389C43.6779 4.94197 42.5673 5.38443 41.6968 6.1529V0.773438H39.1711V18.2778H41.6968V10.5389C41.6829 10.1156 41.7596 9.69412 41.9216 9.30269C42.0836 8.91127 42.3273 8.55885 42.6364 8.26892C43.2645 7.66403 44.1057 7.33037 44.9781 7.34005H45.0825C45.5076 7.34138 45.9279 7.43029 46.3172 7.60122C46.7064 7.77215 47.0561 8.02143 47.3446 8.33349C47.6717 8.63167 47.9321 8.99558 48.1086 9.40134C48.2851 9.8071 48.3737 10.2455 48.3687 10.6879V18.2778H50.8944V10.827C50.9077 10.0265 50.7567 9.23182 50.4505 8.49196C50.1444 7.7521 49.6897 7.08281 49.1145 6.52543C48.5938 6.00424 47.9743 5.59212 47.2922 5.31321C46.6101 5.0343 45.8791 4.89422 45.1421 4.90117Z" fill="#F6921E"/>
<path d="M62.4335 6.41643C61.2969 5.45019 59.8636 4.90157 58.3717 4.86171H58.138C57.2683 4.8574 56.407 5.03153 55.6074 5.37329C54.8078 5.71505 54.087 6.21718 53.4895 6.84858C52.2096 8.12739 51.4786 9.85408 51.4517 11.6624C51.4248 13.4707 52.104 15.2183 53.3453 16.5346C53.9364 17.1801 54.6541 17.6972 55.4538 18.0535C56.2536 18.4099 57.1182 18.5979 57.9938 18.6059C58.0733 18.6108 58.153 18.6108 58.2325 18.6059C60.0347 18.581 61.754 17.8456 63.0159 16.5597C64.2777 15.2739 64.9798 13.542 64.9691 11.7412V0.858154H62.4335V6.41643ZM58.3071 16.1173H58.0585C57.5037 16.1046 56.9579 15.975 56.4567 15.7371C55.9555 15.4991 55.5103 15.1582 55.15 14.7365C54.7606 14.323 54.4565 13.8368 54.2552 13.3058C54.0539 12.7749 53.9592 12.2094 53.9767 11.6419C53.9724 11.0717 54.0838 10.5066 54.3043 9.98071C54.5248 9.4548 54.8497 8.97901 55.2594 8.58212C55.6429 8.17933 56.1063 7.86086 56.6199 7.64705C57.1335 7.43323 57.6861 7.32877 58.2424 7.34033H58.3021C58.8465 7.33133 59.3866 7.43831 59.8863 7.65415C60.3861 7.86998 60.8341 8.18972 61.2006 8.59206C61.997 9.40264 62.4464 10.4911 62.4534 11.627C62.4786 12.2216 62.3803 12.815 62.1647 13.3699C61.9491 13.9247 61.6208 14.4289 61.2006 14.8507C60.8383 15.2579 60.3921 15.582 59.8927 15.8006C59.3932 16.0193 58.8523 16.1273 58.3071 16.1173Z" fill="#F6921E"/>
<path d="M78.3132 6.90812C77.7114 6.25984 76.9855 5.73893 76.1785 5.37629C75.3714 5.01365 74.4996 4.81668 73.6149 4.79707H73.3166C72.453 4.79027 71.5971 4.96043 70.8019 5.29704C70.0066 5.63365 69.2889 6.12956 68.693 6.75414C68.0387 7.39608 67.5209 8.1634 67.1707 9.0101C66.8204 9.85681 66.6449 10.7655 66.6546 11.6816C66.6321 13.4555 67.3131 15.1662 68.5488 16.4401C69.1384 17.0824 69.852 17.5988 70.6466 17.9581C71.4412 18.3175 72.3004 18.5125 73.1725 18.5313H73.421C74.9771 18.5486 76.4843 17.9895 77.6519 16.9617V18.278H80.1775V11.6716C80.2135 10.792 80.0664 9.91442 79.7455 9.09448C79.4246 8.27454 78.9369 7.53006 78.3132 6.90812ZM73.421 16.0577H73.2271C72.6728 16.036 72.1289 15.9005 71.6294 15.6595C71.1298 15.4185 70.6854 15.0772 70.3237 14.6569C69.9334 14.2454 69.6294 13.7601 69.4297 13.2295C69.2299 12.6989 69.1383 12.1338 69.1603 11.5673C69.1533 11.0017 69.2631 10.4406 69.4829 9.91923C69.7028 9.39788 70.0279 8.92745 70.438 8.53736C70.828 8.13008 71.2987 7.80843 71.82 7.59292C72.3413 7.37741 72.9018 7.27275 73.4658 7.28563C74.0094 7.27853 74.5485 7.38588 75.0479 7.60069C75.5473 7.8155 75.9958 8.13295 76.3643 8.53239C77.1719 9.37241 77.6229 10.492 77.6229 11.6567C77.6229 12.8215 77.1719 13.9411 76.3643 14.7811C75.9919 15.1896 75.537 15.5146 75.0297 15.7347C74.5223 15.9547 73.9741 16.0648 73.421 16.0577Z" fill="#F6921E"/>
<path d="M89.9468 5.10498L86.0987 14.1403L82.4644 5.10498H79.73L84.6022 17.4286L82.5837 22.5348H85.2883L92.6116 5.10498H89.9468Z" fill="#F6921E"/>
<path d="M103.569 6.90791C102.969 6.25933 102.244 5.73817 101.438 5.37548C100.631 5.0128 99.7601 4.81601 98.8761 4.79686H98.5778C97.714 4.78948 96.858 4.95936 96.0626 5.29601C95.2673 5.63265 94.5496 6.12887 93.9541 6.75393C93.2976 7.39469 92.7776 8.16157 92.4256 9.00839C92.0736 9.85522 91.8968 10.7645 91.9058 11.6814C91.8843 13.457 92.5692 15.1685 93.8099 16.4399C94.3995 17.0822 95.1131 17.5985 95.9077 17.9579C96.7023 18.3173 97.5615 18.5123 98.4336 18.5311H98.6573C100.215 18.5492 101.724 17.99 102.893 16.9615V18.2778H105.419V11.6714C105.456 10.7929 105.312 9.91607 104.993 9.09623C104.675 8.27639 104.19 7.5313 103.569 6.90791ZM98.6971 16.0575H98.4982C97.9452 16.0362 97.4027 15.9008 96.9047 15.6598C96.4067 15.4187 95.964 15.0772 95.6047 14.6567C95.2126 14.2463 94.9071 13.7613 94.7064 13.2305C94.5057 12.6997 94.4139 12.1341 94.4364 11.5671C94.4319 11.0023 94.5424 10.4424 94.7612 9.92152C94.98 9.40065 95.3025 8.92965 95.7091 8.53715C96.1004 8.13022 96.572 7.80886 97.094 7.5934C97.616 7.37794 98.1771 7.27307 98.7418 7.28542C99.2848 7.27808 99.8232 7.38535 100.322 7.60019C100.82 7.81504 101.268 8.13263 101.635 8.53218C102.436 9.33227 102.888 10.4159 102.893 11.5473C102.914 12.1451 102.812 12.7409 102.592 13.2973C102.372 13.8537 102.04 14.3588 101.615 14.7809C101.248 15.1895 100.798 15.5149 100.295 15.7351C99.7913 15.9553 99.2465 16.0652 98.6971 16.0575Z" fill="#F6921E"/>
<path d="M109.744 0.718994H107.094V18.2531H109.744V0.718994Z" fill="#F6921E"/>
<path fill-rule="evenodd" clip-rule="evenodd" d="M110.589 13.3702V13.3106C110.461 12.909 110.37 12.4967 110.316 12.0788C110.286 11.8453 110.261 11.6069 110.236 11.3685C110.199 10.9952 110.199 10.6192 110.236 10.2459C110.263 9.98294 110.317 9.72336 110.395 9.471C110.445 9.32198 110.49 9.17296 110.549 9.03388C110.634 8.8302 110.735 8.63411 110.853 8.44776C111.022 8.15628 111.226 7.88612 111.459 7.64307C111.708 7.38731 111.981 7.1561 112.275 6.95263C112.547 6.76378 112.835 6.59765 113.135 6.45591C113.318 6.35614 113.507 6.26821 113.701 6.19265C114.025 6.07344 114.353 5.94926 114.671 5.85985C114.989 5.77044 115.208 5.7307 115.476 5.6711L116.148 5.55189C116.169 5.54747 116.191 5.54747 116.212 5.55189C116.111 5.5868 116.013 5.62999 115.919 5.68103C115.765 5.74064 115.621 5.81018 115.476 5.87972C115.178 6.02377 114.875 6.16781 114.581 6.3218C114.288 6.47578 113.935 6.67943 113.622 6.87315C113.309 7.06687 113.035 7.27053 112.747 7.48412C112.383 7.75898 112.05 8.07204 111.753 8.41795C111.563 8.62654 111.397 8.85466 111.255 9.09846C111.08 9.36679 110.967 9.67036 110.922 9.98758V10.0323C111.051 10.0873 111.184 10.1322 111.32 10.1664C111.6 10.2333 111.888 10.26 112.175 10.2459C112.511 10.2394 112.844 10.1944 113.17 10.1118C113.495 10.0326 113.813 9.92454 114.119 9.7889C114.373 9.66968 114.616 9.52563 114.88 9.39648C115.146 9.25311 115.398 9.08691 115.635 8.89977C116.307 8.36309 116.881 7.71442 117.331 6.98243C117.475 6.74401 117.609 6.51055 117.739 6.26219C117.868 6.01383 117.932 5.87475 118.022 5.68103C118.067 5.57672 118.116 5.48234 118.151 5.383C118.256 5.11974 118.35 4.86145 118.435 4.60316C118.519 4.34486 118.633 4.00709 118.708 3.71403C118.783 3.42096 118.852 2.98386 118.927 2.62622C118.783 2.73053 118.648 2.84477 118.504 2.93418C118.261 3.09313 118.007 3.25208 117.748 3.39613C117.448 3.56734 117.132 3.70876 116.804 3.81834C116.585 3.89285 116.356 3.96239 116.138 4.02696C115.919 4.09154 115.745 4.12134 115.551 4.16108C115.248 4.22068 114.939 4.26042 114.631 4.31506C114.323 4.3697 114.04 4.41937 113.746 4.48394C113.611 4.51044 113.478 4.54697 113.349 4.59322C113.13 4.6727 112.916 4.74721 112.702 4.84655C112.488 4.94589 112.324 5.04523 112.14 5.15948C111.857 5.33956 111.595 5.55119 111.36 5.79031C111.093 6.04709 110.86 6.3357 110.664 6.64963C110.544 6.84335 110.445 7.03707 110.346 7.23079C110.246 7.42451 110.172 7.64307 110.087 7.84673C110.003 8.05038 109.978 8.20437 109.928 8.37822C109.868 8.63154 109.809 8.87493 109.774 9.14316C109.733 9.41972 109.706 9.69827 109.694 9.97764C109.694 10.2608 109.694 10.5389 109.694 10.8221C109.694 11.1052 109.744 11.3188 109.774 11.5473C109.827 11.876 109.922 12.1966 110.057 12.501C110.192 12.7966 110.358 13.0765 110.554 13.3355C110.554 13.3355 110.574 13.3553 110.589 13.3702Z" fill="#F6921E"/>
<path fill-rule="evenodd" clip-rule="evenodd" d="M105.986 11.9993H106.035C106.493 11.7176 106.976 11.4782 107.477 11.284C107.756 11.1698 108.039 11.0555 108.322 10.9512C108.774 10.7917 109.24 10.6769 109.714 10.6085C110.043 10.5577 110.376 10.5378 110.709 10.5489C110.898 10.549 111.087 10.5589 111.275 10.5787C111.541 10.6096 111.804 10.6628 112.061 10.7376C112.447 10.8438 112.821 10.992 113.175 11.1797C113.542 11.385 113.889 11.6263 114.209 11.8999C114.502 12.1525 114.774 12.4301 115.019 12.7295C115.181 12.9122 115.333 13.1046 115.472 13.3057C115.695 13.6484 115.909 13.9762 116.098 14.2991C116.253 14.5826 116.393 14.8744 116.516 15.1733C116.62 15.4167 116.71 15.67 116.804 15.9085C116.813 15.9324 116.813 15.959 116.804 15.983C116.729 15.8936 116.66 15.7843 116.585 15.6899C116.511 15.5955 116.352 15.3869 116.232 15.2429C115.984 14.9399 115.735 14.6369 115.486 14.3488C115.238 14.0607 114.91 13.7179 114.597 13.4249C114.295 13.1345 113.978 12.8609 113.647 12.6053C113.223 12.2689 112.764 11.9776 112.28 11.736C111.976 11.5853 111.658 11.4654 111.33 11.3784C110.954 11.2716 110.56 11.2412 110.172 11.289C110.158 11.2892 110.145 11.293 110.134 11.3C110.123 11.307 110.113 11.3169 110.107 11.3287C110.082 11.4976 110.047 11.6615 110.038 11.8254C110.021 12.1695 110.055 12.5142 110.137 12.8487C110.222 13.2247 110.354 13.5886 110.53 13.9315C110.698 14.2843 110.905 14.6174 111.146 14.925C111.35 15.1783 111.574 15.4217 111.793 15.6849C112.028 15.9476 112.292 16.1841 112.578 16.3903C112.904 16.6424 113.252 16.8652 113.617 17.0559C114.156 17.3379 114.723 17.5642 115.307 17.7314C115.626 17.8158 115.949 17.8953 116.272 17.9698C116.595 18.0443 116.799 18.0592 117.058 18.099C117.188 18.1293 117.321 18.1476 117.455 18.1536C117.793 18.1884 118.131 18.2232 118.474 18.2331C118.817 18.243 119.24 18.2679 119.618 18.2331C120.08 18.2331 120.533 18.1636 121 18.1338C120.839 18.0125 120.685 17.8832 120.538 17.7463C120.279 17.5079 120.041 17.2496 119.787 17.0161C119.517 16.7203 119.275 16.3993 119.066 16.0575C118.917 15.8319 118.781 15.5981 118.658 15.3571C118.549 15.1435 118.455 14.9349 118.365 14.7213C118.221 14.3835 118.092 14.0408 117.957 13.7279C117.823 13.4149 117.694 13.0772 117.56 12.7344C117.49 12.5884 117.41 12.4473 117.321 12.3122C117.181 12.082 117.028 11.8598 116.864 11.6466C116.712 11.4505 116.546 11.2661 116.366 11.0953C116.082 10.8238 115.767 10.5871 115.427 10.3899C115.042 10.176 114.633 10.0092 114.209 9.89319C113.95 9.82365 113.687 9.75908 113.418 9.71438C113.153 9.66824 112.886 9.63674 112.618 9.62001C112.388 9.60518 112.157 9.60518 111.927 9.62001C111.599 9.62001 111.275 9.62 110.932 9.68457C110.589 9.74915 110.241 9.79386 109.903 9.86837C109.565 9.94287 109.212 10.0422 108.879 10.1565C108.546 10.2707 108.292 10.375 108.009 10.4942C107.612 10.6616 107.238 10.8786 106.895 11.14C106.567 11.3842 106.263 11.6586 105.986 11.9595C105.986 11.9595 106.001 11.9794 105.986 11.9993Z" fill="#F6921E"/>
<path d="M1.26708 39.6963V40.491H2.29125V40.7841H1.26708V43.1137C1.25421 43.3056 1.29739 43.4972 1.39138 43.6651C1.43505 43.7288 1.49487 43.7799 1.56474 43.8131C1.63461 43.8462 1.71203 43.8603 1.78911 43.8538C1.92867 43.8572 2.06791 43.8388 2.20176 43.7992L2.2465 44.0724C2.08865 44.1359 1.91944 44.1663 1.74934 44.1618C1.63399 44.1698 1.51834 44.1512 1.41141 44.1072C1.30447 44.0633 1.20914 43.9953 1.13285 43.9085C1.04934 43.8059 0.991405 43.6851 0.963811 43.5558C0.927138 43.3928 0.908797 43.2262 0.909124 43.0591V40.7891H0.297607V40.496H0.904151V39.8354L1.26708 39.6963Z" fill="white"/>
<path d="M6.68626 41.569C6.68626 41.1567 6.68626 40.7991 6.65643 40.4911H6.98953V41.2163C7.06286 40.9894 7.19904 40.7879 7.38229 40.6351C7.55923 40.491 7.78042 40.4121 8.00872 40.4116H8.15787V40.7444H7.97889C7.86225 40.7443 7.74692 40.7691 7.64062 40.8171C7.53431 40.865 7.43946 40.9351 7.36241 41.0226C7.1861 41.2281 7.07226 41.4798 7.03428 41.7478C7.01268 41.8607 7.00269 41.9756 7.00445 42.0905V44.0774H6.64648L6.68626 41.569Z" fill="white"/>
<path d="M15.2525 43.2132C15.2525 43.5509 15.2525 43.844 15.2823 44.0874H14.9442V43.4466C14.8205 43.6494 14.65 43.8197 14.4471 43.9433C14.2216 44.0871 13.9588 44.1614 13.6914 44.1569C13.5471 44.1639 13.4026 44.1471 13.2638 44.1072C13.1161 44.0595 12.9815 43.9778 12.8711 43.8688C12.7308 43.7296 12.6252 43.5595 12.5628 43.3721C12.4765 43.1146 12.4361 42.8439 12.4435 42.5724V40.4812H12.8014V42.5028C12.782 42.8483 12.8594 43.1924 13.0252 43.4963C13.1041 43.6152 13.2136 43.7107 13.3422 43.7727C13.4708 43.8348 13.6137 43.8611 13.756 43.849C13.991 43.853 14.2204 43.7778 14.4073 43.6354C14.5864 43.5092 14.7288 43.3378 14.8199 43.1386C14.8643 43.0108 14.8878 42.8766 14.8896 42.7413V40.5011H15.2525V43.2132Z" fill="white"/>
<path d="M19.9107 43.6105C20.0293 43.6832 20.1562 43.7416 20.2886 43.7844C20.4276 43.8328 20.574 43.8563 20.7211 43.8539C20.9468 43.8694 21.1701 43.8003 21.3476 43.6602C21.417 43.5978 21.4721 43.521 21.509 43.4353C21.5459 43.3495 21.5638 43.2568 21.5613 43.1635C21.5656 43.0768 21.5519 42.9901 21.5211 42.9089C21.4903 42.8277 21.4431 42.7537 21.3824 42.6916C21.2128 42.5415 21.0151 42.4267 20.8007 42.3538C20.1941 42.1104 19.8859 41.7826 19.8859 41.3604C19.884 41.2296 19.91 41.0999 19.9623 40.98C20.0146 40.86 20.092 40.7527 20.1891 40.665C20.4112 40.4711 20.7001 40.3713 20.9946 40.3868C21.1458 40.3851 21.2965 40.4051 21.442 40.4464C21.5653 40.484 21.6826 40.5392 21.79 40.6103L21.6558 40.9034C21.5629 40.8374 21.4607 40.7855 21.3525 40.7494C21.2184 40.7027 21.0769 40.6808 20.9349 40.6849C20.7523 40.6779 20.574 40.742 20.4377 40.8637C20.3779 40.9205 20.3306 40.9891 20.299 41.0653C20.2673 41.1414 20.2519 41.2233 20.2538 41.3057C20.2489 41.3842 20.2616 41.4628 20.2908 41.5358C20.3201 41.6088 20.3651 41.6745 20.4228 41.728C20.5945 41.8647 20.7877 41.9722 20.9946 42.0459C21.2569 42.1372 21.4962 42.2847 21.6956 42.478C21.853 42.6513 21.9353 42.88 21.9243 43.1138C21.929 43.2546 21.902 43.3947 21.8452 43.5237C21.7884 43.6527 21.7033 43.7673 21.5961 43.8589C21.3477 44.0622 21.0319 44.165 20.7112 44.147C20.5431 44.1462 20.3759 44.1228 20.214 44.0774C20.067 44.038 19.9264 43.9778 19.7964 43.8986L19.9107 43.6105Z" fill="white"/>
<path d="M26.9508 39.6963V40.491H27.98V40.7841H26.9508V43.1137C26.938 43.3056 26.9811 43.4972 27.0751 43.6651C27.1203 43.7285 27.1811 43.7792 27.2517 43.8123C27.3222 43.8454 27.4001 43.8597 27.4778 43.8538C27.6174 43.8572 27.7566 43.8388 27.8905 43.7992L27.9352 44.0724C27.7774 44.1359 27.6082 44.1663 27.4381 44.1618C27.3226 44.171 27.2066 44.1529 27.0995 44.1089C26.9923 44.0649 26.8971 43.9962 26.8216 43.9085C26.7364 43.8063 26.6768 43.6855 26.6476 43.5558C26.6127 43.3926 26.596 43.226 26.5978 43.0591V40.7891H25.9863V40.496H26.5929V39.8354L26.9508 39.6963Z" fill="white"/>
<path d="M32.3898 42.2445C32.3849 42.4903 32.4201 42.7353 32.4942 42.9697C32.5558 43.1552 32.6576 43.3249 32.7925 43.4664C32.9227 43.5948 33.0786 43.6944 33.2499 43.7586C33.4212 43.8227 33.6042 43.8501 33.7868 43.839C34.1292 43.8513 34.4698 43.7832 34.7811 43.6403L34.8706 43.9234C34.7308 43.9903 34.5841 44.0419 34.4331 44.0774C34.2045 44.127 33.971 44.1504 33.7371 44.1469C33.5093 44.1584 33.2817 44.1199 33.0704 44.0341C32.8591 43.9483 32.6692 43.8173 32.5141 43.6502C32.1998 43.2894 32.0361 42.8218 32.0567 42.3439C32.0532 42.0726 32.0935 41.8026 32.176 41.5441C32.2489 41.3169 32.3654 41.106 32.519 40.9232C32.6547 40.7584 32.8243 40.6246 33.0162 40.5308C33.2174 40.4392 33.4365 40.3934 33.6575 40.3967C33.8992 40.3873 34.1386 40.4458 34.3486 40.5656C34.5265 40.669 34.6766 40.8138 34.7861 40.9878C34.8843 41.1512 34.9564 41.3288 34.9999 41.5143C35.037 41.6774 35.057 41.8439 35.0596 42.0111C35.0667 42.0871 35.0667 42.1636 35.0596 42.2395L32.3898 42.2445ZM34.6817 41.9614C34.6824 41.8142 34.6657 41.6675 34.632 41.5243C34.5969 41.3814 34.5381 41.2454 34.458 41.1219C34.376 40.993 34.261 40.8884 34.1249 40.8189C33.9717 40.7385 33.8008 40.6975 33.6277 40.6997C33.4552 40.6972 33.2846 40.7364 33.1305 40.814C32.9874 40.885 32.8618 40.9868 32.7626 41.112C32.669 41.2364 32.5936 41.3736 32.5389 41.5193C32.489 41.663 32.4524 41.811 32.4295 41.9614H34.6817Z" fill="white"/>
<path d="M42.4475 38.7674V43.2379C42.4475 43.372 42.4475 43.516 42.4475 43.6651C42.4475 43.8141 42.4475 43.9482 42.4724 44.0674H42.1492L42.1194 43.3869C42.0079 43.6118 41.8357 43.801 41.6222 43.9333C41.3851 44.0845 41.1079 44.1607 40.8268 44.1518C40.6138 44.1535 40.4032 44.1077 40.2103 44.0177C40.0183 43.933 39.8483 43.8056 39.7131 43.6452C39.5675 43.4761 39.4561 43.2804 39.385 43.069C39.3053 42.834 39.2666 42.587 39.2706 42.3388C39.2659 42.0655 39.3079 41.7933 39.3949 41.5341C39.4712 41.3073 39.5893 41.0968 39.7429 40.9132C39.8805 40.7516 40.0497 40.6197 40.2401 40.5258C40.4367 40.4363 40.6505 40.3905 40.8665 40.3917C41.1258 40.3825 41.3825 40.4462 41.6073 40.5755C41.7924 40.6825 41.944 40.8391 42.0448 41.0275V38.7476L42.4475 38.7674ZM42.0846 41.9166C42.0881 41.8046 42.0764 41.6927 42.0498 41.5838C41.9895 41.3305 41.8441 41.1055 41.6378 40.9464C41.4315 40.7873 41.1768 40.7037 40.9163 40.7096C40.736 40.7037 40.5569 40.7412 40.3943 40.819C40.2316 40.8968 40.09 41.0126 39.9816 41.1566C39.7379 41.4939 39.6153 41.9034 39.6336 42.319C39.6202 42.7124 39.7354 43.0994 39.9617 43.4217C40.0669 43.5678 40.2072 43.6853 40.3696 43.7634C40.532 43.8415 40.7114 43.8777 40.8914 43.8687C41.1511 43.8673 41.4024 43.776 41.6023 43.6104C41.8207 43.4372 41.9748 43.1959 42.0399 42.925C42.0665 42.8279 42.0782 42.7274 42.0747 42.6269L42.0846 41.9166Z" fill="white"/>
<path d="M54.5933 43.6105C54.7141 43.6823 54.8425 43.7406 54.9761 43.7844C55.1133 43.8328 55.2581 43.8563 55.4036 43.8539C55.6295 43.8714 55.8536 43.8021 56.0301 43.6602C56.1003 43.5984 56.156 43.5218 56.1929 43.4359C56.2299 43.35 56.2473 43.2569 56.2439 43.1635C56.2476 43.0772 56.2342 42.9911 56.2043 42.9101C56.1745 42.829 56.1287 42.7548 56.0699 42.6916C55.9003 42.5415 55.7026 42.4267 55.4882 42.3538C54.8766 42.1104 54.5734 41.7826 54.5734 41.3604C54.5705 41.2294 54.5961 41.0994 54.6485 40.9794C54.7008 40.8593 54.7787 40.752 54.8766 40.665C55.0987 40.4711 55.3876 40.3713 55.6821 40.3868C55.8333 40.3857 55.9839 40.4058 56.1295 40.4464C56.2528 40.484 56.3701 40.5392 56.4775 40.6103L56.3433 40.9034C56.2498 40.8384 56.1477 40.7866 56.04 40.7494C55.9058 40.7031 55.7643 40.6813 55.6224 40.6849C55.4396 40.6768 55.261 40.7411 55.1252 40.8637C55.0654 40.9205 55.0181 40.9891 54.9864 41.0653C54.9548 41.1414 54.9394 41.2233 54.9413 41.3057C54.9364 41.3842 54.9491 41.4628 54.9783 41.5358C55.0076 41.6088 55.0526 41.6745 55.1103 41.728C55.2813 41.8658 55.4747 41.9734 55.6821 42.0459C55.9434 42.1395 56.1821 42.2867 56.3831 42.478C56.5405 42.6513 56.6228 42.88 56.6118 43.1138C56.6165 43.2546 56.5895 43.3947 56.5327 43.5237C56.4759 43.6527 56.3908 43.7673 56.2836 43.8589C56.0347 44.0614 55.7192 44.1641 55.3987 44.147C55.2306 44.1465 55.0633 44.1231 54.9015 44.0774C54.7545 44.038 54.6139 43.9778 54.4839 43.8986L54.5933 43.6105Z" fill="white"/>
<path d="M61.3049 39.7064C61.2679 39.7076 61.231 39.7001 61.1974 39.6846C61.1637 39.6691 61.1342 39.646 61.111 39.617C61.0578 39.5556 61.0286 39.4772 61.0286 39.396C61.0286 39.3148 61.0578 39.2363 61.111 39.1749C61.1366 39.1459 61.1679 39.1226 61.203 39.1063C61.2381 39.0901 61.2762 39.0813 61.3148 39.0806C61.3537 39.0803 61.3921 39.0886 61.4273 39.105C61.4626 39.1213 61.4938 39.1452 61.5187 39.1749C61.5749 39.2356 61.6052 39.3158 61.6032 39.3985C61.6058 39.4788 61.5773 39.5571 61.5237 39.617C61.4968 39.6467 61.4637 39.67 61.4267 39.6855C61.3898 39.7009 61.3499 39.7081 61.3099 39.7064H61.3049ZM61.1408 44.1074V40.5111H61.4889V44.1074H61.1408Z" fill="white"/>
<path d="M66.3115 41.3556C66.3115 41.1916 66.3115 41.0476 66.3115 40.9085C66.3115 40.7694 66.3115 40.6304 66.3115 40.4913H66.6496V41.142C66.7654 40.933 66.9377 40.7609 67.1468 40.6453C67.3738 40.5056 67.6359 40.4332 67.9025 40.4366C68.0287 40.4374 68.1542 40.4558 68.2753 40.4913C68.4253 40.5343 68.5643 40.6088 68.683 40.7098C68.8325 40.8352 68.9487 40.9956 69.0211 41.1768C69.1231 41.4237 69.1705 41.6897 69.1603 41.9566V44.1074H68.8023V41.9864C68.804 41.8192 68.7857 41.6525 68.7476 41.4897C68.7161 41.3465 68.6589 41.2101 68.5786 41.0873C68.5003 40.9701 68.3922 40.8759 68.2654 40.8141C68.1215 40.7444 67.9629 40.7103 67.803 40.7148C67.5586 40.7153 67.3217 40.7994 67.1319 40.9532C66.9383 41.1015 66.7958 41.3064 66.7242 41.5393C66.6963 41.6448 66.6813 41.7532 66.6794 41.8622V44.1074H66.3215L66.3115 41.3556Z" fill="white"/>
<path d="M76.4041 43.9384C76.2584 44.005 76.107 44.0582 75.9517 44.0974C75.7539 44.1499 75.5498 44.175 75.3451 44.1719C75.1048 44.1744 74.8665 44.1288 74.6441 44.0378C74.4359 43.952 74.2492 43.8214 74.0972 43.6553C73.9394 43.4909 73.8189 43.2943 73.7442 43.0791C73.5687 42.5859 73.5687 42.0473 73.7442 41.5542C73.8278 41.3249 73.9601 41.1165 74.132 40.9432C74.2967 40.7701 74.4968 40.6346 74.7187 40.5458C75.1362 40.3925 75.5906 40.37 76.0213 40.4813C76.1562 40.5121 76.2854 40.5641 76.4041 40.6352L76.2748 40.9283C76.16 40.8636 76.0382 40.812 75.9119 40.7743C75.7497 40.7316 75.5824 40.7115 75.4147 40.7147C75.212 40.7044 75.0096 40.7402 74.8228 40.8194C74.6359 40.8985 74.4694 41.019 74.3359 41.1717C74.0771 41.4915 73.9414 41.8932 73.9531 42.3042C73.9335 42.719 74.0761 43.1251 74.3508 43.4367C74.4821 43.5769 74.6418 43.6875 74.8193 43.7612C74.9967 43.8348 75.1879 43.8699 75.3799 43.8639C75.5476 43.8672 75.715 43.8472 75.8771 43.8043C76.0161 43.7635 76.1522 43.7137 76.2848 43.6553L76.4041 43.9384Z" fill="white"/>
<path d="M80.8239 42.2444C80.8189 42.4902 80.8542 42.7351 80.9283 42.9696C80.9899 43.1551 81.0917 43.3247 81.2266 43.4663C81.3566 43.5949 81.5125 43.6946 81.6838 43.7588C81.8552 43.823 82.0382 43.8503 82.2209 43.8388C82.4147 43.8446 82.6084 43.8262 82.7976 43.7842C82.9414 43.7505 83.0813 43.7022 83.2152 43.6402L83.3047 43.9233C83.167 43.9911 83.0218 44.0428 82.8722 44.0773C82.6436 44.1269 82.4101 44.1502 82.1762 44.1468C81.9484 44.1583 81.7208 44.1198 81.5095 44.034C81.2982 43.9482 81.1083 43.8171 80.9531 43.6501C80.637 43.2903 80.473 42.8219 80.4957 42.3437C80.4923 42.0725 80.5326 41.8024 80.6151 41.544C80.6883 41.3179 80.8029 41.1073 80.9531 40.9231C81.0971 40.7565 81.2751 40.6227 81.4751 40.5307C81.6763 40.439 81.8954 40.3932 82.1165 40.3966C82.358 40.388 82.5973 40.4464 82.8076 40.5655C82.9854 40.6688 83.1355 40.8137 83.2451 40.9877C83.3412 41.152 83.4132 41.3294 83.4588 41.5142C83.4959 41.6773 83.5159 41.8437 83.5185 42.0109C83.5256 42.0869 83.5256 42.1634 83.5185 42.2394L80.8239 42.2444ZM83.1158 41.9612C83.1165 41.8141 83.0998 41.6674 83.0661 41.5241C83.031 41.3812 82.9722 41.2452 82.8921 41.1218C82.8087 40.9941 82.6941 40.8898 82.559 40.8188C82.4057 40.7385 82.2349 40.6975 82.0618 40.6996C81.8894 40.6982 81.7191 40.7373 81.5646 40.8138C81.4238 40.8863 81.3001 40.9879 81.2017 41.1119C81.108 41.2363 81.0327 41.3734 80.978 41.5192C80.9258 41.6622 80.8891 41.8104 80.8686 41.9612H83.1158Z" fill="white"/>
<path d="M96.6586 39.587L95.8632 40.049L95.7737 39.7659L96.6934 39.2195H97.0216V44.1072H96.6686L96.6586 39.587Z" fill="white"/>
<path d="M102.903 43.839H102.953H103.022C103.167 43.8359 103.312 43.821 103.455 43.7943C103.865 43.737 104.241 43.5343 104.514 43.2231C104.691 43.0302 104.834 42.8084 104.936 42.5674C105.058 42.2839 105.138 41.9845 105.175 41.6783H105.15C105.007 41.8765 104.817 42.0374 104.598 42.1472C104.379 42.257 104.137 42.3125 103.892 42.3091C103.704 42.3158 103.517 42.28 103.345 42.2043C103.173 42.1286 103.02 42.015 102.898 41.872C102.651 41.5833 102.52 41.2134 102.53 40.8338C102.528 40.6122 102.565 40.392 102.639 40.1831C102.711 39.9817 102.819 39.795 102.958 39.6318C103.096 39.4736 103.265 39.3451 103.455 39.2543C103.652 39.1599 103.868 39.1123 104.086 39.1152C104.294 39.1115 104.499 39.1584 104.685 39.2519C104.87 39.3454 105.03 39.4826 105.15 39.6516C105.446 40.0902 105.589 40.6138 105.558 41.1418C105.568 41.6025 105.49 42.061 105.329 42.4929C105.196 42.8486 104.991 43.1732 104.728 43.4466C104.57 43.6085 104.389 43.7458 104.191 43.8539C104.001 43.9586 103.796 44.034 103.584 44.0774C103.368 44.1221 103.148 44.1454 102.928 44.1469L102.903 43.839ZM103.997 39.4331C103.839 39.43 103.683 39.4644 103.541 39.5335C103.399 39.6026 103.276 39.7044 103.181 39.8305C102.962 40.114 102.849 40.4657 102.863 40.8239C102.847 41.1406 102.956 41.4511 103.166 41.6882C103.267 41.7963 103.39 41.8815 103.526 41.9381C103.662 41.9947 103.809 42.0213 103.957 42.016C104.196 42.0195 104.432 41.9577 104.638 41.8372C104.841 41.734 105.013 41.5778 105.135 41.3852C105.171 41.3229 105.191 41.2531 105.195 41.1815C105.216 40.7398 105.113 40.3009 104.897 39.9149C104.805 39.7657 104.675 39.6435 104.52 39.5606C104.366 39.4777 104.192 39.4371 104.017 39.443L103.997 39.4331Z" fill="white"/>
<path d="M110.162 43.8389H110.211H110.281C110.426 43.8358 110.571 43.8209 110.714 43.7942C111.124 43.7369 111.5 43.5342 111.773 43.2229C111.952 43.0314 112.095 42.8093 112.195 42.5673C112.317 42.2838 112.397 41.9844 112.434 41.6781H112.409C112.265 41.8764 112.076 42.0373 111.857 42.1471C111.638 42.2569 111.396 42.3124 111.151 42.309C110.963 42.3157 110.776 42.2799 110.604 42.2042C110.432 42.1285 110.279 42.0149 110.157 41.8719C109.91 41.5832 109.779 41.2133 109.789 40.8337C109.786 40.6116 109.825 40.391 109.903 40.183C109.971 39.9833 110.075 39.7979 110.211 39.6366C110.349 39.4772 110.518 39.3485 110.709 39.2591C110.907 39.1642 111.125 39.1166 111.345 39.12C111.552 39.1167 111.756 39.1639 111.941 39.2573C112.125 39.3508 112.284 39.4878 112.404 39.6565C112.7 40.095 112.843 40.6187 112.812 41.1467C112.821 41.6074 112.744 42.0658 112.583 42.4977C112.452 42.8544 112.247 43.1793 111.981 43.4514C111.826 43.6156 111.644 43.7531 111.444 43.8587C111.256 43.9626 111.053 44.0379 110.843 44.0823C110.625 44.1267 110.404 44.15 110.182 44.1518L110.162 43.8389ZM111.256 39.433C111.098 39.4298 110.942 39.4643 110.8 39.5333C110.658 39.6024 110.535 39.7042 110.44 39.8304C110.222 40.1148 110.11 40.4659 110.122 40.8238C110.108 41.1401 110.217 41.4496 110.425 41.6881C110.527 41.7966 110.65 41.882 110.787 41.9386C110.925 41.9952 111.072 42.0215 111.221 42.0159C111.46 42.0187 111.695 41.9569 111.902 41.8371C112.106 41.7345 112.278 41.5782 112.399 41.3851C112.434 41.3227 112.455 41.253 112.459 41.1814C112.48 40.7396 112.376 40.3008 112.16 39.9148C112.069 39.7663 111.94 39.6446 111.786 39.5617C111.633 39.4789 111.46 39.4379 111.285 39.4429L111.256 39.433Z" fill="white"/>
<path d="M118.554 39.1401C118.726 39.1322 118.898 39.1584 119.06 39.2172C119.223 39.276 119.371 39.3663 119.499 39.4829C119.612 39.5879 119.702 39.7156 119.763 39.8577C119.823 39.9997 119.854 40.1529 119.852 40.3074C119.849 40.5404 119.78 40.7679 119.653 40.9631C119.482 41.1884 119.251 41.3606 118.986 41.4598V41.4896C119.276 41.5613 119.534 41.726 119.721 41.9584C119.908 42.1908 120.013 42.4781 120.021 42.7761C120.022 42.9681 119.982 43.158 119.901 43.3324C119.823 43.5015 119.707 43.6508 119.563 43.7695C119.417 43.8951 119.248 43.9912 119.066 44.0527C118.882 44.1222 118.686 44.1575 118.489 44.157C118.285 44.1584 118.081 44.1248 117.888 44.0576C117.706 43.9992 117.537 43.9064 117.391 43.7844C117.254 43.6718 117.144 43.5312 117.067 43.3721C116.994 43.2168 116.955 43.0473 116.953 42.8754C116.949 42.5846 117.044 42.3009 117.221 42.0707C117.422 41.8251 117.682 41.6352 117.977 41.5194V41.4896C117.725 41.3873 117.508 41.2149 117.351 40.9929C117.221 40.8079 117.152 40.5877 117.152 40.362C117.147 40.1925 117.179 40.0239 117.247 39.8685C117.315 39.713 117.417 39.5745 117.545 39.463C117.819 39.2232 118.175 39.0971 118.539 39.1103L118.554 39.1401ZM118.499 43.8738C118.807 43.8897 119.11 43.7866 119.344 43.5857C119.448 43.4942 119.531 43.3809 119.586 43.2538C119.641 43.1267 119.667 42.989 119.663 42.8506C119.67 42.7077 119.646 42.5649 119.593 42.432C119.539 42.2991 119.458 42.1793 119.354 42.0807C119.077 41.861 118.755 41.7065 118.41 41.6287C118.109 41.7049 117.837 41.8652 117.624 42.0906C117.446 42.2863 117.349 42.5416 117.351 42.8059C117.346 42.9478 117.372 43.0889 117.425 43.2206C117.478 43.3522 117.558 43.4715 117.659 43.5708C117.77 43.6752 117.902 43.7558 118.046 43.8079C118.189 43.86 118.342 43.8824 118.494 43.8738H118.499ZM118.529 39.4332C118.396 39.4258 118.262 39.4453 118.137 39.4905C118.011 39.5358 117.896 39.6058 117.798 39.6964C117.712 39.7789 117.644 39.8786 117.599 39.9889C117.553 40.0993 117.531 40.2179 117.535 40.3372C117.528 40.4615 117.549 40.5856 117.596 40.7008C117.644 40.8159 117.716 40.919 117.808 41.0028C118.039 41.1906 118.312 41.3201 118.604 41.3803C118.852 41.3029 119.078 41.1646 119.26 40.978C119.421 40.8041 119.507 40.5739 119.499 40.3372C119.503 40.1012 119.418 39.8722 119.26 39.6964C119.165 39.6046 119.052 39.5337 118.927 39.4884C118.803 39.443 118.671 39.4242 118.539 39.4332H118.529Z" fill="white"/>
</svg>
