<svg width="213" height="73" viewBox="0 0 213 73" fill="none" xmlns="http://www.w3.org/2000/svg">
<path d="M2.30222 52.0131H1.34412V42.8896H2.30222V52.0131Z" fill="white"/>
<path d="M16.3165 52.0131H15.2452L9.70563 44.0754V52.0131H8.70398V42.8896H10.0105L15.3323 50.5474V42.8896H16.3165V52.0131Z" fill="white"/>
<path d="M27.6397 43.7541H25.4535V51.9882H24.4954V43.7541H22.3179V42.9307H27.6397V43.7541Z" fill="white"/>
<path d="M38.623 52.0134H35.8532C35.1999 52.0403 34.5596 51.8346 34.0589 51.437C33.8232 51.2268 33.6387 50.9706 33.5184 50.6862C33.398 50.4018 33.3447 50.096 33.3621 49.7902V45.1626C33.3447 44.8567 33.398 44.5509 33.5184 44.2665C33.6387 43.9821 33.8232 43.7259 34.0589 43.5157C34.5596 43.1181 35.1999 42.9125 35.8532 42.9394H38.623V43.7628H35.8445C35.6561 43.7384 35.4643 43.7519 35.2818 43.8024C35.0994 43.8529 34.9302 43.9393 34.7855 44.0559C34.6408 44.1725 34.5237 44.3167 34.442 44.479C34.3604 44.6413 34.3159 44.8182 34.3115 44.9979V46.9658H37.5429V47.8387H34.3115V49.9466C34.3221 50.1252 34.3698 50.3 34.452 50.4611C34.5342 50.6222 34.6493 50.7663 34.7905 50.8853C35.089 51.1069 35.4669 51.2103 35.8445 51.1735H38.623V52.0134Z" fill="white"/>
<path d="M51.0173 45.8789C51.0184 46.5523 50.7581 47.2028 50.2857 47.7068C49.8106 48.198 49.1508 48.4936 48.4478 48.5303H48.1778L50.8431 51.9227H49.6324L46.3749 47.8057H47.3068C48.0353 47.8426 48.7523 47.6225 49.3189 47.1881C49.5551 46.9983 49.7405 46.7583 49.8601 46.4879C49.9797 46.2175 50.03 45.9241 50.0069 45.6318C50.0036 45.3713 49.9439 45.1142 49.8316 44.8763C49.7192 44.6384 49.5566 44.4248 49.3537 44.2485C48.8743 43.8489 48.2503 43.6395 47.6117 43.6639H45.4429V51.898H44.45V42.9063H47.5333C48.4676 42.8563 49.3858 43.1516 50.094 43.7298C50.4066 44.001 50.6516 44.3345 50.8113 44.7062C50.971 45.0778 51.0413 45.4784 51.0173 45.8789Z" fill="white"/>
<path d="M58.2206 52.0131H57.2538V42.8896H58.2119L58.2206 52.0131Z" fill="white"/>
<path d="M74.7608 47.3853C74.7692 48.016 74.6423 48.6417 74.3878 49.2248C74.1334 49.8079 73.7565 50.3361 73.2801 50.7777C72.8196 51.233 72.2649 51.5937 71.6505 51.8373C71.0361 52.081 70.3752 52.2024 69.709 52.194C69.0463 52.2019 68.3885 52.0851 67.7739 51.8504C67.1593 51.6158 66.6003 51.2679 66.1292 50.8271C65.6463 50.4098 65.2624 49.9006 65.0026 49.3329C64.7429 48.7652 64.6133 48.1519 64.6223 47.5335C64.6127 46.9058 64.7382 46.2828 64.9912 45.7024C65.2443 45.122 65.6196 44.5964 66.0943 44.1575C66.5509 43.7019 67.1024 43.3408 67.7141 43.097C68.3258 42.8533 68.9843 42.7321 69.648 42.7412C70.9885 42.7256 72.2813 43.2109 73.2453 44.0916C73.7329 44.5058 74.1205 45.0143 74.382 45.5826C74.6435 46.1509 74.7727 46.7656 74.7608 47.3853ZM73.8376 47.4429C73.8368 46.9353 73.725 46.4333 73.5091 45.9685C73.2933 45.5037 72.9781 45.0862 72.5833 44.7421C72.1994 44.3858 71.7447 44.1049 71.2454 43.9155C70.7461 43.7261 70.2121 43.6321 69.6742 43.6387C69.1392 43.6327 68.6085 43.7296 68.1144 43.9235C67.6203 44.1175 67.173 44.4044 66.7999 44.7668C66.4193 45.1194 66.117 45.5403 65.9106 46.0048C65.7042 46.4692 65.5979 46.9679 65.5979 47.4717C65.5979 47.9755 65.7042 48.4742 65.9106 48.9387C66.117 49.4031 66.4193 49.824 66.7999 50.1766C67.5733 50.9027 68.619 51.3102 69.709 51.3102C70.799 51.3102 71.8447 50.9027 72.6182 50.1766C73.0059 49.8239 73.3116 49.3986 73.5155 48.9279C73.7195 48.4572 73.8173 47.9514 73.8027 47.4429H73.8376Z" fill="white"/>
<path d="M87.582 45.8789C87.577 46.5622 87.3039 47.2195 86.8156 47.7233C86.3448 48.2154 85.6873 48.5114 84.9865 48.5467H84.7077L87.3817 51.9392H86.1971L82.9309 47.8221H83.8716C84.6 47.859 85.317 47.639 85.8836 47.2046C86.1198 47.0147 86.3053 46.7748 86.4248 46.5044C86.5444 46.2339 86.5947 45.9406 86.5717 45.6483C86.5683 45.3878 86.5086 45.1307 86.3963 44.8928C86.284 44.6549 86.1213 44.4413 85.9184 44.265C85.4386 43.8661 84.8149 43.6568 84.1764 43.6804H82.025V51.9145H81.0321V42.9063H84.1154C85.0497 42.8563 85.968 43.1516 86.6762 43.7298C86.9857 44.0025 87.2274 44.3367 87.384 44.7083C87.5406 45.0799 87.6083 45.4796 87.582 45.8789Z" fill="white"/>
<path d="M111.186 49.4931C111.191 49.8503 111.117 50.2046 110.966 50.5324C110.816 50.8603 110.594 51.1543 110.315 51.3952C109.767 51.8948 109.034 52.174 108.273 52.174C107.511 52.174 106.779 51.8948 106.23 51.3952C105.951 51.1424 105.729 50.838 105.579 50.5009C105.43 50.1638 105.355 49.8011 105.359 49.4355H106.37C106.362 49.6756 106.406 49.9146 106.499 50.1382C106.592 50.3618 106.731 50.5653 106.91 50.7365C107.077 50.9114 107.281 51.0514 107.509 51.1478C107.737 51.2442 107.984 51.2948 108.234 51.2964C108.491 51.3038 108.747 51.2616 108.987 51.1724C109.226 51.0832 109.444 50.9489 109.627 50.7776C109.814 50.61 109.961 50.4063 110.057 50.1804C110.153 49.9545 110.197 49.7117 110.185 49.4684C110.185 48.6285 109.604 48.0357 108.443 47.6898L107.423 47.3934C106.917 47.2556 106.471 46.9668 106.152 46.57C105.85 46.156 105.689 45.6648 105.69 45.162C105.68 44.8389 105.746 44.5178 105.884 44.2216C106.021 43.9255 106.225 43.6618 106.483 43.4493C106.733 43.2193 107.028 43.0389 107.353 42.9187C107.678 42.7985 108.024 42.7409 108.373 42.7493C108.715 42.7474 109.054 42.8122 109.369 42.9397C109.684 43.0672 109.967 43.2547 110.202 43.4904C110.447 43.7193 110.64 43.9927 110.771 44.2941C110.901 44.5955 110.965 44.9187 110.96 45.2443H109.941C109.95 45.0403 109.915 44.8366 109.839 44.6456C109.762 44.4546 109.646 44.2801 109.496 44.1327C109.356 43.982 109.185 43.8597 108.994 43.7734C108.802 43.687 108.594 43.6384 108.382 43.6304C108.156 43.6171 107.93 43.6491 107.718 43.7244C107.506 43.7996 107.314 43.9163 107.153 44.0668C106.985 44.2051 106.852 44.3777 106.764 44.5717C106.677 44.7657 106.637 44.976 106.648 45.1867C106.631 45.5032 106.731 45.8156 106.931 46.0697C107.132 46.3239 107.42 46.5037 107.746 46.5782L108.913 46.9241C109.55 47.0322 110.127 47.3488 110.543 47.8184C110.958 48.288 111.186 48.8808 111.186 49.4931Z" fill="white"/>
<path d="M127.073 47.3853C127.082 48.0168 126.955 48.6433 126.698 49.2266C126.442 49.8099 126.063 50.3377 125.584 50.7777C125.125 51.2327 124.572 51.5934 123.959 51.837C123.346 52.0807 122.686 52.2022 122.022 52.194C121.359 52.2032 120.7 52.0871 120.086 51.8523C119.471 51.6176 118.912 51.269 118.442 50.8271C117.956 50.4115 117.569 49.9028 117.308 49.3348C117.047 48.7669 116.917 48.1528 116.926 47.5335C116.918 46.906 117.045 46.2836 117.298 45.7035C117.551 45.1234 117.925 44.5975 118.398 44.1575C118.855 43.7019 119.406 43.3408 120.018 43.097C120.63 42.8533 121.288 42.7321 121.952 42.7412C123.293 42.7238 124.586 43.2094 125.549 44.0916C126.038 44.5054 126.427 45.0136 126.69 45.5819C126.953 46.1501 127.084 46.7651 127.073 47.3853ZM126.141 47.4429C126.14 46.9361 126.029 46.435 125.815 45.9704C125.601 45.5059 125.288 45.0878 124.896 44.7421C124.51 44.3855 124.054 44.1045 123.553 43.9152C123.053 43.7258 122.517 43.6319 121.978 43.6387C121.444 43.6338 120.915 43.7313 120.423 43.9252C119.93 44.1191 119.485 44.4054 119.112 44.7668C118.73 45.1183 118.425 45.5388 118.218 46.0034C118.01 46.468 117.903 46.9673 117.903 47.4717C117.903 47.9761 118.01 48.4754 118.218 48.94C118.425 49.4047 118.73 49.8251 119.112 50.1766C119.884 50.9022 120.929 51.3095 122.017 51.3095C123.106 51.3095 124.15 50.9022 124.922 50.1766C125.316 49.8268 125.628 49.4028 125.838 48.932C126.048 48.4611 126.151 47.9538 126.141 47.4429Z" fill="white"/>
<path d="M138.597 52.0133H135.827C135.171 52.0423 134.527 51.8365 134.024 51.4369C133.787 51.2274 133.602 50.9713 133.482 50.6868C133.361 50.4022 133.309 50.0961 133.327 49.7901V42.9146H134.277V49.9465C134.286 50.1241 134.334 50.2979 134.416 50.4578C134.498 50.6176 134.614 50.7602 134.756 50.877C135.058 51.0984 135.438 51.2015 135.818 51.1652H138.597V52.0133Z" fill="white"/>
<path d="M150.059 49.0572C150.07 49.4741 149.989 49.8887 149.821 50.2743C149.653 50.66 149.402 51.0083 149.084 51.2969C148.779 51.5917 148.412 51.8226 148.007 51.9744C147.602 52.1262 147.167 52.1956 146.732 52.1779C146.307 52.1835 145.885 52.105 145.493 51.9477C145.102 51.7903 144.749 51.5574 144.459 51.2639C144.152 50.9674 143.911 50.6155 143.751 50.2294C143.591 49.8432 143.515 49.4306 143.527 49.016V42.8816H144.476V48.8595C144.455 49.4957 144.689 50.1158 145.129 50.597C145.334 50.8244 145.589 51.0059 145.877 51.1284C146.164 51.2509 146.477 51.3112 146.793 51.3051C147.099 51.311 147.403 51.2562 147.685 51.1441C147.967 51.0321 148.221 50.8653 148.43 50.6546C148.656 50.4385 148.832 50.1807 148.947 49.8973C149.063 49.614 149.115 49.3111 149.101 49.0078V42.8486H150.059V49.0572Z" fill="white"/>
<path d="M161.347 43.7541H159.161V51.9882H158.203V43.7541H156.025V42.9307H161.347V43.7541Z" fill="white"/>
<path d="M168.324 52.0131H167.366V42.8896H168.324V52.0131Z" fill="white"/>
<path d="M184.864 47.3853C184.873 48.016 184.746 48.6417 184.491 49.2248C184.237 49.8079 183.86 50.3361 183.384 50.7777C182.923 51.233 182.368 51.5937 181.754 51.8373C181.14 52.081 180.479 52.2024 179.813 52.194C179.15 52.2019 178.492 52.0851 177.877 51.8504C177.263 51.6158 176.704 51.2679 176.233 50.8271C175.75 50.4098 175.366 49.9006 175.106 49.3329C174.846 48.7652 174.717 48.1519 174.726 47.5335C174.716 46.9058 174.842 46.2828 175.095 45.7024C175.348 45.122 175.723 44.5964 176.198 44.1575C176.654 43.7019 177.206 43.3408 177.818 43.097C178.429 42.8533 179.088 42.7321 179.752 42.7412C181.092 42.7256 182.385 43.2109 183.349 44.0916C183.836 44.5058 184.224 45.0143 184.486 45.5826C184.747 46.1509 184.876 46.7656 184.864 47.3853ZM183.941 47.4429C183.938 46.9349 183.824 46.433 183.606 45.9684C183.389 45.5038 183.073 45.0864 182.678 44.7421C181.898 44.0235 180.849 43.6267 179.76 43.6387C179.225 43.6327 178.695 43.7296 178.2 43.9235C177.706 44.1175 177.259 44.4044 176.886 44.7668C176.505 45.1194 176.203 45.5403 175.997 46.0048C175.79 46.4692 175.684 46.9679 175.684 47.4717C175.684 47.9755 175.79 48.4742 175.997 48.9387C176.203 49.4031 176.505 49.824 176.886 50.1766C177.659 50.9027 178.705 51.3102 179.795 51.3102C180.885 51.3102 181.931 50.9027 182.704 50.1766C183.101 49.8283 183.417 49.4049 183.63 48.934C183.843 48.4631 183.949 47.955 183.941 47.4429Z" fill="white"/>
<path d="M198.739 52.0131H197.668L192.12 44.0754V52.0131H191.118V42.8896H192.425L197.755 50.5474V42.8896H198.739V52.0131Z" fill="white"/>
<path d="M210.637 49.4932C210.643 49.8504 210.568 50.2046 210.417 50.5325C210.267 50.8603 210.045 51.1544 209.766 51.3953C209.361 51.7794 208.844 52.0408 208.28 52.1461C207.717 52.2514 207.134 52.1958 206.604 51.9865C206.075 51.7773 205.623 51.4237 205.306 50.9708C204.99 50.518 204.823 49.9864 204.828 49.4438H205.838C205.829 49.6833 205.871 49.9222 205.963 50.1458C206.054 50.3694 206.192 50.5732 206.369 50.7448C206.539 50.9191 206.745 51.0587 206.974 51.155C207.204 51.2513 207.451 51.3022 207.702 51.3047C207.959 51.3121 208.216 51.2699 208.455 51.1807C208.695 51.0915 208.913 50.9572 209.096 50.7859C209.283 50.6183 209.429 50.4146 209.525 50.1887C209.621 49.9628 209.665 49.72 209.653 49.4767C209.653 48.6368 209.072 48.044 207.911 47.6981L206.883 47.4017C206.38 47.2617 205.938 46.9732 205.62 46.5783C205.318 46.1643 205.157 45.6731 205.159 45.1702C205.149 44.8472 205.215 44.526 205.352 44.2299C205.489 43.9338 205.694 43.67 205.951 43.4575C206.201 43.2276 206.497 43.0472 206.822 42.927C207.146 42.8068 207.493 42.7492 207.841 42.7576C208.184 42.7557 208.523 42.8205 208.838 42.948C209.152 43.0755 209.436 43.263 209.67 43.4987C209.915 43.7276 210.109 44.001 210.239 44.3024C210.369 44.6038 210.434 44.927 210.428 45.2526H209.409C209.418 45.0486 209.384 44.8449 209.307 44.6539C209.231 44.4629 209.114 44.2884 208.965 44.141C208.818 43.988 208.64 43.8645 208.441 43.7781C208.242 43.6916 208.027 43.6439 207.808 43.6377C207.59 43.6316 207.372 43.6671 207.168 43.7423C206.964 43.8174 206.779 43.9306 206.622 44.0751C206.454 44.2141 206.321 44.3867 206.232 44.5803C206.143 44.774 206.101 44.9839 206.108 45.1949C206.094 45.5119 206.197 45.8236 206.399 46.0773C206.6 46.3309 206.888 46.5108 207.214 46.5865L208.381 46.9323C209.014 47.0437 209.586 47.3605 209.998 47.8281C210.41 48.2957 210.636 48.8847 210.637 49.4932Z" fill="white"/>
<path d="M0.377319 57.7441H210.045" stroke="#B1B3B5" stroke-width="0.71" stroke-miterlimit="10"/>
<path d="M6.37843 24.8076C6.02548 24.518 5.73676 24.1652 5.52895 23.7694C5.32114 23.3737 5.19837 22.9429 5.16774 22.5021V0.615723H0.734335V22.0245C0.670898 23.062 0.851211 24.0999 1.26233 25.0637C1.67345 26.0275 2.30518 26.8933 3.11217 27.599C4.76192 28.943 6.88436 29.6539 9.06112 29.5917H18.1718V25.4746H9.02628C8.08772 25.5585 7.14842 25.3219 6.37843 24.8076Z" fill="#F6921E"/>
<path d="M36.4454 10.7435C35.3882 9.66802 34.1135 8.80409 32.6966 8.20296C31.2797 7.60183 29.7496 7.27574 28.197 7.24403H27.6918C26.1799 7.23193 24.6815 7.51367 23.2896 8.07175C21.8977 8.62983 20.6419 9.45235 19.6002 10.4883C18.4484 11.5493 17.5364 12.8204 16.9196 14.2244C16.3027 15.6285 15.9939 17.1363 16.0117 18.6565C15.9911 20.1143 16.2753 21.5615 16.8477 22.9151C17.4202 24.2688 18.2697 25.5023 19.3476 26.5449C20.3785 27.6075 21.6258 28.4624 23.0148 29.0581C24.4037 29.6538 25.9057 29.978 27.4305 30.0114H27.8312C30.5598 30.0398 33.203 29.113 35.2521 27.4094V29.5915H39.6768V18.6401C39.7444 17.1842 39.4921 15.7309 38.936 14.3718C38.3798 13.0128 37.5318 11.7773 36.4454 10.7435ZM27.9096 25.9108H27.5611C26.5912 25.8753 25.6395 25.6507 24.7657 25.2511C23.8919 24.8516 23.1148 24.2856 22.4832 23.5888C21.7963 22.9084 21.2611 22.1044 20.9095 21.2245C20.5578 20.3447 20.3969 19.407 20.4363 18.4672C20.4244 17.5302 20.6162 16.6009 20.9997 15.7369C21.3833 14.8729 21.9505 14.0926 22.6661 13.4443C23.3517 12.7698 24.1779 12.237 25.0924 11.8799C26.0069 11.5227 26.99 11.3489 27.9792 11.3693C28.9306 11.3561 29.8742 11.5335 30.7479 11.8897C31.6216 12.2459 32.4056 12.7729 33.0485 13.4361C34.4472 14.7649 35.2385 16.5596 35.2521 18.4342C35.2937 19.4299 35.1171 20.423 34.7334 21.3512C34.3496 22.2793 33.7671 23.1224 33.0223 23.8276C32.3744 24.4969 31.5837 25.0287 30.7024 25.3878C29.821 25.7469 28.8691 25.9252 27.9096 25.9108Z" fill="#F6921E"/>
<path d="M54.6406 7.23614H54.1354C51.506 7.27932 48.977 8.19776 46.9932 9.82989V0.574707H42.5772V18.5992C42.5538 21.5845 43.7776 24.4579 45.9827 26.5949C48.1877 28.7319 51.1958 29.9598 54.3532 30.0118H54.7626C56.3001 29.9855 57.8161 29.6647 59.2189 29.0689C60.6216 28.4731 61.882 27.6145 62.9239 26.5452C64.0053 25.5046 64.8577 24.2717 65.4318 22.9177C66.0059 21.5637 66.2903 20.1155 66.2685 18.6569C66.2833 17.1388 65.9721 15.6336 65.3538 14.2324C64.7355 12.8312 63.8229 11.5632 62.6713 10.5051C61.637 9.47409 60.3917 8.65264 59.0112 8.09069C57.6307 7.52873 56.1437 7.238 54.6406 7.23614ZM54.3619 25.9112C53.3955 25.9282 52.4362 25.7514 51.5474 25.3923C50.6586 25.0332 49.8605 24.5 49.2056 23.8279C47.7847 22.4384 46.9904 20.5813 46.9904 18.6487C46.9904 16.716 47.7847 14.8589 49.2056 13.4694C49.8507 12.8045 50.6376 12.2766 51.5144 11.9203C52.3912 11.564 53.338 11.3876 54.2922 11.4026C55.2797 11.382 56.2609 11.5566 57.1729 11.9153C58.0848 12.2741 58.9074 12.809 59.5879 13.4859C60.298 14.1382 60.8638 14.9174 61.2526 15.7783C61.6413 16.6391 61.8453 17.5644 61.8525 18.5004C61.9006 20.4078 61.1528 22.2564 59.7708 23.6468C59.1267 24.3372 58.3384 24.8941 57.4555 25.2824C56.5725 25.6706 55.6141 25.8819 54.6406 25.9029L54.3619 25.9112Z" fill="#F6921E"/>
<path d="M79.1332 7.41729H78.6019C76.5681 7.48492 74.6222 8.21839 73.0972 9.49229V0.574707H68.6725V29.5918H73.0972V16.763C73.0729 16.0612 73.2072 15.3626 73.4911 14.7137C73.775 14.0649 74.2019 13.4807 74.7434 13C75.8438 11.9973 77.3175 11.4442 78.8458 11.4602H79.0287C79.7735 11.4625 80.5099 11.6098 81.1918 11.8932C81.8737 12.1765 82.4864 12.5898 82.9918 13.1071C83.5649 13.6014 84.021 14.2046 84.3302 14.8773C84.6394 15.5499 84.7948 16.2767 84.786 17.0101V29.5918H89.2107V17.2406C89.2342 15.9137 88.9695 14.5963 88.4332 13.3698C87.8969 12.1433 87.1003 11.0338 86.0925 10.1098C85.1804 9.24586 84.095 8.56268 82.9 8.10032C81.705 7.63797 80.4244 7.40577 79.1332 7.41729Z" fill="#F6921E"/>
<path d="M109.427 9.92836C107.435 8.32661 104.924 7.41716 102.311 7.35109H101.901C100.378 7.34395 98.8688 7.63259 97.468 8.19914C96.0671 8.76568 94.8042 9.59807 93.7575 10.6447C91.5151 12.7646 90.2345 15.627 90.1874 18.6246C90.1402 21.6222 91.3302 24.5193 93.5049 26.7013C94.5403 27.7715 95.7978 28.6286 97.1989 29.2193C98.6 29.8101 100.115 30.1217 101.649 30.135C101.788 30.143 101.928 30.143 102.067 30.135C105.224 30.0937 108.236 28.8745 110.447 26.743C112.658 24.6115 113.888 21.7404 113.869 18.7554V0.714355H109.427V9.92836ZM102.198 26.0096H101.762C100.79 25.9886 99.8339 25.7738 98.9558 25.3793C98.0778 24.9849 97.2977 24.4196 96.6666 23.7206C95.9843 23.0351 95.4516 22.2292 95.0989 21.349C94.7462 20.4688 94.5804 19.5315 94.6111 18.5907C94.6035 17.6455 94.7987 16.7087 95.1849 15.8369C95.5712 14.9651 96.1404 14.1764 96.8583 13.5184C97.5301 12.8507 98.3419 12.3228 99.2417 11.9684C100.142 11.6139 101.11 11.4408 102.084 11.4599H102.189C103.143 11.445 104.089 11.6224 104.964 11.9801C105.84 12.3379 106.625 12.868 107.267 13.5349C108.662 14.8786 109.449 16.6831 109.462 18.566C109.506 19.5517 109.334 20.5354 108.956 21.4551C108.578 22.3748 108.003 23.2107 107.267 23.9099C106.632 24.585 105.85 25.1222 104.975 25.4847C104.1 25.8471 103.153 26.0262 102.198 26.0096Z" fill="#F6921E"/>
<path d="M137.247 10.7435C136.192 9.66883 134.921 8.8053 133.507 8.20415C132.093 7.60301 130.566 7.27649 129.016 7.24398H128.493C126.98 7.23271 125.481 7.51479 124.087 8.07278C122.694 8.63078 121.437 9.45285 120.393 10.4882C119.247 11.5524 118.339 12.8244 117.726 14.228C117.112 15.6315 116.805 17.1378 116.822 18.6565C116.782 21.5971 117.975 24.433 120.14 26.5448C121.173 27.6095 122.423 28.4655 123.815 29.0612C125.207 29.657 126.713 29.9802 128.24 30.0114H128.676C131.402 30.0401 134.043 29.1131 136.088 27.4094V29.5914H140.513V18.64C140.576 17.1818 140.318 15.7271 139.756 14.3678C139.194 13.0086 138.339 11.7745 137.247 10.7435ZM128.676 25.9108H128.336C127.365 25.8749 126.412 25.6502 125.537 25.2507C124.662 24.8512 123.883 24.2854 123.25 23.5888C122.566 22.9066 122.033 22.1021 121.683 21.2225C121.333 20.343 121.173 19.4061 121.211 18.4671C121.199 17.5294 121.392 16.5993 121.777 15.735C122.162 14.8708 122.731 14.0909 123.45 13.4443C124.133 12.7691 124.958 12.2359 125.871 11.8787C126.784 11.5214 127.766 11.3479 128.754 11.3693C129.707 11.3575 130.651 11.5355 131.526 11.8916C132.401 12.2477 133.187 12.7739 133.832 13.4361C135.247 14.8286 136.037 16.6845 136.037 18.6153C136.037 20.5461 135.247 22.4021 133.832 23.7946C133.18 24.4718 132.383 25.0106 131.494 25.3754C130.605 25.7401 129.645 25.9226 128.676 25.9108Z" fill="#F6921E"/>
<path d="M157.628 7.75439L150.887 22.7323L144.52 7.75439H139.729L148.265 28.1833L144.729 36.648H149.467L162.297 7.75439H157.628Z" fill="#F6921E"/>
<path d="M181.494 10.7435C180.442 9.66839 179.172 8.80445 177.759 8.20322C176.346 7.60199 174.82 7.27578 173.271 7.24404H172.749C171.235 7.23179 169.736 7.51342 168.342 8.07147C166.949 8.62952 165.692 9.45212 164.648 10.4883C163.498 11.5505 162.587 12.8217 161.971 14.2255C161.354 15.6293 161.044 17.1366 161.06 18.6566C161.022 21.6 162.222 24.4372 164.396 26.5449C165.429 27.6095 166.679 28.4655 168.071 29.0613C169.463 29.657 170.968 29.9802 172.496 30.0114H172.888C175.617 30.0414 178.261 29.1144 180.309 27.4095V29.5915H184.734V18.6401C184.8 17.1837 184.546 15.7302 183.988 14.3711C183.43 13.0121 182.581 11.7769 181.494 10.7435ZM172.958 25.9108H172.609C171.641 25.8757 170.69 25.6512 169.818 25.2515C168.945 24.8519 168.17 24.2858 167.54 23.5888C166.853 22.9084 166.318 22.1044 165.966 21.2246C165.615 20.3447 165.454 19.407 165.493 18.4672C165.485 17.5308 165.679 16.6027 166.062 15.7392C166.446 14.8758 167.011 14.095 167.723 13.4443C168.409 12.7698 169.235 12.2371 170.149 11.8799C171.064 11.5227 172.047 11.3489 173.036 11.3693C173.987 11.3572 174.931 11.535 175.804 11.8911C176.678 12.2473 177.462 12.7738 178.105 13.4361C179.508 14.7624 180.3 16.5587 180.309 18.4342C180.346 19.4253 180.167 20.4129 179.781 21.3352C179.396 22.2576 178.814 23.0949 178.071 23.7947C177.428 24.4721 176.639 25.0114 175.757 25.3764C174.875 25.7415 173.92 25.9237 172.958 25.9108Z" fill="#F6921E"/>
<path d="M192.311 0.483887H187.669V29.5504H192.311V0.483887Z" fill="#F6921E"/>
<path fill-rule="evenodd" clip-rule="evenodd" d="M193.792 21.456V21.3571C193.568 20.6914 193.408 20.0079 193.313 19.3151C193.261 18.9281 193.217 18.5328 193.174 18.1376C193.109 17.5188 193.109 16.8955 193.174 16.2767C193.221 15.8408 193.315 15.4105 193.452 14.9922C193.54 14.7451 193.618 14.4981 193.722 14.2675C193.87 13.9299 194.048 13.6048 194.254 13.2959C194.55 12.8127 194.907 12.3649 195.316 11.962C195.753 11.538 196.231 11.1547 196.745 10.8174C197.222 10.5044 197.726 10.229 198.252 9.99403C198.572 9.82864 198.904 9.68287 199.245 9.55762C199.811 9.36 200.386 9.15415 200.943 9.00593C201.501 8.85772 201.884 8.79184 202.354 8.69303L203.53 8.49542C203.567 8.48809 203.606 8.48809 203.643 8.49542C203.466 8.55328 203.294 8.62489 203.129 8.7095C202.859 8.80831 202.607 8.92358 202.354 9.03886C201.832 9.27765 201.3 9.51644 200.786 9.7717C200.272 10.027 199.654 10.3646 199.105 10.6857C198.557 11.0068 198.078 11.3444 197.572 11.6985C196.935 12.1541 196.351 12.6731 195.83 13.2465C195.499 13.5923 195.207 13.9705 194.959 14.3746C194.653 14.8194 194.453 15.3226 194.376 15.8485V15.9226C194.601 16.0139 194.834 16.0882 195.073 16.1449C195.563 16.2558 196.067 16.3002 196.571 16.2767C197.158 16.2659 197.743 16.1913 198.313 16.0544C198.883 15.9231 199.44 15.744 199.976 15.5191C200.42 15.3215 200.847 15.0827 201.309 14.8686C201.775 14.631 202.218 14.3555 202.633 14.0452C203.809 13.1556 204.814 12.0803 205.603 10.8668C205.856 10.4716 206.091 10.0846 206.317 9.67289C206.544 9.26119 206.657 9.03063 206.814 8.7095C206.892 8.53658 206.979 8.38013 207.04 8.21545C207.223 7.77904 207.389 7.35087 207.537 6.92269C207.685 6.49452 207.885 5.93459 208.016 5.44877C208.146 4.96296 208.268 4.23837 208.399 3.64551C208.146 3.81842 207.911 4.00781 207.659 4.15602C207.232 4.41951 206.788 4.683 206.335 4.92179C205.808 5.20561 205.254 5.44004 204.68 5.6217C204.296 5.74521 203.896 5.86049 203.513 5.96753C203.129 6.07457 202.824 6.12398 202.485 6.18986C201.953 6.28866 201.413 6.35454 200.873 6.44511C200.333 6.53569 199.837 6.61803 199.323 6.72507C199.086 6.76899 198.853 6.82955 198.626 6.90622C198.243 7.03797 197.868 7.16149 197.494 7.32617C197.119 7.49085 196.832 7.65553 196.51 7.84491C196.013 8.14343 195.555 8.49426 195.142 8.89065C194.675 9.31631 194.266 9.79475 193.923 10.3152C193.714 10.6363 193.54 10.9574 193.365 11.2785C193.191 11.5997 193.061 11.962 192.912 12.2996C192.764 12.6372 192.721 12.8925 192.634 13.1806C192.529 13.6006 192.425 14.0041 192.364 14.4487C192.291 14.9072 192.245 15.3689 192.224 15.832C192.224 16.3014 192.224 16.7625 192.224 17.2318C192.224 17.7012 192.311 18.0553 192.364 18.434C192.457 18.979 192.623 19.5104 192.86 20.015C193.096 20.5051 193.388 20.969 193.731 21.3983C193.731 21.3983 193.766 21.4312 193.792 21.456Z" fill="#F6921E"/>
<path fill-rule="evenodd" clip-rule="evenodd" d="M185.727 19.1833H185.814C186.616 18.7163 187.461 18.3194 188.34 17.9976C188.827 17.8082 189.324 17.6188 189.82 17.4459C190.612 17.1814 191.428 16.9911 192.259 16.8777C192.835 16.7936 193.418 16.7605 194.001 16.7789C194.333 16.7791 194.664 16.7956 194.994 16.8283C195.46 16.8796 195.92 16.9677 196.37 17.0918C197.047 17.2678 197.701 17.5136 198.321 17.8247C198.965 18.165 199.572 18.5649 200.133 19.0186C200.647 19.4373 201.122 19.8974 201.553 20.3937C201.837 20.6967 202.102 21.0156 202.345 21.3489C202.737 21.917 203.112 22.4605 203.443 22.9957C203.715 23.4657 203.959 23.9495 204.174 24.4449C204.357 24.8484 204.514 25.2683 204.68 25.6636C204.696 25.7033 204.696 25.7473 204.68 25.7871C204.549 25.6389 204.427 25.4577 204.296 25.3012C204.166 25.1448 203.887 24.799 203.678 24.5602C203.242 24.0579 202.807 23.5556 202.371 23.078C201.936 22.6005 201.361 22.0323 200.812 21.5465C200.284 21.0652 199.729 20.6117 199.149 20.1879C198.405 19.6302 197.603 19.1473 196.753 18.7469C196.221 18.497 195.664 18.2983 195.09 18.154C194.431 17.977 193.741 17.9266 193.06 18.0058C193.037 18.0062 193.014 18.0125 192.994 18.0241C192.974 18.0357 192.958 18.0521 192.947 18.0717C192.904 18.3516 192.843 18.6234 192.825 18.8951C192.796 19.4655 192.855 20.0368 192.999 20.5913C193.148 21.2147 193.379 21.8178 193.688 22.3864C193.982 22.9711 194.345 23.5234 194.768 24.0332C195.125 24.4531 195.517 24.8566 195.9 25.293C196.313 25.7285 196.774 26.1206 197.276 26.4623C197.847 26.8803 198.456 27.2495 199.096 27.5656C200.041 28.0331 201.033 28.4083 202.058 28.6855C202.615 28.8255 203.181 28.9572 203.748 29.0807C204.314 29.2042 204.671 29.2289 205.124 29.2948C205.353 29.3451 205.586 29.3755 205.821 29.3854C206.413 29.443 207.005 29.5007 207.606 29.5171C208.207 29.5336 208.948 29.5748 209.609 29.5171C210.419 29.5171 211.212 29.4019 212.031 29.3525C211.75 29.1514 211.479 28.937 211.221 28.7102C210.768 28.3149 210.35 27.8868 209.906 27.4998C209.432 27.0093 209.009 26.4772 208.643 25.9106C208.381 25.5367 208.143 25.1491 207.928 24.7496C207.737 24.3955 207.571 24.0497 207.415 23.6956C207.162 23.1357 206.935 22.5675 206.7 22.0488C206.465 21.53 206.239 20.9701 206.004 20.4019C205.881 20.1599 205.742 19.926 205.585 19.702C205.34 19.3204 205.073 18.952 204.784 18.5987C204.519 18.2735 204.228 17.968 203.913 17.6847C203.415 17.2348 202.863 16.8423 202.267 16.5154C201.593 16.1608 200.877 15.8843 200.133 15.692C199.68 15.5767 199.218 15.4697 198.748 15.3956C198.284 15.3191 197.816 15.2669 197.346 15.2391C196.943 15.2146 196.538 15.2146 196.135 15.2391C195.56 15.2391 194.994 15.2391 194.393 15.3462C193.792 15.4532 193.182 15.5273 192.59 15.6508C191.998 15.7744 191.379 15.939 190.796 16.1284C190.212 16.3178 189.768 16.4907 189.272 16.6883C188.576 16.9658 187.92 17.3255 187.32 17.7588C186.745 18.1636 186.212 18.6185 185.727 19.1174C185.727 19.1174 185.753 19.1503 185.727 19.1833Z" fill="#F6921E"/>
<path d="M2.26742 65.0972V66.4146H4.06169V66.9004H2.26742V70.7623C2.24487 71.0804 2.32052 71.3979 2.48517 71.6762C2.56169 71.782 2.6665 71.8667 2.7889 71.9216C2.91131 71.9766 3.04694 71.9999 3.18198 71.9891C3.42648 71.9948 3.67041 71.9643 3.90491 71.8986L3.9833 72.3514C3.70676 72.4567 3.4103 72.5071 3.1123 72.4997C2.91022 72.513 2.70761 72.4821 2.52027 72.4092C2.33292 72.3364 2.16591 72.2236 2.03225 72.0797C1.88595 71.9098 1.78445 71.7094 1.73611 71.4951C1.67186 71.2249 1.63973 70.9487 1.6403 70.6717V66.9087H0.56897V66.4229H1.63159V65.3277L2.26742 65.0972Z" fill="white"/>
<path d="M11.7613 68.2013C11.7613 67.5179 11.7613 66.925 11.7091 66.4145H12.2926V67.6166C12.4211 67.2405 12.6597 66.9065 12.9807 66.6532C13.2907 66.4143 13.6782 66.2835 14.0782 66.2827H14.3395V66.8344H14.0259C13.8216 66.8342 13.6195 66.8753 13.4333 66.9548C13.2471 67.0343 13.0809 67.1505 12.9459 67.2955C12.637 67.6363 12.4376 68.0534 12.371 68.4977C12.3332 68.6849 12.3157 68.8753 12.3188 69.0659V72.3595H11.6917L11.7613 68.2013Z" fill="white"/>
<path d="M26.7686 70.9267C26.7686 71.4867 26.7686 71.9725 26.8209 72.3759H26.2286V71.3137C26.0118 71.6499 25.7132 71.9322 25.3576 72.1372C24.9626 72.3755 24.5022 72.4986 24.0337 72.4912C23.7809 72.5028 23.5278 72.475 23.2846 72.4089C23.0257 72.3297 22.7901 72.1944 22.5965 72.0136C22.3508 71.7829 22.1658 71.5009 22.0565 71.1902C21.9053 70.7633 21.8345 70.3146 21.8475 69.8645V66.3979H22.4746V69.7492C22.4404 70.322 22.5762 70.8924 22.8665 71.3961C23.0048 71.5932 23.1966 71.7515 23.4219 71.8544C23.6472 71.9572 23.8976 72.0009 24.1469 71.9807C24.5586 71.9874 24.9606 71.8627 25.2879 71.6266C25.6017 71.4175 25.8512 71.1333 26.0108 70.8032C26.0886 70.5912 26.1298 70.3688 26.1328 70.1445V66.4309H26.7686V70.9267Z" fill="white"/>
<path d="M34.9299 71.5858C35.1377 71.7063 35.3599 71.8031 35.5919 71.874C35.8354 71.9542 36.0919 71.9932 36.3497 71.9893C36.745 72.0149 37.1363 71.9004 37.4471 71.6682C37.5688 71.5647 37.6653 71.4375 37.73 71.2953C37.7946 71.1532 37.8259 70.9994 37.8217 70.8447C37.8292 70.701 37.8052 70.5573 37.7512 70.4227C37.6973 70.2881 37.6145 70.1655 37.5081 70.0625C37.2111 69.8137 36.8647 69.6234 36.489 69.5026C35.4264 69.0991 34.8864 68.5556 34.8864 67.8557C34.8831 67.6389 34.9287 67.4239 35.0204 67.2251C35.112 67.0263 35.2475 66.8483 35.4177 66.703C35.8067 66.3816 36.3129 66.2162 36.8287 66.2419C37.0937 66.2389 37.3577 66.2722 37.6126 66.3407C37.8287 66.4029 38.0341 66.4944 38.2223 66.6124L37.9872 67.0982C37.8244 66.9888 37.6453 66.9027 37.4559 66.843C37.2209 66.7655 36.9729 66.7292 36.7242 66.7359C36.4042 66.7244 36.092 66.8307 35.8532 67.0323C35.7484 67.1265 35.6656 67.2403 35.6101 67.3665C35.5546 67.4927 35.5276 67.6285 35.5309 67.7652C35.5225 67.8953 35.5446 68.0256 35.5958 68.1466C35.647 68.2676 35.726 68.3764 35.8271 68.4651C36.1279 68.6918 36.4664 68.8699 36.8287 68.9921C37.2884 69.1435 37.7075 69.388 38.0568 69.7084C38.3327 69.9958 38.4768 70.3748 38.4575 70.7624C38.4659 70.9959 38.4186 71.2281 38.319 71.4419C38.2195 71.6557 38.0704 71.8456 37.8826 71.9975C37.4473 72.3346 36.8941 72.505 36.3323 72.4751C36.0378 72.4738 35.7448 72.435 35.4613 72.3598C35.2037 72.2944 34.9573 72.1946 34.7296 72.0634L34.9299 71.5858Z" fill="white"/>
<path d="M47.2634 65.0972V66.4146H49.0663V66.9004H47.2634V70.7623C47.2408 71.0804 47.3164 71.3979 47.4811 71.6762C47.5602 71.7814 47.6668 71.8655 47.7904 71.9203C47.914 71.9752 48.0505 71.9988 48.1866 71.9891C48.4311 71.9948 48.6751 71.9643 48.9095 71.8986L48.9879 72.3514C48.7114 72.4567 48.4149 72.5071 48.1169 72.4997C47.9147 72.515 47.7114 72.4849 47.5237 72.412C47.3361 72.339 47.1692 72.2252 47.0369 72.0797C46.8878 71.9104 46.7833 71.7101 46.732 71.4951C46.6709 71.2245 46.6417 70.9484 46.6449 70.6717V66.9087H45.5736V66.4229H46.6362V65.3277L47.2634 65.0972Z" fill="white"/>
<path d="M56.7922 69.3211C56.7836 69.7285 56.8454 70.1346 56.9751 70.5232C57.083 70.8308 57.2614 71.1119 57.4977 71.3467C57.7259 71.5595 57.9989 71.7245 58.2991 71.8309C58.5992 71.9373 58.9197 71.9827 59.2397 71.9642C59.8396 71.9846 60.4362 71.8718 60.9817 71.6349L61.1385 72.1042C60.8934 72.2151 60.6364 72.3007 60.372 72.3595C59.9715 72.4417 59.5624 72.4804 59.1526 72.4747C58.7535 72.4938 58.3548 72.43 57.9847 72.2877C57.6145 72.1454 57.2818 71.9282 57.0099 71.6513C56.4593 71.0531 56.1725 70.278 56.2086 69.4858C56.2026 69.0361 56.2732 68.5885 56.4176 68.1601C56.5454 67.7833 56.7495 67.4337 57.0186 67.1308C57.2563 66.8575 57.5534 66.6357 57.8896 66.4803C58.2421 66.3284 58.6259 66.2524 59.0132 66.258C59.4365 66.2424 59.856 66.3394 60.2239 66.5379C60.5355 66.7092 60.7985 66.9494 60.9904 67.2378C61.1624 67.5087 61.2887 67.8031 61.3649 68.1106C61.4299 68.3809 61.4649 68.6569 61.4695 68.9341C61.482 69.06 61.482 69.1868 61.4695 69.3128L56.7922 69.3211ZM60.8075 68.8517C60.8087 68.6078 60.7794 68.3646 60.7204 68.1271C60.6589 67.8902 60.5559 67.6648 60.4155 67.4602C60.272 67.2464 60.0705 67.073 59.832 66.9579C59.5636 66.8244 59.2642 66.7565 58.961 66.7603C58.6587 66.756 58.3599 66.821 58.09 66.9496C57.8392 67.0674 57.6191 67.2361 57.4454 67.4437C57.2813 67.6499 57.1493 67.8773 57.0535 68.1189C56.966 68.3571 56.9019 68.6024 56.8619 68.8517H60.8075Z" fill="white"/>
<path d="M74.4125 63.5573V70.9681C74.4125 71.1904 74.4125 71.4292 74.4125 71.6762C74.4125 71.9232 74.4125 72.1456 74.4561 72.3432H73.8899L73.8377 71.2151C73.6423 71.5879 73.3406 71.9016 72.9667 72.1208C72.5513 72.3715 72.0656 72.4978 71.5731 72.4832C71.2 72.4859 70.8311 72.4099 70.493 72.2608C70.1567 72.1204 69.8588 71.9092 69.622 71.6433C69.367 71.3629 69.1718 71.0386 69.0472 70.6881C68.9075 70.2985 68.8398 69.889 68.8468 69.4777C68.8385 69.0246 68.9121 68.5734 69.0646 68.1438C69.1983 67.7678 69.4051 67.4187 69.6743 67.1145C69.9152 66.8465 70.2116 66.6279 70.5453 66.4722C70.8898 66.3238 71.2642 66.248 71.6427 66.2499C72.097 66.2347 72.5466 66.3403 72.9405 66.5546C73.2649 66.732 73.5303 66.9915 73.707 67.3039V63.5244L74.4125 63.5573ZM73.7767 68.7778C73.7828 68.5921 73.7623 68.4066 73.7157 68.2261C73.6102 67.8062 73.3554 67.4332 72.994 67.1694C72.6325 66.9056 72.1863 66.7671 71.7299 66.7769C71.414 66.7671 71.1004 66.8293 70.8153 66.9583C70.5303 67.0873 70.2823 67.2793 70.0924 67.518C69.6655 68.0771 69.4507 68.7559 69.4827 69.4448C69.4593 70.0969 69.6611 70.7386 70.0575 71.2727C70.2419 71.515 70.4876 71.7098 70.7721 71.8393C71.0566 71.9687 71.3709 72.0287 71.6863 72.0138C72.1413 72.0115 72.5815 71.8602 72.9318 71.5856C73.3144 71.2985 73.5843 70.8984 73.6983 70.4493C73.745 70.2885 73.7655 70.1219 73.7593 69.9553L73.7767 68.7778Z" fill="white"/>
<path d="M95.6911 71.5858C95.9028 71.7049 96.1277 71.8015 96.3618 71.874C96.6022 71.9543 96.8559 71.9933 97.1109 71.9893C97.5066 72.0182 97.8991 71.9034 98.2083 71.6682C98.3314 71.5657 98.4289 71.4387 98.4936 71.2963C98.5584 71.1539 98.5889 70.9997 98.5829 70.8447C98.5895 70.7018 98.5659 70.5589 98.5136 70.4246C98.4613 70.2903 98.3812 70.1672 98.278 70.0625C97.981 69.8137 97.6346 69.6234 97.2589 69.5026C96.1876 69.0991 95.6563 68.5556 95.6563 67.8557C95.6512 67.6387 95.6961 67.4232 95.7879 67.2241C95.8796 67.0251 96.016 66.8473 96.1876 66.703C96.5766 66.3816 97.0828 66.2162 97.5986 66.2419C97.8635 66.2401 98.1274 66.2733 98.3825 66.3407C98.5986 66.4029 98.804 66.4944 98.9922 66.6124L98.7571 67.0982C98.5932 66.9904 98.4144 66.9045 98.2257 66.843C97.9906 66.7662 97.7428 66.73 97.4941 66.7359C97.1738 66.7226 96.8609 66.8291 96.6231 67.0323C96.5183 67.1265 96.4355 67.2403 96.38 67.3665C96.3245 67.4927 96.2975 67.6285 96.3008 67.7652C96.2924 67.8953 96.3145 68.0256 96.3657 68.1466C96.4169 68.2676 96.4959 68.3764 96.597 68.4651C96.8965 68.6936 97.2353 68.8719 97.5986 68.9921C98.0564 69.1472 98.4747 69.3912 98.8267 69.7084C99.1026 69.9958 99.2467 70.3748 99.2274 70.7624C99.2358 70.9959 99.1885 71.2281 99.0889 71.4419C98.9894 71.6557 98.8403 71.8456 98.6525 71.9975C98.2164 72.3332 97.6637 72.5034 97.1022 72.4751C96.8076 72.4743 96.5146 72.4355 96.2312 72.3598C95.9736 72.2944 95.7272 72.1946 95.4995 72.0634L95.6911 71.5858Z" fill="white"/>
<path d="M107.45 65.1137C107.385 65.1156 107.32 65.1032 107.261 65.0775C107.202 65.0518 107.15 65.0134 107.11 64.9655C107.017 64.8637 106.965 64.7336 106.965 64.599C106.965 64.4645 107.017 64.3344 107.11 64.2326C107.155 64.1845 107.21 64.1458 107.271 64.1188C107.333 64.0919 107.399 64.0774 107.467 64.0762C107.535 64.0758 107.602 64.0896 107.664 64.1166C107.726 64.1437 107.78 64.1833 107.824 64.2326C107.923 64.3332 107.976 64.4662 107.972 64.6032C107.977 64.7364 107.927 64.8661 107.833 64.9655C107.786 65.0146 107.728 65.0533 107.663 65.0789C107.598 65.1045 107.528 65.1164 107.458 65.1137H107.45ZM107.162 72.4091V66.4476H107.772V72.4091H107.162Z" fill="white"/>
<path d="M116.221 67.8472C116.221 67.5755 116.221 67.3367 116.221 67.1062C116.221 66.8756 116.221 66.6451 116.221 66.4145H116.813V67.4932C117.016 67.1468 117.318 66.8615 117.684 66.6698C118.082 66.4382 118.541 66.3183 119.008 66.3239C119.229 66.3251 119.449 66.3556 119.661 66.4145C119.924 66.4857 120.167 66.6093 120.375 66.7768C120.637 66.9847 120.841 67.2506 120.968 67.5508C121.146 67.9601 121.229 68.4011 121.211 68.8436V72.409H120.584V68.893C120.587 68.6159 120.555 68.3394 120.489 68.0696C120.433 67.8321 120.333 67.6061 120.192 67.4026C120.055 67.2083 119.866 67.052 119.644 66.9497C119.392 66.834 119.114 66.7775 118.834 66.785C118.405 66.7858 117.99 66.9253 117.658 67.1803C117.319 67.4261 117.069 67.7657 116.944 68.1519C116.895 68.3267 116.868 68.5064 116.865 68.6871V72.409H116.238L116.221 67.8472Z" fill="white"/>
<path d="M133.902 72.1291C133.647 72.2394 133.382 72.3276 133.109 72.3926C132.763 72.4798 132.405 72.5213 132.047 72.5161C131.626 72.5203 131.208 72.4447 130.819 72.2938C130.454 72.1516 130.127 71.9352 129.861 71.6598C129.584 71.3873 129.373 71.0614 129.242 70.7046C128.935 69.8871 128.935 68.9943 129.242 68.1767C129.389 67.7967 129.62 67.4512 129.922 67.1639C130.21 66.877 130.561 66.6523 130.949 66.5052C131.681 66.251 132.477 66.2137 133.231 66.3982C133.468 66.4493 133.694 66.5354 133.902 66.6534L133.676 67.1392C133.474 67.032 133.261 66.9464 133.04 66.884C132.756 66.8131 132.463 66.7799 132.169 66.7852C131.814 66.7681 131.459 66.8274 131.132 66.9587C130.804 67.0899 130.513 67.2896 130.279 67.5427C129.825 68.0728 129.588 68.7387 129.608 69.4201C129.574 70.1077 129.824 70.7809 130.305 71.2975C130.535 71.5298 130.815 71.7132 131.126 71.8353C131.436 71.9574 131.771 72.0155 132.108 72.0056C132.402 72.0111 132.695 71.9779 132.979 71.9068C133.222 71.8391 133.461 71.7566 133.693 71.6598L133.902 72.1291Z" fill="white"/>
<path d="M141.645 69.3213C141.637 69.7288 141.698 70.1348 141.828 70.5235C141.936 70.831 142.114 71.1122 142.351 71.3469C142.579 71.5602 142.852 71.7254 143.152 71.8319C143.452 71.9383 143.773 71.9835 144.093 71.9645C144.432 71.974 144.772 71.9436 145.103 71.8739C145.355 71.818 145.6 71.738 145.835 71.6351L145.991 72.1045C145.75 72.2169 145.496 72.3026 145.234 72.3597C144.833 72.442 144.424 72.4806 144.014 72.475C143.615 72.494 143.217 72.4302 142.846 72.2879C142.476 72.1457 142.143 71.9285 141.872 71.6516C141.318 71.0551 141.031 70.2787 141.07 69.486C141.064 69.0364 141.135 68.5887 141.279 68.1603C141.408 67.7855 141.608 67.4365 141.872 67.131C142.124 66.8549 142.436 66.6331 142.786 66.4805C143.139 66.3286 143.522 66.2527 143.91 66.2582C144.333 66.244 144.752 66.3409 145.12 66.5382C145.432 66.7095 145.695 66.9496 145.887 67.2381C146.055 67.5106 146.182 67.8045 146.261 68.1109C146.326 68.3812 146.361 68.6572 146.366 68.9343C146.378 69.0603 146.378 69.1871 146.366 69.3131L141.645 69.3213ZM145.66 68.852C145.662 68.608 145.632 68.3648 145.573 68.1274C145.512 67.8905 145.409 67.6651 145.269 67.4604C145.122 67.2487 144.922 67.0758 144.685 66.9581C144.416 66.825 144.117 66.7571 143.814 66.7605C143.512 66.7581 143.214 66.823 142.943 66.9499C142.696 67.0699 142.479 67.2384 142.307 67.4439C142.143 67.6501 142.011 67.8775 141.915 68.1191C141.824 68.3562 141.759 68.6019 141.724 68.852H145.66Z" fill="white"/>
<path d="M169.387 64.916L167.993 65.6817L167.836 65.2124L169.448 64.3066H170.022V72.409H169.404L169.387 64.916Z" fill="white"/>
<path d="M180.326 71.9643H180.414H180.535C180.79 71.9593 181.043 71.9345 181.293 71.8902C182.012 71.7953 182.67 71.4592 183.148 70.9433C183.459 70.6236 183.709 70.2559 183.889 69.8564C184.102 69.3865 184.243 68.8901 184.307 68.3824H184.263C184.012 68.7111 183.68 68.9778 183.297 69.1598C182.913 69.3418 182.489 69.4339 182.06 69.4282C181.73 69.4394 181.403 69.38 181.101 69.2545C180.799 69.129 180.532 68.9407 180.318 68.7036C179.885 68.2251 179.655 67.6119 179.673 66.9827C179.67 66.6153 179.735 66.2502 179.865 65.904C179.991 65.5701 180.18 65.2605 180.422 64.99C180.665 64.7277 180.961 64.5148 181.293 64.3642C181.638 64.2078 182.017 64.1289 182.399 64.1336C182.763 64.1275 183.123 64.2053 183.448 64.3603C183.773 64.5152 184.053 64.7427 184.263 65.0229C184.782 65.7499 185.033 66.618 184.978 67.4932C184.995 68.2569 184.859 69.0169 184.577 69.7329C184.344 70.3225 183.985 70.8607 183.523 71.3138C183.247 71.5822 182.93 71.8098 182.582 71.989C182.25 72.1626 181.892 72.2876 181.52 72.3595C181.141 72.4336 180.756 72.4722 180.37 72.4748L180.326 71.9643ZM182.243 64.6606C181.966 64.6554 181.693 64.7125 181.444 64.827C181.196 64.9415 180.98 65.1103 180.814 65.3194C180.429 65.7893 180.232 66.3724 180.257 66.9662C180.228 67.4912 180.419 68.0059 180.788 68.3989C180.964 68.5781 181.179 68.7194 181.418 68.8132C181.657 68.907 181.914 68.951 182.173 68.9424C182.592 68.9482 183.004 68.8457 183.366 68.6459C183.723 68.4748 184.024 68.2159 184.237 67.8966C184.299 67.7933 184.335 67.6777 184.342 67.559C184.379 66.8267 184.198 66.0993 183.819 65.4593C183.658 65.212 183.431 65.0093 183.16 64.872C182.889 64.7346 182.585 64.6673 182.277 64.6771L182.243 64.6606Z" fill="white"/>
<path d="M193.043 71.9643H193.13H193.252C193.506 71.9593 193.76 71.9345 194.01 71.8902C194.728 71.7953 195.387 71.4592 195.865 70.9433C196.179 70.6258 196.429 70.2576 196.605 69.8564C196.819 69.3865 196.959 68.8901 197.023 68.3825H196.98C196.728 68.7111 196.397 68.9778 196.013 69.1598C195.63 69.3418 195.205 69.4339 194.776 69.4282C194.447 69.4394 194.119 69.38 193.818 69.2545C193.516 69.129 193.248 68.9407 193.034 68.7036C192.602 68.2251 192.372 67.6119 192.39 66.9827C192.385 66.6145 192.453 66.2488 192.59 65.904C192.709 65.5729 192.892 65.2656 193.13 64.9982C193.37 64.7339 193.667 64.5206 194.001 64.3724C194.349 64.2151 194.73 64.1361 195.116 64.1419C195.478 64.1364 195.837 64.2145 196.16 64.3695C196.483 64.5244 196.762 64.7516 196.971 65.0312C197.49 65.7581 197.741 66.6262 197.685 67.5014C197.703 68.2652 197.567 69.0251 197.285 69.7411C197.055 70.3323 196.696 70.871 196.231 71.3221C195.958 71.5941 195.641 71.8222 195.29 71.9973C194.96 72.1694 194.605 72.2943 194.236 72.3678C193.855 72.4415 193.467 72.4801 193.078 72.4831L193.043 71.9643ZM194.959 64.6606C194.683 64.6555 194.409 64.7125 194.161 64.827C193.913 64.9416 193.697 65.1103 193.531 65.3194C193.149 65.7909 192.952 66.3729 192.973 66.9662C192.949 67.4906 193.139 68.0037 193.505 68.3989C193.682 68.5788 193.898 68.7204 194.139 68.8142C194.379 68.908 194.638 68.9517 194.898 68.9424C195.317 68.947 195.729 68.8445 196.092 68.646C196.449 68.4759 196.75 68.2168 196.963 67.8966C197.025 67.7933 197.06 67.6777 197.067 67.559C197.104 66.8267 196.923 66.0993 196.544 65.4593C196.384 65.2132 196.158 65.0114 195.889 64.8741C195.62 64.7368 195.317 64.6688 195.011 64.6771L194.959 64.6606Z" fill="white"/>
<path d="M207.746 64.175C208.047 64.1618 208.349 64.2052 208.633 64.3027C208.917 64.4003 209.178 64.5499 209.4 64.7431C209.599 64.9173 209.757 65.129 209.863 65.3645C209.97 65.5999 210.023 65.8539 210.019 66.11C210.015 66.4963 209.894 66.8734 209.67 67.1969C209.372 67.5704 208.967 67.856 208.503 68.0203V68.0697C209.011 68.1886 209.463 68.4616 209.79 68.8469C210.117 69.2322 210.302 69.7084 210.315 70.2024C210.318 70.5206 210.247 70.8355 210.106 71.1246C209.968 71.4048 209.766 71.6524 209.514 71.8492C209.258 72.0573 208.962 72.2167 208.643 72.3186C208.32 72.4338 207.977 72.4924 207.632 72.4915C207.274 72.4938 206.917 72.4381 206.578 72.3268C206.26 72.2299 205.964 72.0762 205.707 71.8739C205.469 71.6873 205.276 71.4541 205.141 71.1905C205.012 70.9329 204.944 70.652 204.941 70.367C204.934 69.8849 205.099 69.4147 205.411 69.0331C205.762 68.6259 206.218 68.3112 206.735 68.1191V68.0697C206.294 67.9002 205.913 67.6144 205.638 67.2463C205.411 66.9396 205.29 66.5747 205.289 66.2006C205.28 65.9195 205.337 65.6401 205.456 65.3824C205.575 65.1247 205.753 64.8951 205.977 64.7102C206.458 64.3128 207.081 64.1037 207.719 64.1256L207.746 64.175ZM207.65 72.0221C208.19 72.0484 208.72 71.8774 209.13 71.5446C209.313 71.3929 209.457 71.2049 209.554 70.9942C209.65 70.7835 209.696 70.5553 209.688 70.3259C209.7 70.0889 209.659 69.8522 209.565 69.6319C209.472 69.4117 209.33 69.213 209.148 69.0496C208.663 68.6854 208.097 68.4293 207.493 68.3003C206.967 68.4267 206.489 68.6923 206.117 69.0661C205.805 69.3905 205.634 69.8137 205.638 70.2518C205.63 70.4869 205.674 70.721 205.767 70.9392C205.86 71.1575 206 71.3552 206.178 71.5199C206.373 71.6928 206.603 71.8265 206.855 71.9129C207.106 71.9992 207.374 72.0364 207.641 72.0221H207.65ZM207.702 64.6608C207.469 64.6486 207.235 64.6809 207.015 64.7559C206.795 64.8309 206.593 64.9469 206.422 65.0972C206.27 65.234 206.151 65.3992 206.072 65.5821C205.992 65.765 205.954 65.9617 205.96 66.1594C205.948 66.3654 205.985 66.5712 206.068 66.7621C206.151 66.9529 206.278 67.1239 206.439 67.2628C206.844 67.5741 207.322 67.7888 207.833 67.8886C208.269 67.7602 208.664 67.5309 208.982 67.2216C209.264 66.9334 209.414 66.5517 209.4 66.1594C209.408 65.7681 209.259 65.3886 208.982 65.0972C208.816 64.945 208.617 64.8275 208.4 64.7523C208.182 64.6771 207.95 64.6459 207.719 64.6608H207.702Z" fill="white"/>
</svg>
