<svg width="34" height="33" viewBox="0 0 34 33" fill="none" xmlns="http://www.w3.org/2000/svg">
<g clip-path="url(#clip0_125_1737)">
<path d="M20.1582 16.5C20.1582 18.2443 18.7443 19.6582 17 19.6582C15.2557 19.6582 13.8418 18.2443 13.8418 16.5C13.8418 14.7557 15.2557 13.3418 17 13.3418C18.7443 13.3418 20.1582 14.7557 20.1582 16.5Z" fill="white"/>
<path d="M24.386 10.912C24.2341 10.5006 23.9919 10.1282 23.6772 9.82259C23.3716 9.50787 22.9995 9.26567 22.5878 9.11385C22.254 8.98419 21.7524 8.82986 20.8287 8.78781C19.8294 8.74224 19.5298 8.73242 17 8.73242C14.47 8.73242 14.1704 8.74199 13.1714 8.78756C12.2476 8.82986 11.7458 8.98419 11.4122 9.11385C11.0006 9.26567 10.6282 9.50787 10.3228 9.82259C10.0081 10.1282 9.76592 10.5004 9.61385 10.912C9.48419 11.2458 9.32986 11.7476 9.28781 12.6714C9.24224 13.6704 9.23242 13.97 9.23242 16.5C9.23242 19.0298 9.24224 19.3294 9.28781 20.3287C9.32986 21.2524 9.48419 21.754 9.61385 22.0878C9.76592 22.4995 10.0079 22.8716 10.3226 23.1772C10.6282 23.4919 11.0004 23.7341 11.412 23.886C11.7458 24.0159 12.2476 24.1702 13.1714 24.2122C14.1704 24.2578 14.4697 24.2674 16.9998 24.2674C19.5301 24.2674 19.8297 24.2578 20.8284 24.2122C21.7522 24.1702 22.254 24.0159 22.5878 23.886C23.4141 23.5672 24.0672 22.9141 24.386 22.0878C24.5156 21.754 24.67 21.2524 24.7122 20.3287C24.7578 19.3294 24.7674 19.0298 24.7674 16.5C24.7674 13.97 24.7578 13.6704 24.7122 12.6714C24.6702 11.7476 24.5159 11.2458 24.386 10.912ZM17 21.365C14.3129 21.365 12.1346 19.1869 12.1346 16.4998C12.1346 13.8126 14.3129 11.6346 17 11.6346C19.6869 11.6346 21.8652 13.8126 21.8652 16.4998C21.8652 19.1869 19.6869 21.365 17 21.365ZM22.0576 12.5792C21.4297 12.5792 20.9206 12.0701 20.9206 11.4422C20.9206 10.8143 21.4297 10.3052 22.0576 10.3052C22.6855 10.3052 23.1946 10.8143 23.1946 11.4422C23.1943 12.0701 22.6855 12.5792 22.0576 12.5792Z" fill="white"/>
<path d="M17 0C7.88869 0 0.5 7.38869 0.5 16.5C0.5 25.6113 7.88869 33 17 33C26.1113 33 33.5 25.6113 33.5 16.5C33.5 7.38869 26.1113 0 17 0ZM26.4175 20.4062C26.3716 21.4148 26.2113 22.1034 25.9771 22.7061C25.4849 23.9788 24.4788 24.9849 23.2061 25.4771C22.6036 25.7113 21.9148 25.8714 20.9065 25.9175C19.8961 25.9635 19.5733 25.9746 17.0003 25.9746C14.4269 25.9746 14.1044 25.9635 13.0938 25.9175C12.0854 25.8714 11.3966 25.7113 10.7941 25.4771C10.1617 25.2392 9.58915 24.8663 9.11582 24.3842C8.63393 23.9111 8.26106 23.3383 8.02314 22.7061C7.78899 22.1036 7.62862 21.4148 7.58279 20.4065C7.53622 19.3959 7.52539 19.0731 7.52539 16.5C7.52539 13.9269 7.53622 13.6041 7.58254 12.5938C7.62836 11.5852 7.78849 10.8966 8.02264 10.2939C8.26056 9.66167 8.63368 9.0889 9.11582 8.61582C9.5889 8.13368 10.1617 7.76081 10.7939 7.52289C11.3966 7.28874 12.0852 7.12862 13.0938 7.08254C14.1041 7.03647 14.4269 7.02539 17 7.02539C19.5731 7.02539 19.8959 7.03647 20.9062 7.08279C21.9148 7.12862 22.6034 7.28874 23.2061 7.52264C23.8383 7.76056 24.4111 8.13368 24.8844 8.61582C25.3663 9.08915 25.7394 9.66167 25.9771 10.2939C26.2115 10.8966 26.3716 11.5852 26.4177 12.5938C26.4638 13.6041 26.4746 13.9269 26.4746 16.5C26.4746 19.0731 26.4638 19.3959 26.4175 20.4062Z" fill="white"/>
</g>
<defs>
<clipPath id="clip0_125_1737">
<rect width="33" height="33" fill="white" transform="translate(0.5)"/>
</clipPath>
</defs>
</svg>
