<svg width="34" height="33" viewBox="0 0 34 33" fill="none" xmlns="http://www.w3.org/2000/svg">
<g clip-path="url(#clip0_125_1735)">
<path d="M17 0C7.88869 0 0.5 7.38869 0.5 16.5C0.5 25.6113 7.88869 33 17 33C26.1113 33 33.5 25.6113 33.5 16.5C33.5 7.38869 26.1113 0 17 0ZM12.2053 24.9434H8.18679V12.8536H12.2053V24.9434ZM10.1962 11.2028H10.17C8.8215 11.2028 7.94937 10.2745 7.94937 9.11433C7.94937 7.92799 8.84819 7.02539 10.2229 7.02539C11.5975 7.02539 12.4435 7.92799 12.4697 9.11433C12.4697 10.2745 11.5975 11.2028 10.1962 11.2028ZM26.6952 24.9434H22.6772V18.4756C22.6772 16.8502 22.0953 15.7417 20.6413 15.7417C19.5313 15.7417 18.8701 16.4894 18.5796 17.2113C18.4734 17.4696 18.4474 17.8306 18.4474 18.1919V24.9434H14.4292C14.4292 24.9434 14.4818 13.9878 14.4292 12.8536H18.4474V14.5654C18.9814 13.7416 19.9369 12.5699 22.0689 12.5699C24.7127 12.5699 26.6952 14.2978 26.6952 18.0111V24.9434Z" fill="white"/>
</g>
<defs>
<clipPath id="clip0_125_1735">
<rect width="33" height="33" fill="white" transform="translate(0.5)"/>
</clipPath>
</defs>
</svg>
