<svg width="25" height="25" viewBox="0 0 25 25" fill="none" xmlns="http://www.w3.org/2000/svg">
<g clip-path="url(#clip0_52_2767)">
<path d="M12.5 0.000732422C5.59716 0.000732422 0 5.5968 0 12.5002C0 19.4036 5.59661 24.9996 12.5 24.9996C19.4039 24.9996 25 19.4036 25 12.5002C25 5.5968 19.4039 0.000732422 12.5 0.000732422ZM12.5 3.73821C14.7841 3.73821 16.635 5.58966 16.635 7.87267C16.635 10.1562 14.7841 12.0071 12.5 12.0071C10.217 12.0071 8.36609 10.1562 8.36609 7.87267C8.36609 5.58966 10.217 3.73821 12.5 3.73821ZM12.4973 21.7316C10.2192 21.7316 8.13274 20.902 6.52343 19.5288C6.1314 19.1944 5.90519 18.7041 5.90519 18.1896C5.90519 15.8742 7.77914 14.0211 10.0951 14.0211H14.906C17.2225 14.0211 19.0893 15.8742 19.0893 18.1896C19.0893 18.7046 18.8642 19.1938 18.4716 19.5282C16.8629 20.902 14.7759 21.7316 12.4973 21.7316Z" fill="white"/>
</g>
<defs>
<clipPath id="clip0_52_2767">
<rect width="25" height="25" fill="white"/>
</clipPath>
</defs>
</svg>
