<svg width="27" height="28" viewBox="0 0 27 28" fill="none" xmlns="http://www.w3.org/2000/svg">
<g clip-path="url(#clip0_52_2843)">
<path d="M15.4719 15.9812C14.7539 16.6992 13.8013 17.0941 12.7854 17.0941C11.7695 17.0941 10.8169 16.6992 10.0989 15.9812C9.38088 15.264 8.98685 14.3106 8.98685 13.2955C8.98685 12.2805 9.38172 11.3271 10.0989 10.609C10.8169 9.891 11.7695 9.49613 12.7854 9.49613C13.8013 9.49613 14.7539 9.891 15.4719 10.609C16.1899 11.3262 16.584 12.2805 16.584 13.2955C16.584 14.3106 16.1899 15.264 15.4719 15.9812ZM26.9478 14.0532C26.9478 21.4968 20.8913 27.5532 13.4478 27.5532C6.00419 27.5532 -0.0522461 21.4968 -0.0522461 14.0532C-0.0522461 6.60966 6.00419 0.553223 13.4478 0.553223C20.8913 0.553223 26.9478 6.60882 26.9478 14.0532ZM19.4544 18.7512L17.2218 16.5128C17.9002 15.5821 18.2715 14.4683 18.2715 13.2947C18.2715 11.8291 17.7011 10.4513 16.665 9.41513C15.6288 8.379 14.2518 7.80779 12.7854 7.80779C11.319 7.80779 9.94197 8.379 8.90585 9.41513C7.86972 10.4513 7.29935 11.8291 7.29935 13.2947C7.29935 14.7603 7.87057 16.1381 8.90585 17.1734C9.94197 18.2095 11.319 18.7808 12.7854 18.7808C13.9709 18.7808 15.0964 18.4011 16.033 17.7092L18.2597 19.9418C18.4242 20.1071 18.6402 20.1898 18.857 20.1898C19.073 20.1898 19.2882 20.108 19.4527 19.9434C19.7826 19.6161 19.7826 19.0811 19.4544 18.7512Z" fill="black"/>
</g>
<defs>
<clipPath id="clip0_52_2843">
<rect width="27" height="27" fill="white" transform="translate(0 0.5)"/>
</clipPath>
</defs>
</svg>
