<svg width="25" height="25" viewBox="0 0 25 25" fill="none" xmlns="http://www.w3.org/2000/svg">
<g clip-path="url(#clip0_52_2770)">
<path d="M11.0346 23.4859C12.248 23.4859 13.2317 22.5022 13.2317 21.2887C13.2317 20.0753 12.248 19.0916 11.0346 19.0916C9.82111 19.0916 8.8374 20.0753 8.8374 21.2887C8.8374 22.5022 9.82111 23.4859 11.0346 23.4859Z" fill="white"/>
<path d="M18.4074 23.4859C19.6208 23.4859 20.6045 22.5022 20.6045 21.2887C20.6045 20.0753 19.6208 19.0916 18.4074 19.0916C17.1939 19.0916 16.2102 20.0753 16.2102 21.2887C16.2102 22.5022 17.1939 23.4859 18.4074 23.4859Z" fill="white"/>
<path d="M0.732385 2.97898H3.78658L7.32244 15.3569L7.04511 15.9116C6.31487 17.3705 7.37493 19.0915 9.01054 19.0915H21.3368C21.7416 19.0915 22.0692 18.7639 22.0692 18.3591C22.0692 17.9543 21.7416 17.6267 21.3368 17.6267H9.01054C8.46667 17.6267 8.11122 17.054 8.3554 16.5667L8.55783 16.1619H21.3368C21.6637 16.1619 21.9512 15.9452 22.0413 15.6305L24.9709 5.3771C25.0338 5.15612 24.9895 4.91863 24.8514 4.73485C24.7127 4.55175 24.496 4.44375 24.2664 4.44375H5.72838L5.04321 2.04558C4.95307 1.7309 4.66559 1.51416 4.3387 1.51416H0.732385C0.327572 1.51416 0 1.84173 0 2.24655C0 2.65136 0.327572 2.97898 0.732385 2.97898Z" fill="white"/>
</g>
<defs>
<clipPath id="clip0_52_2770">
<rect width="24.9989" height="24.9989" fill="white" transform="translate(0 0.000488281)"/>
</clipPath>
</defs>
</svg>
