<svg width="26" height="25" viewBox="0 0 26 25" fill="none" xmlns="http://www.w3.org/2000/svg">
<g clip-path="url(#clip0_52_3163)">
<path d="M11.1161 23.4854C12.3296 23.4854 13.3133 22.5017 13.3133 21.2882C13.3133 20.0748 12.3296 19.0911 11.1161 19.0911C9.90265 19.0911 8.91895 20.0748 8.91895 21.2882C8.91895 22.5017 9.90265 23.4854 11.1161 23.4854Z" fill="white"/>
<path d="M18.4887 23.4854C19.7021 23.4854 20.6858 22.5017 20.6858 21.2882C20.6858 20.0748 19.7021 19.0911 18.4887 19.0911C17.2752 19.0911 16.2915 20.0748 16.2915 21.2882C16.2915 22.5017 17.2752 23.4854 18.4887 23.4854Z" fill="white"/>
<path d="M0.813928 2.97849H3.86812L7.40398 15.3564L7.12665 15.9111C6.39641 17.37 7.45647 19.091 9.09208 19.091H21.4184C21.8232 19.091 22.1508 18.7634 22.1508 18.3586C22.1508 17.9538 21.8232 17.6262 21.4184 17.6262H9.09208C8.54821 17.6262 8.19276 17.0535 8.43694 16.5662L8.63937 16.1614H21.4184C21.7452 16.1614 22.0327 15.9447 22.1229 15.63L25.0524 5.37661C25.1154 5.15563 25.071 4.91814 24.933 4.73436C24.7942 4.55126 24.5775 4.44326 24.348 4.44326H5.80992L5.12475 2.04509C5.03462 1.73041 4.74713 1.51367 4.42024 1.51367H0.813928C0.409115 1.51367 0.081543 1.84124 0.081543 2.24606C0.081543 2.65087 0.409115 2.97849 0.813928 2.97849Z" fill="white"/>
</g>
<defs>
<clipPath id="clip0_52_3163">
<rect width="24.9989" height="24.9989" fill="white" transform="translate(0.081543)"/>
</clipPath>
</defs>
</svg>
