<svg width="34" height="33" viewBox="0 0 34 33" fill="none" xmlns="http://www.w3.org/2000/svg">
<g clip-path="url(#clip0_125_1725)">
<path d="M17.0041 0H16.9959C7.89819 0 0.5 7.40025 0.5 16.5C0.5 20.1094 1.66325 23.4548 3.64119 26.1711L1.58488 32.3008L7.92706 30.2734C10.5361 32.0018 13.6484 33 17.0041 33C26.1018 33 33.5 25.5977 33.5 16.5C33.5 7.40231 26.1018 0 17.0041 0ZM26.6051 23.3001C26.207 24.4241 24.6271 25.3564 23.3669 25.6286C22.5048 25.8122 21.3787 25.9586 17.5878 24.387C12.7389 22.3781 9.61625 17.4508 9.37288 17.1311C9.13981 16.8114 7.4135 14.5221 7.4135 12.1543C7.4135 9.78656 8.61594 8.63363 9.10063 8.13863C9.49869 7.73231 10.1566 7.54669 10.7878 7.54669C10.9919 7.54669 11.1755 7.557 11.3405 7.56525C11.8252 7.58588 12.0686 7.61475 12.3883 8.37994C12.7863 9.339 13.7557 11.7067 13.8712 11.9501C13.9887 12.1935 14.1063 12.5235 13.9413 12.8432C13.7866 13.1732 13.6505 13.3196 13.4071 13.6001C13.1637 13.8806 12.9327 14.0951 12.6894 14.3962C12.4666 14.6582 12.215 14.9387 12.4955 15.4234C12.776 15.8977 13.7454 17.4797 15.1726 18.7502C17.0144 20.3899 18.5077 20.9137 19.0419 21.1365C19.4399 21.3015 19.9143 21.2623 20.2051 20.9529C20.5743 20.5549 21.0301 19.8949 21.4942 19.2452C21.8242 18.7791 22.2408 18.7213 22.6781 18.8863C23.1236 19.041 25.481 20.2063 25.9657 20.4476C26.4504 20.691 26.7701 20.8065 26.8876 21.0107C27.0031 21.2149 27.0031 22.1739 26.6051 23.3001Z" fill="white"/>
</g>
<defs>
<clipPath id="clip0_125_1725">
<rect width="33" height="33" fill="white" transform="translate(0.5)"/>
</clipPath>
</defs>
</svg>
