<svg width="34" height="33" viewBox="0 0 34 33" fill="none" xmlns="http://www.w3.org/2000/svg">
<g clip-path="url(#clip0_125_1729)">
<path d="M14.7117 19.1618L19.2882 16.5066L14.7117 13.8384V19.1618Z" fill="white"/>
<path d="M17 0C13.7366 0 10.5465 0.967708 7.8331 2.78075C5.11969 4.59379 3.00484 7.17074 1.756 10.1857C0.507149 13.2007 0.180394 16.5183 0.81705 19.719C1.45371 22.9197 3.02518 25.8597 5.33275 28.1673C7.64031 30.4748 10.5803 32.0463 13.781 32.683C16.9817 33.3196 20.2993 32.9929 23.3143 31.744C26.3293 30.4952 28.9062 28.3803 30.7193 25.6669C32.5323 22.9535 33.5 19.7634 33.5 16.5C33.5 12.1239 31.7616 7.92709 28.6673 4.83274C25.5729 1.73839 21.3761 0 17 0ZM25.6842 19.4201C25.6845 19.8516 25.5997 20.279 25.4348 20.6778C25.2699 21.0766 25.0279 21.4389 24.7229 21.7442C24.4178 22.0494 24.0556 22.2916 23.657 22.4568C23.2583 22.622 22.831 22.707 22.3994 22.707H11.6006C11.1691 22.707 10.7417 22.622 10.3431 22.4568C9.94439 22.2916 9.58218 22.0494 9.27713 21.7442C8.97208 21.4389 8.73016 21.0766 8.56521 20.6778C8.40027 20.279 8.31551 19.8516 8.3158 19.4201V13.5799C8.31551 13.1484 8.40027 12.721 8.56521 12.3222C8.73016 11.9234 8.97208 11.5611 9.27713 11.2558C9.58218 10.9506 9.94439 10.7084 10.3431 10.5432C10.7417 10.378 11.1691 10.293 11.6006 10.293H22.3994C22.831 10.293 23.2583 10.378 23.657 10.5432C24.0556 10.7084 24.4178 10.9506 24.7229 11.2558C25.0279 11.5611 25.2699 11.9234 25.4348 12.3222C25.5997 12.721 25.6845 13.1484 25.6842 13.5799V19.4201Z" fill="white"/>
</g>
<defs>
<clipPath id="clip0_125_1729">
<rect width="33" height="33" fill="white" transform="translate(0.5)"/>
</clipPath>
</defs>
</svg>
